<?xml version="1.0" encoding="UTF-8"?>
<svg width="452px" height="320px" viewBox="0 0 452 320" version="1.1" xmlns="http://www.w3.org/2000/svg" xmlns:xlink="http://www.w3.org/1999/xlink">
    <!-- Generator: Sketch 63 (92445) - https://sketch.com -->
    <title>login-illustrator</title>
    <desc>Created with Sketch.</desc>
    <defs>
        <polygon id="path-1" points="0.706441797 0.0401924723 28.309329 0.0401924723 28.309329 27.4820324 0.706441797 27.4820324"></polygon>
        <polygon id="path-3" points="0.300706187 0.231284716 16.9484762 0.231284716 16.9484762 113.520638 0.300706187 113.520638"></polygon>
        <polygon id="path-5" points="0.0677244276 0.231284716 15.2297034 0.231284716 15.2297034 226.257088 0.0677244276 226.257088"></polygon>
    </defs>
    <g id="页面-1" stroke="none" stroke-width="1" fill="none" fill-rule="evenodd">
        <g id="授权2" transform="translate(-149.000000, -300.000000)">
            <g id="模态对话框/基础" transform="translate(95.000000, 300.000000)">
                <g id="login-illustrator" transform="translate(54.000000, 0.000000)">
                    <path d="M98.6762186,217.427455 C98.6762186,237.898133 81.985257,254.492128 61.3949579,254.492128 C40.802931,254.492128 24.1119694,237.898133 24.1119694,217.427455 C24.1119694,196.956776 40.802931,180.361063 61.3949579,180.361063 C81.985257,180.361063 98.6762186,196.956776 98.6762186,217.427455" id="Fill-1" fill="#FFE7B3"></path>
                    <path d="M355.562522,52.9856223 C355.562522,73.4563011 338.87156,90.0502958 318.281261,90.0502958 C297.690962,90.0502958 281,73.4563011 281,52.9856223 C281,32.5149434 297.690962,15.9192311 318.281261,15.9192311 C338.87156,15.9192311 355.562522,32.5149434 355.562522,52.9856223" id="Fill-3" fill="#FFE7B3"></path>
                    <path d="M421.644601,147.112098 C421.644601,162.388673 409.188144,174.772764 393.822301,174.772764 C378.456457,174.772764 366,162.388673 366,147.112098 C366,131.835524 378.456457,119.451433 393.822301,119.451433 C409.188144,119.451433 421.644601,131.835524 421.644601,147.112098" id="Fill-5" fill="#FFE7B3"></path>
                    <path d="M235.047604,33.7923426 C235.047604,43.5982753 227.051976,51.5474532 217.188742,51.5474532 C207.325508,51.5474532 199.329879,43.5982753 199.329879,33.7923426 C199.329879,23.98641 207.325508,16.0372321 217.188742,16.0372321 C227.051976,16.0372321 235.047604,23.98641 235.047604,33.7923426" id="Fill-7" fill="#FFE7B3"></path>
                    <path d="M225.488094,177.182251 C225.488094,186.988184 217.492465,194.937362 207.629232,194.937362 C197.765998,194.937362 189.770369,186.988184 189.770369,177.182251 C189.770369,167.376318 197.765998,159.427141 207.629232,159.427141 C217.492465,159.427141 225.488094,167.376318 225.488094,177.182251" id="Fill-9" fill="#FFE7B3"></path>
                    <path d="M373.203363,296.50872 C373.203363,306.314653 365.207735,314.263831 355.344501,314.263831 C345.481267,314.263831 337.485639,306.314653 337.485639,296.50872 C337.485639,286.702788 345.481267,278.75361 355.344501,278.75361 C365.207735,278.75361 373.203363,286.702788 373.203363,296.50872" id="Fill-11" fill="#FFE7B3"></path>
                    <path d="M275.283343,267.481854 C275.283343,275.060025 269.105217,281.202259 261.482764,281.202259 C253.86031,281.202259 247.680456,275.060025 247.680456,267.481854 C247.680456,259.903684 253.86031,253.76145 261.482764,253.76145 C269.105217,253.76145 275.283343,259.903684 275.283343,267.481854" id="Fill-13" fill="#FFE7B3"></path>
                    <g id="编组" transform="translate(99.736271, 291.688544)">
                        <mask id="mask-2" fill="white">
                            <use xlink:href="#path-1"></use>
                        </mask>
                        <g id="Clip-16"></g>
                        <path d="M28.309329,13.7605971 C28.309329,21.3387675 22.1312027,27.4827194 14.5087492,27.4827194 C6.88629581,27.4827194 0.706441797,21.3387675 0.706441797,13.7605971 C0.706441797,6.1824267 6.88629581,0.0401924723 14.5087492,0.0401924723 C22.1312027,0.0401924723 28.309329,6.1824267 28.309329,13.7605971" id="Fill-15" fill="#FFE7B3" mask="url(#mask-2)"></path>
                    </g>
                    <path d="M57.0215493,68.5876873 C57.0215493,83.0604126 45.2216044,94.7918052 30.6643078,94.7918052 C16.1070112,94.7918052 4.30533861,83.0604126 4.30533861,68.5876873 C4.30533861,54.114962 16.1070112,42.3835695 30.6643078,42.3835695 C45.2216044,42.3835695 57.0215493,54.114962 57.0215493,68.5876873" id="Fill-17" fill="#FFE7B3"></path>
                    <path d="M243.885124,223.054229 C242.359597,219.845702 232.066175,218.842608 227.508597,218.499082 C226.985115,218.457859 226.501369,217.166204 227.149243,216.072075 C228.759426,213.356507 228.768064,210.855642 227.866224,210.527575 C226.928102,210.18405 226.408075,211.060039 224.621671,213.081686 C222.501827,215.477776 219.846407,218.09544 218.645681,218.916465 C216.171666,220.604893 212.569487,224.143204 209.946893,225.323214 C204.921118,227.585329 196.548859,228.993783 188.962686,232.126735 C183.451438,234.402591 172.620713,241.302298 164.76848,245.78187 C163.450272,246.532473 161.307969,247.484038 158.801129,248.51805 L160.822496,262.168032 C165.977845,258.749954 173.712596,255.211642 177.860718,253.305076 C181.003338,251.862269 195.93381,242.56819 198.394004,240.860868 C200.854197,239.151829 212.445095,232.688399 212.445095,232.688399 C212.445095,232.688399 223.764749,227.607658 230.946648,228.557506 C238.978558,229.618999 246.991464,229.5898 243.885124,223.054229" id="Fill-19" fill="#ED8A40"></path>
                    <g id="编组" transform="translate(142.102646, 0.589146)">
                        <mask id="mask-4" fill="white">
                            <use xlink:href="#path-3"></use>
                        </mask>
                        <g id="Clip-22"></g>
                        <polygon id="Fill-21" fill="#F08336" mask="url(#mask-4)" points="0.300706187 0.231112953 5.22282083 113.520638 16.9484762 107.871363 14.1617542 0.231112953"></polygon>
                    </g>
                    <path d="M170.968893,99.6734729 C170.968893,99.6734729 189.102454,92.8630818 195.676216,90.6232962 C202.249977,88.3835105 204.350817,87.7308122 207.056338,87.2825116 C209.758405,86.8342109 209.366225,89.5222972 206.209783,92.6586842 C203.056796,95.7950711 204.013922,98.0331391 200.297717,100.217961 C196.498584,102.449158 191.303498,103.861048 190.703999,107.105645 C190.196066,109.857284 185.902821,115.564958 181.201847,114.725039 C177.036449,113.979588 170.549071,116.887531 170.549071,116.887531 L170.968893,99.6734729 Z" id="Fill-23" fill="#FFB680"></path>
                    <path d="M142.725561,137.390845 C151.970291,134.546454 150.895684,131.387738 168.053115,118.94353 L168.054843,103.709896 C158.062034,109.524064 141.82372,116.133493 130.612909,122.736051 C131.274604,127.12287 133.727887,134.616877 142.725561,137.390845" id="Fill-25" fill="#FFB680"></path>
                    <path d="M119.697355,143.056266 C123.56905,149.215676 134.73667,162.845047 146.838956,178.040893 C161.078363,195.924825 160.273271,204.885686 174.467758,213.594055 C179.279303,216.548373 183.684846,215.900828 183.684846,215.900828 L188.971497,185.488524 C188.971497,185.488524 187.217918,185.560664 183.750497,179.573016 C174.022021,162.772906 170.518319,161.173796 163.160198,153.284735 C153.842906,143.291581 149.333703,140.928126 142.725388,137.391532 C133.727714,134.615847 131.274432,127.123557 130.612736,122.736738 C126.4387,125.194662 122.943636,127.652587 120.754686,130.06757 C118.142458,132.951466 116.318045,137.680093 119.697355,143.056266" id="Fill-27" fill="#3A3A3A"></path>
                    <path d="M180.516655,284.832635 C178.552302,283.278183 172.799181,278.06175 167.225737,275.919869 C163.844698,274.619625 163.445608,271.634389 163.397233,268.887904 C163.379957,267.944926 162.766636,266.297722 163.067249,264.686588 L152.839479,271.249641 C152.138047,273.905092 142.293818,269.932221 142.293818,269.932221 C144.800658,271.734012 148.306088,278.020527 151.878898,281.859423 C154.656981,284.844659 158.374914,288.075515 157.203558,292.153162 C156.994511,292.879718 156.341454,293.590816 155.726405,294.837813 C154.936863,296.440359 155.152821,299.126727 156.737089,299.538958 C157.951636,299.855001 157.884257,300.095469 158.025926,300.574687 C158.224607,301.25315 158.41465,301.617287 159.193827,301.41976 C159.337223,302.168645 159.306125,302.9828 160.296076,302.628969 C161.161636,302.319796 161.730037,302.501865 162.085936,303.922342 C162.293256,304.746803 161.778412,306.569205 162.764908,306.79765 C163.988094,307.082776 167.355311,305.875284 168.500753,305.559241 C170.261242,305.07487 171.190725,304.635157 173.032415,305.765356 C175.95735,307.556841 180.489013,307.259691 182.216677,306.5297 C187.194077,304.425607 187.266639,302.883178 187.266639,302.883178 C188.387893,298.920612 182.481009,286.387088 180.516655,284.832635" id="Fill-29" fill="#FFB680"></path>
                    <path d="M200.374598,280.544408 C198.208107,277.210494 193.750734,276.24347 190.414615,278.383633 C187.078496,280.523796 186.130008,284.962144 188.294771,288.296058 C190.457807,291.63169 194.916907,292.598714 198.253027,290.456833 C201.589146,288.31667 202.537633,283.878322 200.374598,280.544408" id="Fill-31" fill="#6B2415"></path>
                    <path d="M184.285727,305.449141 C184.285727,305.449141 179.596847,301.500316 177.145292,297.712949 C176.208898,296.264989 175.376164,293.54255 175.813263,290.327152 C178.617262,289.885722 179.693596,288.171531 179.636583,287.104884 C179.577843,286.039955 178.748564,284.391033 176.666729,283.624972 C175.177483,283.077049 172.416676,283.411986 172.416676,283.411986 C172.416676,283.411986 168.785126,277.864051 166.905428,275.759958 C169.21877,275.899085 169.947844,275.431891 172.810583,274.226117 C175.673322,273.018625 179.546745,272.534254 183.881454,273.899768 C188.000205,275.196576 191.263762,277.620148 193.919181,282.747264 C196.261894,287.271494 197.901447,297.852076 184.285727,305.449141" id="Fill-33" fill="#7E3422"></path>
                    <path d="M154.544337,279.115342 C154.544337,279.115342 146.280921,276.650547 142.293472,273.251363 C138.309479,269.850462 132.013872,258.340643 135.619506,253.385289 C139.225141,248.428218 143.055372,260.113234 145.306518,264.687275 C147.559392,269.259598 154.544337,279.115342 154.544337,279.115342" id="Fill-35" fill="#FFB680"></path>
                    <path d="M378.221018,185.814873 C370.175287,184.35489 360.578113,185.409513 350.165483,186.24428 C349.799218,186.273479 349.438136,186.288938 349.073599,186.31642 C342.048917,186.840296 335.262653,186.998318 326.871389,187.522194 C324.701443,187.656169 320.278624,187.312644 314.440847,186.673686 C307.506004,185.916213 298.570526,184.743074 288.94571,183.451418 C282.069607,182.529052 272.683209,180.416371 269.334996,180.253196 C267.140863,180.146704 264.84307,180.115786 262.474443,180.12781 C263.853119,184.906248 264.805061,191.457278 263.379739,199.131635 C268.797693,199.473443 275.556314,201.800827 282.83669,203.685064 C288.385947,205.122718 294.237545,206.29414 300.042496,206.1344 C300.813034,206.113789 301.5853,206.079436 302.35411,206.009014 C305.989115,205.674076 334.33317,200.689523 341.293928,199.846168 C348.65896,198.95472 350.936021,203.928967 353.936973,202.357339 C358.72433,199.851321 361.960245,196.294115 366.077268,196.390302 C370.194291,196.488207 379.06239,197.051589 382.718127,194.444231 C389.029284,189.938895 386.266749,187.273138 378.221018,185.814873" id="Fill-37" fill="#FFB680"></path>
                    <path d="M262.47427,180.12781 C255.271639,180.162162 247.400402,180.591569 239.741667,180.47477 C232.708347,180.36656 213.190928,176.428041 188.461145,183.295114 C179.722621,185.722121 161.143323,187.894919 157.681084,203.554525 C154.217118,219.212413 170.118537,230.349506 194.335203,217.266341 C200.5427,213.910098 210.632257,210.821805 226.33845,206.586136 C236.785634,203.76751 254.062274,198.542489 263.379566,199.131635 C264.804889,191.457278 263.852946,184.906248 262.47427,180.12781" id="Fill-39" fill="#3A3A3A"></path>
                    <path d="M171.915308,253.38443 C169.814468,249.062881 166.056799,243.082104 164.515723,238.97354 C164.08899,237.834753 163.828113,236.840247 163.824657,236.065597 C163.802198,232.522133 163.301175,223.970068 172.865523,223.171371 C173.656793,217.896539 174.038607,211.362685 172.278117,206.69074 C170.61956,202.291897 166.269302,196.647775 163.161234,192.948006 C162.437343,193.289814 161.767009,193.609292 161.18997,193.887548 C156.825891,196.000229 146.924648,201.213227 144.198395,203.23831 C142.800714,204.275756 141.582711,205.433437 140.464913,206.69074 C136.363438,211.304286 133.956803,217.585648 132.223956,227.127066 C131.379128,231.773247 130.758897,238.619709 130.605134,245.186197 C130.485926,250.239455 130.591313,254.700133 131.194268,258.71938 C132.173853,265.258386 139.390306,275.617395 147.325466,276.319904 C142.716059,273.851674 138.405537,269.198622 141.251,269.820403 C143.949611,270.409549 149.509234,276.191082 153.178792,277.245705 C157.29927,278.430868 160.488538,276.922791 166.911993,274.944085 C167.200513,265.591606 175.33781,262.089364 172.882799,255.581275 C172.632288,254.921707 172.302304,254.179692 171.915308,253.38443" id="Fill-41" fill="#64A74A"></path>
                    <path d="M278.958085,238.046536 C277.854107,234.442955 267.204787,231.808115 262.474443,230.746622 C261.928501,230.62467 261.622704,229.193887 262.474443,228.142699 C264.585648,225.538776 264.981283,222.91596 264.086353,222.431589 C263.155142,221.928324 262.474443,222.766526 260.282037,224.614693 C257.685358,226.806385 254.490907,229.147511 253.100138,229.822538 C250.240854,231.215534 245.909601,234.377685 242.974299,235.214169 C237.343843,236.816715 228.332347,237.00909 219.882343,239.132077 C213.740497,240.674506 201.296134,246.255076 192.355473,249.752165 C188.74811,251.164054 180.092514,253.029397 172.687746,254.760765 C170.30357,249.66113 169.393091,246.598601 165.780546,241.837339 C162.430605,243.020784 153.106403,246.883727 149.023933,253.384946 C145.591065,258.852153 148.239573,264.444746 149.362555,267.752896 C150.672124,271.614121 154.431521,277.34756 159.916854,277.330423 C172.898521,277.289161 175.550485,273.326595 181.248321,268.900271 C186.065048,265.159279 198.894681,261.433746 204.932867,259.66459 C208.455573,258.630579 225.578451,251.169207 228.427369,249.752165 C231.274559,248.33684 244.447997,243.331675 244.447997,243.331675 C244.447997,243.331675 257.125595,239.736681 264.518269,241.837339 C272.786869,244.187053 281.205775,245.385957 278.958085,238.046536" id="Fill-43" fill="#FFB680"></path>
                    <g id="编组" transform="translate(165.387502, 0.589146)">
                        <mask id="mask-6" fill="white">
                            <use xlink:href="#path-5"></use>
                        </mask>
                        <g id="Clip-46"></g>
                        <path d="M0.0677244276,0.231112953 L0.297503735,226.257088 C0.297503735,226.257088 5.07103928,222.634613 7.47767519,222.581366 L9.88603876,222.52812 L15.2297034,0.231112953 L0.0677244276,0.231112953 Z" id="Fill-45" fill="#F08336" mask="url(#mask-6)"></path>
                    </g>
                    <path d="M155.613934,196.716995 C155.613934,196.716995 144.406578,149.662603 149.333876,134.288123 C156.306728,128.609648 159.126275,125.96622 159.126275,125.96622 C159.126275,125.96622 161.190834,148.431064 160.791743,166.071094 C160.662168,171.849191 161.190834,193.888063 161.190834,193.888063 L155.613934,196.716995 Z" id="Fill-47" fill="#F08336"></path>
                    <path d="M158.561502,251.079719 C158.077756,252.496761 158.319629,258.638995 161.189279,259.81557 C164.062384,260.992144 169.13135,258.807322 169.13135,258.807322 C169.13135,258.807322 160.736631,253.35901 158.561502,251.079719" id="Fill-49" fill="#ED8A40"></path>
                    <path d="M26.240797,223.873537 C26.1578691,223.873537 26.0732136,223.861514 25.988558,223.837467 C24.4129285,223.359967 22.775103,223.092017 21.1165456,223.040488 C20.6397104,223.025029 20.2648073,222.628257 20.2803563,222.15591 C20.2959052,221.681845 20.7019063,221.257591 21.1701032,221.324579 C22.980695,221.379543 24.7705549,221.673257 26.4930359,222.19198 C26.9491392,222.331108 27.2065611,222.810326 27.068348,223.265497 C26.9543222,223.634787 26.6122447,223.873537 26.240797,223.873537 M11.1738395,225.374743 C10.868043,225.374743 10.5708848,225.211569 10.415395,224.923007 C10.1873434,224.507341 10.3445608,223.985183 10.7626555,223.760174 C12.3572893,222.903078 14.0521277,222.262403 15.8074342,221.853608 C16.2929078,221.748832 16.7369175,222.032241 16.847488,222.494283 C16.9546031,222.954607 16.6660832,223.416648 16.2013416,223.524859 C14.5963418,223.899301 13.0431719,224.48673 11.5867512,225.269968 C11.453721,225.340391 11.3137803,225.374743 11.1738395,225.374743 M34.9223084,229.280627 C34.6925291,229.280627 34.4610221,229.187875 34.2899834,229.005807 C33.1635465,227.800032 31.8833475,226.747127 30.4839397,225.872855 C30.0796663,225.622081 29.9570022,225.091335 30.2109688,224.68941 C30.4649354,224.287485 31.0022389,224.165534 31.4013292,224.418025 C32.9303118,225.371308 34.327992,226.522118 35.5563611,227.83782 C35.8811619,228.184781 35.8604299,228.729269 35.5097141,229.050465 C35.3455861,229.205051 35.1330834,229.280627 34.9223084,229.280627 M3.73970143,232.382661 C3.58421167,232.382661 3.42872191,232.341438 3.28878113,232.255557 C2.88105243,232.008219 2.7532053,231.47919 3.00198891,231.07383 C3.94529344,229.545141 5.08727932,228.14184 6.39857627,226.908584 C6.74410907,226.580517 7.28832322,226.594258 7.6200347,226.939501 C7.94656319,227.284744 7.93101422,227.827514 7.58548142,228.153864 C6.38648263,229.28578 5.33951826,230.568847 4.47568628,231.972148 C4.31328586,232.236663 4.02994897,232.382661 3.73970143,232.382661 M39.6958439,238.289581 C39.3002089,238.289581 38.9425825,238.018196 38.8527439,237.617988 C38.4951175,236.01716 37.9215331,234.467861 37.1475396,233.009595 C36.9263986,232.590494 37.0870714,232.071771 37.5086214,231.850197 C37.926716,231.632058 38.4519259,231.79008 38.6765222,232.210899 C39.5213499,233.801421 40.1467642,235.495001 40.538944,237.243546 C40.6426038,237.707305 40.3489009,238.165912 39.8824317,238.268969 C39.8202358,238.28271 39.7563122,238.289581 39.6958439,238.289581 M0.864868583,242.155959 L0.845864279,242.155959 C0.369029024,242.145653 -0.00932938543,241.754034 0.00103659838,241.279969 C0.0390452057,239.481614 0.313743777,237.698717 0.818221656,235.979372 C0.949524117,235.525919 1.43327003,235.259687 1.88764565,235.395379 C2.34720427,235.529354 2.60980919,236.005137 2.47677907,236.462026 C2.01549279,238.035372 1.76152618,239.668835 1.72870057,241.314322 C1.71833458,241.783234 1.33306552,242.155959 0.864868583,242.155959 M39.4971626,247.664389 C39.422873,247.664389 39.3468558,247.655801 39.2725663,247.635189 C38.81128,247.51152 38.5383091,247.039173 38.6627009,246.582284 C39.0894339,245.003785 39.3071196,243.366886 39.3071196,241.714529 C39.3071196,241.238746 39.6941163,240.855715 40.1709515,240.855715 C40.6495145,240.855715 41.0347835,241.238746 41.0347835,241.714529 C41.0347835,243.518037 40.7980936,245.306087 40.3298966,247.028867 C40.2279644,247.411898 39.8789763,247.664389 39.4971626,247.664389 M3.31642375,252.04262 C3.01581022,252.04262 2.72037969,251.882881 2.5614346,251.60119 C1.68550897,250.032997 1.022086,248.353157 0.588442348,246.608048 C0.474416526,246.147724 0.757753417,245.682247 1.22076736,245.568884 C1.68723663,245.452085 2.15025058,245.737211 2.26600406,246.197535 C2.66336677,247.794929 3.27150449,249.332205 4.07314057,250.766423 C4.30464754,251.180371 4.15434078,251.704248 3.73797376,251.93441 C3.60321597,252.008268 3.45981986,252.04262 3.31642375,252.04262 M34.3400856,256.46551 C34.1189447,256.46551 33.896076,256.379628 33.7267649,256.209583 C33.3915981,255.872928 33.3950535,255.328441 33.7336756,254.995221 C34.9102148,253.83754 35.9260812,252.532144 36.7605429,251.113384 C37.0006882,250.702871 37.5293533,250.567179 37.9405374,250.804211 C38.353449,251.042961 38.4933898,251.570273 38.2515169,251.979068 C37.3444933,253.528368 36.2318777,254.953998 34.9482234,256.216454 C34.7789123,256.381346 34.559499,256.46551 34.3400856,256.46551 M10.4430376,259.359711 C10.2927309,259.359711 10.1406964,259.320206 10.0007557,259.23776 C8.45276873,258.317112 7.03090129,257.197219 5.77316192,255.905563 C5.4431781,255.565473 5.45181642,255.022703 5.79389389,254.691201 C6.13597135,254.363134 6.68364083,254.371722 7.01535231,254.711813 C8.16597652,255.89354 9.46863515,256.920681 10.8870473,257.762318 C11.2965036,258.006221 11.4312614,258.533533 11.1842055,258.942328 C11.0235327,259.210278 10.7367405,259.359711 10.4430376,259.359711 M25.4339779,261.498157 C25.0504365,261.498157 24.697993,261.240513 24.5977885,260.854047 C24.4785797,260.393723 24.7567336,259.926528 25.2180199,259.808012 C26.8178367,259.397499 28.3571853,258.775718 29.7963294,257.963281 C30.2092411,257.727966 30.7379063,257.870529 30.9728686,258.286194 C31.2095585,258.696707 31.0644348,259.222301 30.6497954,259.455898 C29.0793489,260.343912 27.3966042,261.022374 25.6499359,261.470675 C25.577374,261.489569 25.5048121,261.498157 25.4339779,261.498157 M20.3045436,262.114785 L20.2976329,262.114785 C18.4818581,262.094174 16.6850875,261.839965 14.9556959,261.357312 C14.4961373,261.230207 14.230077,260.754424 14.3579242,260.299253 C14.487499,259.840647 14.9608789,259.574415 15.4238928,259.703237 C17.006433,260.146385 18.6511691,260.378264 20.3131819,260.397158 C20.7917448,260.402311 21.1735585,260.790495 21.1684277,261.26456 C21.1649202,261.73519 20.7779235,262.114785 20.3045436,262.114785" id="Fill-51" fill="#FF6A00"></path>
                    <path d="M82.3008803,77.4114809 C81.9449815,77.4114809 81.61327,77.1916246 81.4871505,76.8395111 C81.3282054,76.392928 81.5614401,75.9034043 82.0123604,75.743665 C83.7227477,75.1390603 85.5177906,74.8058407 87.3473867,74.7543119 C87.8207666,74.7629 88.2233123,75.1132959 88.2371337,75.587361 C88.2492273,76.061426 87.8743242,76.4564802 87.397489,76.4719389 C85.7475699,76.5165972 84.1322041,76.8171819 82.5894001,77.3616697 C82.4943786,77.3960222 82.3976294,77.4114809 82.3008803,77.4114809 L82.3008803,77.4114809 Z M97.1639734,79.3025882 C96.99639,79.3025882 96.8270789,79.2544947 96.6767721,79.1531547 C95.3153729,78.2342242 93.8261266,77.5368676 92.2522247,77.0834141 C91.7943938,76.9511568 91.5300612,76.4753741 91.6630913,76.0184853 C91.7943938,75.5633142 92.2695014,75.3005173 92.734243,75.4344922 C94.4826389,75.9377569 96.1360133,76.7124067 97.649447,77.7326771 C98.0433543,77.9989093 98.1452865,78.5330913 97.8792263,78.9247103 C97.7116429,79.1703309 97.438672,79.3025882 97.1639734,79.3025882 L97.1639734,79.3025882 Z M74.2067746,83.5760442 C74.0374635,83.5760442 73.8646971,83.5262331 73.716118,83.4231754 C73.3239383,83.153508 73.2254614,82.6176084 73.4967047,82.227707 C74.5350307,80.7385244 75.7927701,79.4245397 77.2422802,78.3218232 C77.6154556,78.0349795 78.1613974,78.1019669 78.4516449,78.4815625 C78.7418925,78.8577228 78.6710583,79.3970577 78.2926999,79.685619 C76.9883136,80.6784075 75.8532383,81.8635701 74.9185721,83.2067544 C74.7509887,83.4472222 74.4814731,83.5760442 74.2067746,83.5760442 L74.2067746,83.5760442 Z M103.440577,87.2895539 C103.088133,87.2895539 102.758149,87.0731329 102.630302,86.7261722 C102.065356,85.1957665 101.267175,83.7649832 100.253037,82.476763 C99.957606,82.1023203 100.024985,81.5629854 100.401616,81.2709888 C100.771336,80.9807098 101.317278,81.0425444 101.612708,81.4187047 C102.737417,82.849488 103.627164,84.4348578 104.252579,86.1353085 C104.416707,86.5801739 104.186927,87.0731329 103.737735,87.2380251 C103.640986,87.2723776 103.540781,87.2895539 103.440577,87.2895539 L103.440577,87.2895539 Z M71.2645628,93.2806369 C70.7946382,93.2806369 70.4076415,92.9061942 70.4007308,92.4355644 L70.3972755,92.1023448 C70.3972755,90.3967412 70.6477868,88.711749 71.1384434,87.0920268 C71.2766565,86.6368556 71.7604024,86.3792115 72.214778,86.5183393 C72.672609,86.6540319 72.9300309,87.1332498 72.7918178,87.588421 C72.3495358,89.0466863 72.1249395,90.5650686 72.1249395,92.1023448 L72.1283948,92.4080824 C72.1353055,92.8821475 71.7552194,93.2737664 71.2783841,93.2806369 L71.2645628,93.2806369 Z M103.649624,98.0315933 C103.563241,98.0315933 103.473402,98.0178522 103.385291,97.9903702 C102.930916,97.8443719 102.682132,97.3600011 102.828984,96.9099828 C103.330006,95.3606832 103.583973,93.7443962 103.583973,92.1023448 C103.583973,91.9013824 103.580517,91.6987024 103.573607,91.4994577 C103.554602,91.0253926 103.92605,90.6251855 104.402885,90.6080093 C104.966104,90.5805272 105.282266,90.9584052 105.301271,91.4307526 C105.308181,91.6540441 105.311637,91.8773356 105.311637,92.1023448 C105.311637,93.9230294 105.030027,95.7179497 104.471992,97.4355767 C104.354511,97.7997136 104.014161,98.0315933 103.649624,98.0315933 L103.649624,98.0315933 Z M74.5816777,102.863278 C74.3208004,102.863278 74.0599231,102.744762 73.8923397,102.52147 C72.7918178,101.06664 71.9348965,99.4623766 71.3440354,97.7533377 C71.1885456,97.305037 71.4286909,96.8155133 71.8813389,96.6626445 C72.3305315,96.5063405 72.8229157,96.7450906 72.9784055,97.1951089 C73.510526,98.7341027 74.2810641,100.178627 75.2727432,101.489176 C75.5595355,101.868772 75.4835182,102.406389 75.1017045,102.691515 C74.9444871,102.808314 74.7630824,102.863278 74.5816777,102.863278 L74.5816777,102.863278 Z M97.6840002,106.253874 C97.4196677,106.253874 97.1587904,106.13364 96.9894793,105.903478 C96.7061424,105.522165 96.7890703,104.984547 97.170884,104.702857 C98.4960023,103.734115 99.6552648,102.571281 100.617574,101.246991 C100.897455,100.860525 101.436486,100.776361 101.823483,101.052899 C102.208752,101.331155 102.296863,101.867054 102.016981,102.251803 C100.951013,103.722092 99.6656308,105.012029 98.1971164,106.087264 C98.0416267,106.19891 97.8636773,106.253874 97.6840002,106.253874 L97.6840002,106.253874 Z M82.9107456,108.715233 C82.8260901,108.715233 82.7379792,108.701492 82.651596,108.675728 C80.9152938,108.136393 79.2774683,107.330826 77.7847666,106.283073 C77.3960423,106.008253 77.3027484,105.472354 77.5791746,105.085887 C77.8573285,104.697704 78.3963597,104.610105 78.7833564,104.879772 C80.127479,105.824467 81.602904,106.549306 83.1681676,107.037112 C83.6225432,107.177957 83.8765098,107.658893 83.7348414,108.112346 C83.6190879,108.478201 83.2770104,108.715233 82.9107456,108.715233 L82.9107456,108.715233 Z M88.0177203,109.458966 C87.5426127,109.458966 87.1590713,109.07937 87.1538362,108.60874 C87.1487054,108.134675 87.5305191,107.746492 88.009082,107.741339 C89.6607288,107.72588 91.2812776,107.45793 92.8327198,106.94436 C93.2836401,106.796644 93.7742967,107.037112 93.9263311,107.48713 C94.0749102,107.937148 93.8313096,108.423237 93.3786616,108.57267 C91.6579083,109.14464 89.8559548,109.44179 88.024631,109.458966 L88.0177203,109.458966 Z" id="Fill-53" fill="#FF6A00"></path>
                    <path d="M300.977259,272.378981 C300.631727,272.378981 300.305198,272.171148 300.172168,271.832775 C299.999402,271.391345 300.218815,270.893233 300.662825,270.719753 C302.373212,270.056749 304.178621,269.709788 306.027221,269.690894 C306.548976,269.644518 306.896236,270.063619 306.901471,270.539402 C306.906602,271.013467 306.523061,271.403368 306.047953,271.408521 C304.404945,271.425698 302.806856,271.733153 301.291694,272.320581 C301.188034,272.360087 301.082647,272.378981 300.977259,272.378981 M315.557016,274.87641 C315.356607,274.87641 315.156198,274.807705 314.99207,274.66686 C313.755062,273.601931 312.350471,272.779188 310.819761,272.220959 C310.370568,272.057784 310.142517,271.564825 310.304917,271.11996 C310.470773,270.673377 310.971795,270.44665 311.414077,270.609825 C313.141741,271.238476 314.726009,272.165995 316.123689,273.368334 C316.484771,273.679224 316.52278,274.220277 316.210073,274.579261 C316.040762,274.776788 315.798889,274.87641 315.557016,274.87641 M293.4481,279.130972 C293.313342,279.130972 293.176857,279.100055 293.050737,279.034785 C292.627459,278.818364 292.459876,278.299641 292.679289,277.878822 C293.522389,276.25223 294.645371,274.80427 296.015409,273.576167 C296.36958,273.256688 296.915521,273.285888 297.235139,273.638001 C297.556485,273.990115 297.527114,274.532885 297.172943,274.850646 C295.958396,275.941339 294.963261,277.224406 294.215183,278.665496 C294.061421,278.960927 293.759079,279.130972 293.4481,279.130972 M320.384109,283.737648 C319.959103,283.737648 319.587656,283.42504 319.530643,282.993916 C319.311229,281.382781 318.806752,279.843788 318.029303,278.418157 C317.801251,278.000774 317.956741,277.480333 318.376563,277.253606 C318.791203,277.030315 319.31814,277.179748 319.547919,277.600567 C320.425573,279.209983 320.995702,280.946504 321.24103,282.763754 C321.306681,283.234383 320.97497,283.667225 320.50159,283.730778 C320.461854,283.735931 320.423845,283.737648 320.384109,283.737648 M292.299203,289.146456 C291.912207,289.146456 291.559763,288.887094 291.461286,288.497193 C291.153762,287.289701 291,286.042704 291,284.790554 C291,284.211713 291.031098,283.639743 291.095022,283.078079 C291.150307,282.605732 291.58395,282.269077 292.052147,282.324041 C292.525527,282.377288 292.867605,282.801541 292.81232,283.273889 C292.755307,283.770283 292.727664,284.276983 292.727664,284.790554 C292.727664,285.900141 292.865877,287.006292 293.135393,288.078092 C293.252874,288.538416 292.971265,289.00561 292.509978,289.120691 C292.439144,289.137867 292.36831,289.146456 292.299203,289.146456 M319.589383,290.690602 C319.489179,290.690602 319.385519,290.673426 319.285314,290.635638 C318.839577,290.467311 318.613253,289.972634 318.782564,289.527769 C319.357876,288.014539 319.649852,286.418864 319.649852,284.790554 C319.649852,284.314771 320.035121,283.93174 320.513684,283.93174 C320.990519,283.93174 321.377516,284.314771 321.377516,284.790554 C321.377516,286.628414 321.047532,288.42677 320.39793,290.135809 C320.268355,290.479334 319.940099,290.690602 319.589383,290.690602 M298.10761,297.409959 C297.938298,297.409959 297.768987,297.360148 297.620408,297.258808 C296.100064,296.226514 294.79395,294.940012 293.738347,293.438806 C293.461921,293.050622 293.55867,292.514722 293.949122,292.243337 C294.339574,291.97367 294.878606,292.064704 295.151577,292.454605 C296.089698,293.785766 297.248961,294.924553 298.594811,295.841766 C298.988718,296.109716 299.088923,296.643898 298.821135,297.035517 C298.651824,297.27942 298.382308,297.409959 298.10761,297.409959 M312.875681,298.246444 C312.566429,298.246444 312.265816,298.079834 312.110326,297.787837 C311.887457,297.368736 312.049858,296.850013 312.471408,296.628439 C313.91228,295.869248 315.194206,294.867871 316.275724,293.648356 C316.595342,293.29109 317.139556,293.260172 317.497182,293.574498 C317.854809,293.888824 317.887634,294.431594 317.571472,294.785425 C316.348286,296.159527 314.905686,297.289725 313.278227,298.145104 C313.15038,298.213809 313.012167,298.246444 312.875681,298.246444 M306.187894,299.890213 C304.980257,299.890213 303.777803,299.749367 302.61163,299.467676 C302.148616,299.357748 301.863551,298.893989 301.974122,298.431947 C302.088147,297.973341 302.552889,297.68478 303.017631,297.799861 C304.59326,298.176021 306.270822,298.265337 307.851634,298.071246 C308.338836,297.999105 308.75693,298.347784 308.815671,298.818413 C308.874411,299.289043 308.537517,299.71845 308.065865,299.775132 C307.445633,299.852425 306.813308,299.890213 306.187894,299.890213" id="Fill-55" fill="#FF6A00"></path>
                    <path d="M20.5144547,10.704172 C20.0376195,10.704172 19.6506227,10.3194235 19.6506227,9.84535845 L19.6506227,4.69247738 C19.6506227,4.21841232 20.0376195,3.83366387 20.5144547,3.83366387 C20.99129,3.83366387 21.3782867,4.21841232 21.3782867,4.69247738 L21.3782867,9.84535845 C21.3782867,10.3194235 20.99129,10.704172 20.5144547,10.704172 M20.5144547,21.0099341 C20.0376195,21.0099341 19.6506227,20.6251856 19.6506227,20.1511206 L19.6506227,14.9982395 C19.6506227,14.5241745 20.0376195,14.139426 20.5144547,14.139426 C20.99129,14.139426 21.3782867,14.5241745 21.3782867,14.9982395 L21.3782867,20.1511206 C21.3782867,20.6251856 20.99129,21.0099341 20.5144547,21.0099341 M20.5144547,31.3156962 C20.0376195,31.3156962 19.6506227,30.9309478 19.6506227,30.4568827 L19.6506227,25.3040016 C19.6506227,24.8299366 20.0376195,24.4451881 20.5144547,24.4451881 C20.99129,24.4451881 21.3782867,24.8299366 21.3782867,25.3040016 L21.3782867,30.4568827 C21.3782867,30.9309478 20.99129,31.3156962 20.5144547,31.3156962 M20.5144547,41.6214584 C20.0376195,41.6214584 19.6506227,41.2367099 19.6506227,40.7626448 L19.6506227,35.6097638 C19.6506227,35.1356987 20.0376195,34.7509503 20.5144547,34.7509503 C20.99129,34.7509503 21.3782867,35.1356987 21.3782867,35.6097638 L21.3782867,40.7626448 C21.3782867,41.2367099 20.99129,41.6214584 20.5144547,41.6214584 M20.5144547,51.9272205 C20.0376195,51.9272205 19.6506227,51.542472 19.6506227,51.068407 L19.6506227,45.9155259 C19.6506227,45.4414609 20.0376195,45.0567124 20.5144547,45.0567124 C20.99129,45.0567124 21.3782867,45.4414609 21.3782867,45.9155259 L21.3782867,51.068407 C21.3782867,51.542472 20.99129,51.9272205 20.5144547,51.9272205 M20.5144547,62.2329826 C20.0376195,62.2329826 19.6506227,61.8482342 19.6506227,61.3741691 L19.6506227,56.2212881 C19.6506227,55.747223 20.0376195,55.3624745 20.5144547,55.3624745 C20.99129,55.3624745 21.3782867,55.747223 21.3782867,56.2212881 L21.3782867,61.3741691 C21.3782867,61.8482342 20.99129,62.2329826 20.5144547,62.2329826 M20.5144547,72.5387448 C20.0376195,72.5387448 19.6506227,72.1539963 19.6506227,71.6799313 L19.6506227,66.5270502 C19.6506227,66.0529851 20.0376195,65.6682367 20.5144547,65.6682367 C20.99129,65.6682367 21.3782867,66.0529851 21.3782867,66.5270502 L21.3782867,71.6799313 C21.3782867,72.1539963 20.99129,72.5387448 20.5144547,72.5387448 M20.5144547,82.8445069 C20.0376195,82.8445069 19.6506227,82.4597584 19.6506227,81.9856934 L19.6506227,76.8328123 C19.6506227,76.3587473 20.0376195,75.9739988 20.5144547,75.9739988 C20.99129,75.9739988 21.3782867,76.3587473 21.3782867,76.8328123 L21.3782867,81.9856934 C21.3782867,82.4597584 20.99129,82.8445069 20.5144547,82.8445069 M20.5144547,93.150269 C20.0376195,93.150269 19.6506227,92.7655206 19.6506227,92.2914555 L19.6506227,87.1385745 C19.6506227,86.6645094 20.0376195,86.2797609 20.5144547,86.2797609 C20.99129,86.2797609 21.3782867,86.6645094 21.3782867,87.1385745 L21.3782867,92.2914555 C21.3782867,92.7655206 20.99129,93.150269 20.5144547,93.150269 M20.5144547,103.456031 C20.0376195,103.456031 19.6506227,103.071283 19.6506227,102.597218 L19.6506227,97.4443366 C19.6506227,96.9702715 20.0376195,96.5855231 20.5144547,96.5855231 C20.99129,96.5855231 21.3782867,96.9702715 21.3782867,97.4443366 L21.3782867,102.597218 C21.3782867,103.071283 20.99129,103.456031 20.5144547,103.456031 M20.5144547,113.761793 C20.0376195,113.761793 19.6506227,113.377045 19.6506227,112.90298 L19.6506227,107.750099 C19.6506227,107.276034 20.0376195,106.891285 20.5144547,106.891285 C20.99129,106.891285 21.3782867,107.276034 21.3782867,107.750099 L21.3782867,112.90298 C21.3782867,113.377045 20.99129,113.761793 20.5144547,113.761793 M20.5144547,124.067555 C20.0376195,124.067555 19.6506227,123.682807 19.6506227,123.208742 L19.6506227,118.055861 C19.6506227,117.581796 20.0376195,117.197047 20.5144547,117.197047 C20.99129,117.197047 21.3782867,117.581796 21.3782867,118.055861 L21.3782867,123.208742 C21.3782867,123.682807 20.99129,124.067555 20.5144547,124.067555 M20.5144547,134.373318 C20.0376195,134.373318 19.6506227,133.988569 19.6506227,133.514504 L19.6506227,128.361623 C19.6506227,127.887558 20.0376195,127.502809 20.5144547,127.502809 C20.99129,127.502809 21.3782867,127.887558 21.3782867,128.361623 L21.3782867,133.514504 C21.3782867,133.988569 20.99129,134.373318 20.5144547,134.373318 M20.5144547,144.67908 C20.0376195,144.67908 19.6506227,144.294331 19.6506227,143.820266 L19.6506227,138.667385 C19.6506227,138.19332 20.0376195,137.808572 20.5144547,137.808572 C20.99129,137.808572 21.3782867,138.19332 21.3782867,138.667385 L21.3782867,143.820266 C21.3782867,144.294331 20.99129,144.67908 20.5144547,144.67908 M20.5144547,154.984842 C20.0376195,154.984842 19.6506227,154.600093 19.6506227,154.126028 L19.6506227,148.973147 C19.6506227,148.499082 20.0376195,148.114334 20.5144547,148.114334 C20.99129,148.114334 21.3782867,148.499082 21.3782867,148.973147 L21.3782867,154.126028 C21.3782867,154.600093 20.99129,154.984842 20.5144547,154.984842 M20.5144547,165.290604 C20.0376195,165.290604 19.6506227,164.905856 19.6506227,164.43179 L19.6506227,159.278909 C19.6506227,158.804844 20.0376195,158.420096 20.5144547,158.420096 C20.99129,158.420096 21.3782867,158.804844 21.3782867,159.278909 L21.3782867,164.43179 C21.3782867,164.905856 20.99129,165.290604 20.5144547,165.290604 M20.5144547,175.596366 C20.0376195,175.596366 19.6506227,175.211618 19.6506227,174.737553 L19.6506227,169.584672 C19.6506227,169.110606 20.0376195,168.725858 20.5144547,168.725858 C20.99129,168.725858 21.3782867,169.110606 21.3782867,169.584672 L21.3782867,174.737553 C21.3782867,175.211618 20.99129,175.596366 20.5144547,175.596366 M20.5144547,185.902128 C20.0376195,185.902128 19.6506227,185.51738 19.6506227,185.043315 L19.6506227,179.890434 C19.6506227,179.416369 20.0376195,179.03162 20.5144547,179.03162 C20.99129,179.03162 21.3782867,179.416369 21.3782867,179.890434 L21.3782867,185.043315 C21.3782867,185.51738 20.99129,185.902128 20.5144547,185.902128 M20.5144547,196.20789 C20.0376195,196.20789 19.6506227,195.823142 19.6506227,195.349077 L19.6506227,190.196196 C19.6506227,189.722131 20.0376195,189.337382 20.5144547,189.337382 C20.99129,189.337382 21.3782867,189.722131 21.3782867,190.196196 L21.3782867,195.349077 C21.3782867,195.823142 20.99129,196.20789 20.5144547,196.20789 M20.5144547,206.513653 C20.0376195,206.513653 19.6506227,206.128904 19.6506227,205.654839 L19.6506227,200.501958 C19.6506227,200.027893 20.0376195,199.643144 20.5144547,199.643144 C20.99129,199.643144 21.3782867,200.027893 21.3782867,200.501958 L21.3782867,205.654839 C21.3782867,206.128904 20.99129,206.513653 20.5144547,206.513653 M20.5144547,216.819415 C20.0376195,216.819415 19.6506227,216.434666 19.6506227,215.960601 L19.6506227,210.80772 C19.6506227,210.333655 20.0376195,209.948907 20.5144547,209.948907 C20.99129,209.948907 21.3782867,210.333655 21.3782867,210.80772 L21.3782867,215.960601 C21.3782867,216.434666 20.99129,216.819415 20.5144547,216.819415" id="Fill-57" fill="#FF6A00"></path>
                    <path d="M379.241696,223.872678 C379.158768,223.872678 379.074113,223.860655 378.989457,223.836608 C377.413828,223.359108 375.774274,223.091158 374.117445,223.039629 C373.640609,223.025888 373.265706,222.629116 373.281255,222.155051 C373.296804,221.682704 373.726993,221.256732 374.171002,221.32372 C375.979866,221.380401 377.769726,221.672398 379.493935,222.191121 C379.948311,222.330249 380.20746,222.809467 380.069247,223.264638 C379.955221,223.633928 379.613144,223.872678 379.241696,223.872678 M364.173011,225.373884 C363.867214,225.373884 363.570056,225.21071 363.414566,224.923866 C363.186515,224.506483 363.343732,223.984324 363.761827,223.759315 C365.356461,222.903937 367.051299,222.261544 368.806606,221.852749 C369.286896,221.747974 369.736089,222.0331 369.846659,222.493424 C369.953775,222.955465 369.665255,223.417507 369.200513,223.525718 C367.595513,223.90016 366.042343,224.485871 364.585923,225.270827 C364.452892,225.339532 364.312952,225.373884 364.173011,225.373884 M387.92148,229.279768 C387.691701,229.279768 387.460194,229.188734 387.289155,229.006665 C386.162718,227.800891 384.882519,226.746268 383.483111,225.873714 C383.078838,225.621223 382.956174,225.090476 383.21014,224.690269 C383.464107,224.288344 384.00141,224.164675 384.400501,224.418884 C385.929483,225.372167 387.327163,226.521259 388.555532,227.836961 C388.880333,228.18564 388.859601,228.72841 388.508886,229.051324 C388.344757,229.204193 388.132255,229.279768 387.92148,229.279768 M356.738873,232.381803 C356.583383,232.381803 356.427893,232.340579 356.287953,232.254698 C355.880224,232.00736 355.752377,231.478331 356.00116,231.074688 C356.944465,229.544283 358.086451,228.142699 359.397748,226.907725 C359.74328,226.581376 360.287495,226.595117 360.619206,226.94036 C360.945735,227.283886 360.930186,227.828373 360.584653,228.154722 C359.385654,229.284921 358.33869,230.569706 357.474858,231.97129 C357.312457,232.235804 357.02912,232.381803 356.738873,232.381803 M392.695015,238.290439 C392.29938,238.290439 391.941754,238.017337 391.851915,237.61713 C391.494289,236.018019 390.920704,234.467002 390.146711,233.010454 C389.92557,232.591353 390.086243,232.070912 390.507793,231.851056 C390.925887,231.6312 391.451097,231.789221 391.675694,232.21004 C392.520521,233.800562 393.145936,235.49586 393.538115,237.244405 C393.641775,237.706446 393.348072,238.16677 392.883331,238.26811 C392.819407,238.283569 392.755484,238.290439 392.695015,238.290439 M353.86404,242.156818 L353.845036,242.156818 C353.3682,242.146512 352.989842,241.753176 353.000208,241.27911 C353.038217,239.480755 353.312915,237.697858 353.817393,235.980231 C353.948696,235.52506 354.432441,235.258828 354.886817,235.396238 C355.346376,235.528495 355.608981,236.005996 355.47595,236.461167 C355.014664,238.034513 354.760698,239.667976 354.727872,241.315181 C354.717506,241.784093 354.332237,242.156818 353.86404,242.156818 M392.496334,247.665248 C392.422044,247.665248 392.346027,247.654942 392.271738,247.63433 C391.810451,247.510661 391.537481,247.040032 391.661872,246.581425 C392.090333,245.004643 392.306291,243.366027 392.306291,241.71367 C392.306291,241.239605 392.693288,240.854857 393.171851,240.854857 C393.648686,240.854857 394.035683,241.239605 394.035683,241.71367 C394.035683,243.517178 393.797265,245.305228 393.329068,247.029726 C393.227136,247.412757 392.878148,247.665248 392.496334,247.665248 M356.313868,252.041761 C356.013254,252.041761 355.717823,251.88374 355.558878,251.600331 C354.682953,250.033855 354.01953,248.354016 353.585886,246.60719 C353.47186,246.146865 353.755197,245.681389 354.218211,245.568025 C354.681225,245.451227 355.149422,245.736353 355.263448,246.196677 C355.660811,247.79407 356.268948,249.333064 357.070584,250.767282 C357.302091,251.18123 357.151785,251.703389 356.735418,251.933551 C356.602387,252.007409 356.457264,252.041761 356.313868,252.041761 M387.340985,256.464651 C387.119844,256.464651 386.896975,256.380487 386.727664,256.210442 C386.392497,255.87207 386.395953,255.3293 386.734575,254.99608 C387.911114,253.838399 388.92698,252.533003 389.761442,251.114243 C390.001587,250.70373 390.530252,250.568037 390.941436,250.80507 C391.354348,251.04382 391.494289,251.569414 391.252416,251.979927 C390.345392,253.527509 389.232777,254.953139 387.949122,256.217313 C387.779811,256.382205 387.560398,256.464651 387.340985,256.464651 M363.442209,259.358853 C363.291902,259.358853 363.139868,259.319347 362.999927,259.236901 C361.45194,258.317971 360.030073,257.19636 358.772333,255.906422 C358.44235,255.566332 358.450988,255.021844 358.793065,254.69206 C359.135143,254.363993 359.682812,254.370864 360.014524,254.712671 C361.165148,255.894399 362.467807,256.919822 363.886219,257.763177 C364.295675,258.00708 364.430433,258.534392 364.183377,258.941469 C364.022704,259.209419 363.735912,259.358853 363.442209,259.358853 M378.433149,261.499016 C378.049608,261.499016 377.697164,261.241372 377.59696,260.854906 C377.477751,260.394582 377.755905,259.927387 378.217191,259.808871 C379.817008,259.398358 381.356357,258.776577 382.795501,257.964139 C383.206685,257.727107 383.737078,257.873105 383.97204,258.287053 C384.20873,258.697566 384.063606,259.22316 383.648967,259.456757 C382.07852,260.34477 380.395776,261.023233 378.649107,261.471534 C378.576545,261.490428 378.503984,261.499016 378.433149,261.499016 M373.303715,262.113926 L373.296804,262.113926 C371.484485,262.095032 369.687714,261.840824 367.956595,261.35817 C367.495309,261.229348 367.229248,260.755283 367.357096,260.298395 C367.484943,259.841506 367.966961,259.575274 368.421337,259.704096 C370.007332,260.147243 371.653796,260.379123 373.312353,260.396299 C373.790916,260.401452 374.17273,260.789636 374.167599,261.265419 C374.164092,261.736048 373.777095,262.113926 373.303715,262.113926" id="Fill-59" fill="#FF6A00"></path>
                    <path d="M373.515354,10.704172 C373.038519,10.704172 372.651522,10.3194235 372.651522,9.84535845 L372.651522,4.69247738 C372.651522,4.21841232 373.038519,3.83366387 373.515354,3.83366387 C373.992189,3.83366387 374.379186,4.21841232 374.379186,4.69247738 L374.379186,9.84535845 C374.379186,10.3194235 373.992189,10.704172 373.515354,10.704172 M373.515354,21.0099341 C373.038519,21.0099341 372.651522,20.6251856 372.651522,20.1511206 L372.651522,14.9982395 C372.651522,14.5241745 373.038519,14.139426 373.515354,14.139426 C373.992189,14.139426 374.379186,14.5241745 374.379186,14.9982395 L374.379186,20.1511206 C374.379186,20.6251856 373.992189,21.0099341 373.515354,21.0099341 M373.515354,31.3156962 C373.038519,31.3156962 372.651522,30.9309478 372.651522,30.4568827 L372.651522,25.3040016 C372.651522,24.8299366 373.038519,24.4451881 373.515354,24.4451881 C373.992189,24.4451881 374.379186,24.8299366 374.379186,25.3040016 L374.379186,30.4568827 C374.379186,30.9309478 373.992189,31.3156962 373.515354,31.3156962 M373.515354,41.6214584 C373.038519,41.6214584 372.651522,41.2367099 372.651522,40.7626448 L372.651522,35.6097638 C372.651522,35.1356987 373.038519,34.7509503 373.515354,34.7509503 C373.992189,34.7509503 374.379186,35.1356987 374.379186,35.6097638 L374.379186,40.7626448 C374.379186,41.2367099 373.992189,41.6214584 373.515354,41.6214584 M373.515354,51.9272205 C373.038519,51.9272205 372.651522,51.542472 372.651522,51.068407 L372.651522,45.9155259 C372.651522,45.4414609 373.038519,45.0567124 373.515354,45.0567124 C373.992189,45.0567124 374.379186,45.4414609 374.379186,45.9155259 L374.379186,51.068407 C374.379186,51.542472 373.992189,51.9272205 373.515354,51.9272205 M373.515354,62.2329826 C373.038519,62.2329826 372.651522,61.8482342 372.651522,61.3741691 L372.651522,56.2212881 C372.651522,55.747223 373.038519,55.3624745 373.515354,55.3624745 C373.992189,55.3624745 374.379186,55.747223 374.379186,56.2212881 L374.379186,61.3741691 C374.379186,61.8482342 373.992189,62.2329826 373.515354,62.2329826 M373.515354,72.5387448 C373.038519,72.5387448 372.651522,72.1539963 372.651522,71.6799313 L372.651522,66.5270502 C372.651522,66.0529851 373.038519,65.6682367 373.515354,65.6682367 C373.992189,65.6682367 374.379186,66.0529851 374.379186,66.5270502 L374.379186,71.6799313 C374.379186,72.1539963 373.992189,72.5387448 373.515354,72.5387448 M373.515354,82.8445069 C373.038519,82.8445069 372.651522,82.4597584 372.651522,81.9856934 L372.651522,76.8328123 C372.651522,76.3587473 373.038519,75.9739988 373.515354,75.9739988 C373.992189,75.9739988 374.379186,76.3587473 374.379186,76.8328123 L374.379186,81.9856934 C374.379186,82.4597584 373.992189,82.8445069 373.515354,82.8445069 M373.515354,93.150269 C373.038519,93.150269 372.651522,92.7655206 372.651522,92.2914555 L372.651522,87.1385745 C372.651522,86.6645094 373.038519,86.2797609 373.515354,86.2797609 C373.992189,86.2797609 374.379186,86.6645094 374.379186,87.1385745 L374.379186,92.2914555 C374.379186,92.7655206 373.992189,93.150269 373.515354,93.150269 M373.515354,103.456031 C373.038519,103.456031 372.651522,103.071283 372.651522,102.597218 L372.651522,97.4443366 C372.651522,96.9702715 373.038519,96.5855231 373.515354,96.5855231 C373.992189,96.5855231 374.379186,96.9702715 374.379186,97.4443366 L374.379186,102.597218 C374.379186,103.071283 373.992189,103.456031 373.515354,103.456031 M373.515354,113.761793 C373.038519,113.761793 372.651522,113.377045 372.651522,112.90298 L372.651522,107.750099 C372.651522,107.276034 373.038519,106.891285 373.515354,106.891285 C373.992189,106.891285 374.379186,107.276034 374.379186,107.750099 L374.379186,112.90298 C374.379186,113.377045 373.992189,113.761793 373.515354,113.761793 M373.515354,124.067555 C373.038519,124.067555 372.651522,123.682807 372.651522,123.208742 L372.651522,118.055861 C372.651522,117.581796 373.038519,117.197047 373.515354,117.197047 C373.992189,117.197047 374.379186,117.581796 374.379186,118.055861 L374.379186,123.208742 C374.379186,123.682807 373.992189,124.067555 373.515354,124.067555 M373.515354,134.373318 C373.038519,134.373318 372.651522,133.988569 372.651522,133.514504 L372.651522,128.361623 C372.651522,127.887558 373.038519,127.502809 373.515354,127.502809 C373.992189,127.502809 374.379186,127.887558 374.379186,128.361623 L374.379186,133.514504 C374.379186,133.988569 373.992189,134.373318 373.515354,134.373318 M373.515354,144.67908 C373.038519,144.67908 372.651522,144.294331 372.651522,143.820266 L372.651522,138.667385 C372.651522,138.19332 373.038519,137.808572 373.515354,137.808572 C373.992189,137.808572 374.379186,138.19332 374.379186,138.667385 L374.379186,143.820266 C374.379186,144.294331 373.992189,144.67908 373.515354,144.67908 M373.515354,154.984842 C373.038519,154.984842 372.651522,154.600093 372.651522,154.126028 L372.651522,148.973147 C372.651522,148.499082 373.038519,148.114334 373.515354,148.114334 C373.992189,148.114334 374.379186,148.499082 374.379186,148.973147 L374.379186,154.126028 C374.379186,154.600093 373.992189,154.984842 373.515354,154.984842 M373.515354,165.290604 C373.038519,165.290604 372.651522,164.905856 372.651522,164.43179 L372.651522,159.278909 C372.651522,158.804844 373.038519,158.420096 373.515354,158.420096 C373.992189,158.420096 374.379186,158.804844 374.379186,159.278909 L374.379186,164.43179 C374.379186,164.905856 373.992189,165.290604 373.515354,165.290604 M373.515354,175.596366 C373.038519,175.596366 372.651522,175.211618 372.651522,174.737553 L372.651522,169.584672 C372.651522,169.110606 373.038519,168.725858 373.515354,168.725858 C373.992189,168.725858 374.379186,169.110606 374.379186,169.584672 L374.379186,174.737553 C374.379186,175.211618 373.992189,175.596366 373.515354,175.596366 M373.515354,185.902128 C373.038519,185.902128 372.651522,185.51738 372.651522,185.043315 L372.651522,179.890434 C372.651522,179.416369 373.038519,179.03162 373.515354,179.03162 C373.992189,179.03162 374.379186,179.416369 374.379186,179.890434 L374.379186,185.043315 C374.379186,185.51738 373.992189,185.902128 373.515354,185.902128 M373.515354,196.20789 C373.038519,196.20789 372.651522,195.823142 372.651522,195.349077 L372.651522,190.196196 C372.651522,189.722131 373.038519,189.337382 373.515354,189.337382 C373.992189,189.337382 374.379186,189.722131 374.379186,190.196196 L374.379186,195.349077 C374.379186,195.823142 373.992189,196.20789 373.515354,196.20789 M373.515354,206.513653 C373.038519,206.513653 372.651522,206.128904 372.651522,205.654839 L372.651522,200.501958 C372.651522,200.027893 373.038519,199.643144 373.515354,199.643144 C373.992189,199.643144 374.379186,200.027893 374.379186,200.501958 L374.379186,205.654839 C374.379186,206.128904 373.992189,206.513653 373.515354,206.513653 M373.515354,216.819415 C373.038519,216.819415 372.651522,216.434666 372.651522,215.960601 L372.651522,210.80772 C372.651522,210.333655 373.038519,209.948907 373.515354,209.948907 C373.992189,209.948907 374.379186,210.333655 374.379186,210.80772 L374.379186,215.960601 C374.379186,216.434666 373.992189,216.819415 373.515354,216.819415" id="Fill-61" fill="#FF6A00"></path>
                    <path d="M87.8549744,7.61192803 C87.3781391,7.61192803 86.9911424,7.22717958 86.9911424,6.75311452 L86.9911424,1.70844395 C86.9911424,1.2343789 87.3781391,0.849630444 87.8549744,0.849630444 C88.3318096,0.849630444 88.7188064,1.2343789 88.7188064,1.70844395 L88.7188064,6.75311452 C88.7188064,7.22717958 88.3318096,7.61192803 87.8549744,7.61192803 M87.8549744,17.9176902 C87.3781391,17.9176902 86.9911424,17.5329417 86.9911424,17.0588767 L86.9911424,11.9059956 C86.9911424,11.4319305 87.3781391,11.0471821 87.8549744,11.0471821 C88.3318096,11.0471821 88.7188064,11.4319305 88.7188064,11.9059956 L88.7188064,17.0588767 C88.7188064,17.5329417 88.3318096,17.9176902 87.8549744,17.9176902 M87.8549744,28.2234523 C87.3781391,28.2234523 86.9911424,27.8387038 86.9911424,27.3646388 L86.9911424,22.2117577 C86.9911424,21.7376927 87.3781391,21.3529442 87.8549744,21.3529442 C88.3318096,21.3529442 88.7188064,21.7376927 88.7188064,22.2117577 L88.7188064,27.3646388 C88.7188064,27.8387038 88.3318096,28.2234523 87.8549744,28.2234523 M87.8549744,38.5292144 C87.3781391,38.5292144 86.9911424,38.144466 86.9911424,37.6704009 L86.9911424,32.5175199 C86.9911424,32.0434548 87.3781391,31.6587063 87.8549744,31.6587063 C88.3318096,31.6587063 88.7188064,32.0434548 88.7188064,32.5175199 L88.7188064,37.6704009 C88.7188064,38.144466 88.3318096,38.5292144 87.8549744,38.5292144 M87.8549744,48.8349766 C87.3781391,48.8349766 86.9911424,48.4502281 86.9911424,47.9761631 L86.9911424,42.823282 C86.9911424,42.3492169 87.3781391,41.9644685 87.8549744,41.9644685 C88.3318096,41.9644685 88.7188064,42.3492169 88.7188064,42.823282 L88.7188064,47.9761631 C88.7188064,48.4502281 88.3318096,48.8349766 87.8549744,48.8349766 M87.8549744,59.1407387 C87.3781391,59.1407387 86.9911424,58.7559902 86.9911424,58.2819252 L86.9911424,53.1290441 C86.9911424,52.6549791 87.3781391,52.2702306 87.8549744,52.2702306 C88.3318096,52.2702306 88.7188064,52.6549791 88.7188064,53.1290441 L88.7188064,58.2819252 C88.7188064,58.7559902 88.3318096,59.1407387 87.8549744,59.1407387 M87.8549744,69.4465008 C87.3781391,69.4465008 86.9911424,69.0617524 86.9911424,68.5876873 L86.9911424,63.4348063 C86.9911424,62.9607412 87.3781391,62.5759927 87.8549744,62.5759927 C88.3318096,62.5759927 88.7188064,62.9607412 88.7188064,63.4348063 L88.7188064,68.5876873 C88.7188064,69.0617524 88.3318096,69.4465008 87.8549744,69.4465008" id="Fill-63" fill="#FF6A00"></path>
                    <path d="M428.872946,77.4114809 C428.517047,77.4114809 428.185335,77.1916246 428.057488,76.8395111 C427.900271,76.392928 428.133505,75.9016867 428.584426,75.743665 C430.296541,75.1390603 432.091584,74.8058407 433.919452,74.7543119 C434.34964,74.7629 434.795378,75.1132959 434.809199,75.5890786 C434.821293,76.0631436 434.44639,76.4581979 433.969554,76.4719389 C432.321363,76.5183148 430.704269,76.8171819 429.161466,77.3616697 C429.066444,77.3960222 428.969695,77.4114809 428.872946,77.4114809 L428.872946,77.4114809 Z M443.736039,79.3025882 C443.566728,79.3025882 443.397417,79.2544947 443.248838,79.1531547 C441.889166,78.2342242 440.401647,77.5385853 438.82429,77.0834141 C438.366459,76.9511568 438.102127,76.4753741 438.235157,76.0184853 C438.368187,75.5633142 438.843294,75.3005173 439.306308,75.4344922 C441.056432,75.9394745 442.709806,76.7124067 444.221512,77.7326771 C444.61542,77.9989093 444.717352,78.5330913 444.451292,78.9247103 C444.281981,79.1703309 444.010737,79.3025882 443.736039,79.3025882 L443.736039,79.3025882 Z M420.777112,83.5760442 C420.607801,83.5760442 420.435035,83.5279507 420.286456,83.4231754 C419.894276,83.153508 419.795799,82.619326 420.067042,82.2294247 C421.105368,80.7385244 422.364835,79.4245397 423.812618,78.3218232 C424.185793,78.0349795 424.733463,78.1019669 425.021983,78.4815625 C425.31223,78.8577228 425.241396,79.3970577 424.863038,79.685619 C423.558651,80.6801251 422.423576,81.8652877 421.48891,83.2067544 C421.321326,83.4472222 421.051811,83.5760442 420.777112,83.5760442 L420.777112,83.5760442 Z M450.012642,87.2895539 C449.660198,87.2895539 449.330215,87.0731329 449.202368,86.7261722 C448.637421,85.1957665 447.839241,83.7667008 446.825102,82.476763 C446.529671,82.1023203 446.59705,81.5629854 446.973681,81.2709888 C447.343401,80.9807098 447.889343,81.0425444 448.184773,81.4187047 C449.31121,82.849488 450.19923,84.4365754 450.824644,86.1353085 C450.988772,86.5801739 450.758993,87.0731329 450.3098,87.2380251 C450.213051,87.2723776 450.111119,87.2895539 450.012642,87.2895539 L450.012642,87.2895539 Z M417.836628,93.2806369 C417.366704,93.2806369 416.979707,92.9061942 416.972796,92.4355644 L416.969341,92.1023448 C416.969341,90.3933059 417.218124,88.7083138 417.708781,87.0920268 C417.846994,86.6368556 418.332468,86.3792115 418.785116,86.5183393 C419.242947,86.6540319 419.500369,87.1332498 419.362155,87.588421 C418.921601,89.0415334 418.697005,90.5616333 418.697005,92.1023448 L418.70046,92.4080824 C418.707371,92.8821475 418.327285,93.2737664 417.850449,93.2806369 L417.836628,93.2806369 Z M450.221689,98.0315933 C450.135306,98.0315933 450.045468,98.0178522 449.957357,97.9903702 C449.502981,97.8443719 449.254197,97.3600011 449.401049,96.9099828 C449.902071,95.3606832 450.156038,93.7443962 450.156038,92.1023448 C450.156038,91.9013824 450.152583,91.6987024 450.145672,91.4994577 C450.126668,91.0253926 450.498116,90.6251855 450.974951,90.6062916 C451.508799,90.5805272 451.852604,90.9584052 451.873336,91.4307526 C451.880247,91.6540441 451.883702,91.8773356 451.883702,92.1023448 C451.883702,93.9230294 451.602093,95.7179497 451.044057,97.4355767 C450.926576,97.7997136 450.586226,98.0315933 450.221689,98.0315933 L450.221689,98.0315933 Z M421.155471,102.864996 C420.894593,102.864996 420.633716,102.746479 420.466133,102.52147 C419.365611,101.06664 418.508689,99.4623766 417.917828,97.7533377 C417.762339,97.305037 418.002484,96.817231 418.455132,96.6626445 C418.906052,96.5063405 419.396709,96.7450906 419.550471,97.1951089 C420.084319,98.7341027 420.854857,100.178627 421.846536,101.490894 C422.133328,101.868772 422.057311,102.408107 421.675498,102.693233 C421.51828,102.808314 421.336875,102.864996 421.155471,102.864996 L421.155471,102.864996 Z M444.256066,106.253874 C443.991733,106.253874 443.730856,106.13364 443.561545,105.903478 C443.278208,105.522165 443.361136,104.984547 443.742949,104.702857 C445.068068,103.734115 446.22733,102.571281 447.189639,101.246991 C447.469521,100.860525 448.008552,100.776361 448.395548,101.052899 C448.780818,101.331155 448.868928,101.867054 448.589047,102.251803 C447.523078,103.722092 446.237696,105.012029 444.769182,106.087264 C444.613692,106.19891 444.435743,106.253874 444.256066,106.253874 L444.256066,106.253874 Z M429.481083,108.715233 C429.396428,108.715233 429.308317,108.701492 429.221934,108.675728 C427.485631,108.136393 425.847806,107.330826 424.355104,106.283073 C423.96638,106.008253 423.873086,105.472354 424.149512,105.085887 C424.427666,104.697704 424.966697,104.610105 425.353694,104.879772 C426.697817,105.824467 428.173242,106.549306 429.738505,107.035394 C430.192881,107.177957 430.446847,107.658893 430.305179,108.112346 C430.189426,108.478201 429.847348,108.715233 429.481083,108.715233 L429.481083,108.715233 Z M434.589786,109.458966 C434.114678,109.458966 433.731137,109.07937 433.725902,108.60874 C433.720771,108.134675 434.102584,107.746492 434.581147,107.741339 C436.232794,107.72588 437.853343,107.45793 439.404785,106.94436 C439.857433,106.796644 440.346362,107.037112 440.498396,107.48713 C440.646976,107.937148 440.403375,108.423237 439.950727,108.57267 C438.229974,109.14464 436.42802,109.44179 434.596696,109.458966 L434.589786,109.458966 Z" id="Fill-65" fill="#FF6A00"></path>
                    <path d="M434.42704,7.61192803 C433.950204,7.61192803 433.563208,7.22717958 433.563208,6.75311452 L433.563208,1.70844395 C433.563208,1.2343789 433.950204,0.849630444 434.42704,0.849630444 C434.903875,0.849630444 435.290872,1.2343789 435.290872,1.70844395 L435.290872,6.75311452 C435.290872,7.22717958 434.903875,7.61192803 434.42704,7.61192803 M434.42704,17.9176902 C433.950204,17.9176902 433.563208,17.5329417 433.563208,17.0588767 L433.563208,11.9059956 C433.563208,11.4319305 433.950204,11.0471821 434.42704,11.0471821 C434.903875,11.0471821 435.290872,11.4319305 435.290872,11.9059956 L435.290872,17.0588767 C435.290872,17.5329417 434.903875,17.9176902 434.42704,17.9176902 M434.42704,28.2234523 C433.950204,28.2234523 433.563208,27.8387038 433.563208,27.3646388 L433.563208,22.2117577 C433.563208,21.7376927 433.950204,21.3529442 434.42704,21.3529442 C434.903875,21.3529442 435.290872,21.7376927 435.290872,22.2117577 L435.290872,27.3646388 C435.290872,27.8387038 434.903875,28.2234523 434.42704,28.2234523 M434.42704,38.5292144 C433.950204,38.5292144 433.563208,38.144466 433.563208,37.6704009 L433.563208,32.5175199 C433.563208,32.0434548 433.950204,31.6587063 434.42704,31.6587063 C434.903875,31.6587063 435.290872,32.0434548 435.290872,32.5175199 L435.290872,37.6704009 C435.290872,38.144466 434.903875,38.5292144 434.42704,38.5292144 M434.42704,48.8349766 C433.950204,48.8349766 433.563208,48.4502281 433.563208,47.9761631 L433.563208,42.823282 C433.563208,42.3492169 433.950204,41.9644685 434.42704,41.9644685 C434.903875,41.9644685 435.290872,42.3492169 435.290872,42.823282 L435.290872,47.9761631 C435.290872,48.4502281 434.903875,48.8349766 434.42704,48.8349766 M434.42704,59.1407387 C433.950204,59.1407387 433.563208,58.7559902 433.563208,58.2819252 L433.563208,53.1290441 C433.563208,52.6549791 433.950204,52.2702306 434.42704,52.2702306 C434.903875,52.2702306 435.290872,52.6549791 435.290872,53.1290441 L435.290872,58.2819252 C435.290872,58.7559902 434.903875,59.1407387 434.42704,59.1407387 M434.42704,69.4465008 C433.950204,69.4465008 433.563208,69.0617524 433.563208,68.5876873 L433.563208,63.4348063 C433.563208,62.9607412 433.950204,62.5759927 434.42704,62.5759927 C434.903875,62.5759927 435.290872,62.9607412 435.290872,63.4348063 L435.290872,68.5876873 C435.290872,69.0617524 434.903875,69.4465008 434.42704,69.4465008" id="Fill-67" fill="#FF6A00"></path>
                    <path d="M240.340303,95.5984028 C239.903204,95.5984028 239.526573,95.2686184 239.483382,94.8271883 C239.435007,94.3548409 239.78054,93.9340222 240.25392,93.8842111 C242.005771,93.7055778 243.809452,93.6626372 245.559576,93.7502361 C246.036411,93.7742829 246.404403,94.1779253 246.378489,94.6519903 C246.356029,95.1260554 246.013951,95.4884747 245.473193,95.4661455 C243.81118,95.3836994 242.092154,95.4249225 240.430141,95.5949676 C240.399044,95.5966852 240.371401,95.5984028 240.340303,95.5984028 M255.626674,97.5461919 C255.524742,97.5461919 255.422809,97.5290156 255.324333,97.4912278 C253.748703,96.905517 252.116061,96.4366048 250.473052,96.0999499 C250.006583,96.0037628 249.705969,95.5485916 249.804446,95.0848323 C249.899468,94.6193554 250.365937,94.3290765 250.823768,94.4183931 C252.551432,94.7739419 254.270458,95.2669008 255.927287,95.8835289 C256.374752,96.0484211 256.602804,96.5430977 256.43522,96.9879631 C256.305646,97.3332061 255.975662,97.5461919 255.626674,97.5461919 M230.357861,98.1937373 C230.024421,98.1937373 229.706531,98.001363 229.56659,97.6784491 C229.37482,97.2438895 229.575229,96.7371895 230.012328,96.5482506 C231.632877,95.8474587 233.322532,95.2669008 235.032919,94.8220354 C235.497661,94.7018015 235.965858,94.9800571 236.085067,95.4352283 C236.206003,95.8938347 235.929577,96.3644645 235.468291,96.4846984 C233.844286,96.905517 232.242742,97.4568753 230.701666,98.1233145 C230.589368,98.1714081 230.471886,98.1937373 230.357861,98.1937373 M264.626075,102.582274 C264.43776,102.582274 264.251172,102.523875 264.092227,102.400206 C262.763654,101.362759 261.352152,100.424935 259.897459,99.6090619 C259.481092,99.3754646 259.334241,98.853306 259.569203,98.4393579 C259.805893,98.0236922 260.33283,97.8811291 260.745742,98.1130088 C262.276452,98.9718223 263.762243,99.9594578 265.158196,101.048433 C265.534827,101.342148 265.59875,101.881482 265.305047,102.254208 C265.135736,102.470629 264.880042,102.582274 264.626075,102.582274 M221.636613,103.681556 C221.39474,103.681556 221.156322,103.581933 220.985284,103.387841 C220.670849,103.030575 220.708857,102.487805 221.068211,102.175197 C222.40024,101.020951 223.830746,99.9594578 225.32172,99.0199159 C225.722538,98.7639894 226.256386,98.8842233 226.513808,99.286148 C226.769502,99.6863551 226.648566,100.217102 226.24602,100.471311 C224.829336,101.362759 223.469664,102.371006 222.205014,103.470287 C222.040886,103.612851 221.83875,103.681556 221.636613,103.681556 M271.673217,110.083152 C271.398518,110.083152 271.125547,109.950894 270.959691,109.706991 C270.012932,108.329454 268.953874,107.012034 267.806705,105.792519 C267.481904,105.445559 267.500908,104.902788 267.848169,104.579875 C268.197157,104.253525 268.741371,104.272419 269.069627,104.61938 C270.275537,105.902447 271.391607,107.288572 272.386742,108.739967 C272.65453,109.131586 272.554325,109.665768 272.15869,109.933718 C272.010111,110.03334 271.8408,110.083152 271.673217,110.083152 M214.983379,111.529393 C214.829617,111.529393 214.675855,111.48817 214.534186,111.404007 C214.126458,111.156668 213.99861,110.627639 214.245666,110.223997 C215.164784,108.724509 216.208293,107.283419 217.348551,105.938517 C217.65953,105.576098 218.203745,105.533158 218.564826,105.83546 C218.929363,106.142915 218.977738,106.683968 218.668486,107.046387 C217.585241,108.324301 216.593562,109.69325 215.721091,111.117163 C215.558691,111.381678 215.273626,111.529393 214.983379,111.529393 M276.111585,119.344596 C275.73841,119.344596 275.394605,119.104129 275.284034,118.729686 C274.807199,117.137446 274.199061,115.564099 273.473443,114.052588 C273.267851,113.624898 273.449255,113.111328 273.881171,112.90693 C274.307904,112.702533 274.824476,112.882884 275.031795,113.31229 C275.795423,114.904531 276.438114,116.562041 276.940864,118.240162 C277.075622,118.695333 276.814745,119.172834 276.358641,119.308526 C276.275714,119.332573 276.192786,119.344596 276.111585,119.344596 M211.030484,121.01413 C210.963105,121.01413 210.895726,121.007259 210.826619,120.990083 C210.361878,120.878437 210.078541,120.414678 210.190839,119.952636 C210.608934,118.247033 211.161786,116.558605 211.840758,114.932013 C212.023891,114.4923 212.530096,114.287902 212.968923,114.466536 C213.409477,114.648604 213.618524,115.150151 213.43712,115.589864 C212.794429,117.13401 212.265763,118.738274 211.870128,120.359714 C211.775107,120.751333 211.420936,121.01413 211.030484,121.01413 M210.156286,131.239164 C209.708821,131.239164 209.328735,130.892203 209.295909,130.440467 C209.242352,129.662382 209.214709,128.875709 209.216437,128.0856 C209.216437,127.113423 209.2579,126.129223 209.340828,125.163917 C209.378837,124.689852 209.812481,124.332585 210.273767,124.380679 C210.748874,124.420184 211.101318,124.834132 211.061582,125.308197 C210.983837,126.227128 210.944101,127.161517 210.944101,128.087318 C210.942373,128.839639 210.970015,129.585089 211.020118,130.321951 C211.052943,130.796016 210.693589,131.204811 210.216754,131.237446 C210.19775,131.239164 210.177018,131.239164 210.156286,131.239164 M277.125724,134.078401 C277.082533,134.078401 277.037613,134.074966 276.992694,134.068095 C276.521042,133.995955 276.197969,133.55796 276.270531,133.089048 C276.522769,131.448714 276.652344,129.76544 276.652344,128.087318 C276.652344,126.596418 276.548684,125.096929 276.348275,123.631793 C276.282624,123.161164 276.612608,122.728322 277.087716,122.663052 C277.55073,122.602935 277.994739,122.929284 278.058663,123.398196 C278.271165,124.940625 278.380008,126.517407 278.380008,128.087318 C278.380008,129.851321 278.243523,131.622194 277.977463,133.350127 C277.911811,133.774381 277.543819,134.078401 277.125724,134.078401 M212.426436,141.251211 C212.082631,141.251211 211.756103,141.045096 211.623072,140.708441 C210.973471,139.074978 210.448261,137.377963 210.061264,135.663771 C209.954149,135.200011 210.247852,134.741405 210.714321,134.63663 C211.17388,134.531855 211.642077,134.823851 211.744009,135.285893 C212.113729,136.914203 212.613024,138.527055 213.2298,140.076355 C213.404294,140.517785 213.186608,141.017614 212.742599,141.191095 C212.638939,141.232318 212.531824,141.251211 212.426436,141.251211 M274.002108,143.860287 C273.872533,143.860287 273.74123,143.832805 273.618566,143.77097 C273.191833,143.559702 273.017339,143.044414 273.229842,142.618443 C273.97792,141.120672 274.615428,139.555914 275.121634,137.968826 C275.26503,137.51709 275.745321,137.264599 276.206607,137.410597 C276.659255,137.55316 276.913222,138.037531 276.768098,138.489267 C276.23425,140.160518 275.565644,141.806005 274.776101,143.384504 C274.625794,143.686807 274.319998,143.860287 274.002108,143.860287 M217.642254,150.100426 C217.39347,150.100426 217.142959,149.992215 216.973648,149.784382 C215.861032,148.427457 214.84171,146.969192 213.945053,145.452527 C213.70318,145.043732 213.841393,144.51642 214.252577,144.275953 C214.658578,144.035485 215.190699,144.171177 215.436027,144.58169 C216.287765,146.024497 217.255257,147.410622 218.312587,148.70056 C218.614929,149.068132 218.559643,149.609185 218.188196,149.908052 C218.027523,150.038591 217.835752,150.100426 217.642254,150.100426 M268.041667,152.244024 C267.825709,152.244024 267.608023,152.163296 267.442168,152.001839 C267.098363,151.672055 267.087997,151.129284 267.421436,150.787477 C268.589337,149.588573 269.672582,148.288329 270.640074,146.926251 C270.918228,146.538067 271.457259,146.450468 271.844255,146.720136 C272.23298,146.993239 272.326274,147.529138 272.049847,147.917322 C271.032253,149.35154 269.890267,150.718772 268.663626,151.981227 C268.494315,152.156425 268.267991,152.244024 268.041667,152.244024 M225.304443,156.979522 C225.140315,156.979522 224.976187,156.933146 224.829336,156.838677 C223.352183,155.87337 221.940682,154.78783 220.629385,153.609538 C220.275214,153.291777 220.247571,152.749007 220.567189,152.396893 C220.886807,152.046497 221.434476,152.019015 221.78692,152.335059 C223.030838,153.454951 224.37496,154.487245 225.777823,155.40274 C226.176914,155.66382 226.287484,156.194567 226.026607,156.591338 C225.860751,156.84383 225.584325,156.979522 225.304443,156.979522 M259.819714,158.446376 C259.513918,158.446376 259.216759,158.284919 259.06127,157.996357 C258.833218,157.578974 258.990436,157.058533 259.40853,156.831806 C260.8805,156.041698 262.305823,155.12792 263.644762,154.116238 C264.026576,153.832829 264.567335,153.903252 264.855855,154.28113 C265.144375,154.659008 265.070085,155.198343 264.691727,155.485187 C263.278497,156.548398 261.778885,157.510269 260.232626,158.343318 C260.101323,158.413741 259.959655,158.446376 259.819714,158.446376 M234.702935,161.232367 C234.626918,161.232367 234.547446,161.223778 234.471428,161.201449 C232.769679,160.729102 231.09039,160.119344 229.480207,159.39107 C229.046564,159.193543 228.854793,158.685126 229.051747,158.254001 C229.250428,157.821159 229.763544,157.63222 230.19546,157.826312 C231.72617,158.520234 233.322532,159.099074 234.93617,159.547374 C235.395729,159.674479 235.663517,160.148544 235.535669,160.605433 C235.428554,160.985028 235.081294,161.232367 234.702935,161.232367 M250.096421,161.883347 C249.69042,161.883347 249.327611,161.596504 249.249866,161.184273 C249.160028,160.717078 249.469279,160.268778 249.939204,160.181179 C251.589123,159.870288 253.225221,159.430576 254.804306,158.870629 C255.255226,158.709173 255.74761,158.944487 255.908283,159.392788 C256.068956,159.839371 255.833993,160.330612 255.384801,160.490352 C253.719333,161.07778 251.996852,161.541539 250.258822,161.867889 C250.205264,161.878194 250.151707,161.883347 250.096421,161.883347 M243.799086,162.46734 C242.42041,162.46734 241.033096,162.384894 239.678608,162.225155 C239.206955,162.168473 238.866606,161.740784 238.925346,161.270154 C238.982359,160.797807 239.421186,160.464587 239.8842,160.519551 C241.541029,160.715361 243.253144,160.778913 244.923795,160.729102 C244.934161,160.729102 244.944527,160.729102 244.953166,160.729102 C245.41618,160.729102 245.801449,161.094956 245.816998,161.558716 C245.832547,162.032781 245.459371,162.43127 244.982536,162.445011 C244.590356,162.458752 244.194721,162.465623 243.799086,162.46734" id="Fill-69" fill="#FF6A00"></path>
                    <path d="M243.797359,6.79502462 C243.320523,6.79502462 242.933527,6.41027617 242.933527,5.93621111 L242.933527,2.85822348 C242.933527,2.3824408 243.320523,1.99940997 243.797359,1.99940997 C244.274194,1.99940997 244.661191,2.3824408 244.661191,2.85822348 L244.661191,5.93621111 C244.661191,6.41027617 244.274194,6.79502462 243.797359,6.79502462 M243.797359,17.1007868 C243.320523,17.1007868 242.933527,16.7160383 242.933527,16.2419732 L242.933527,11.0890922 C242.933527,10.6150271 243.320523,10.2302787 243.797359,10.2302787 C244.274194,10.2302787 244.661191,10.6150271 244.661191,11.0890922 L244.661191,16.2419732 C244.661191,16.7160383 244.274194,17.1007868 243.797359,17.1007868 M243.797359,27.4065489 C243.320523,27.4065489 242.933527,27.0218004 242.933527,26.5477354 L242.933527,21.3948543 C242.933527,20.9207893 243.320523,20.5360408 243.797359,20.5360408 C244.274194,20.5360408 244.661191,20.9207893 244.661191,21.3948543 L244.661191,26.5477354 C244.661191,27.0218004 244.274194,27.4065489 243.797359,27.4065489 M243.797359,37.712311 C243.320523,37.712311 242.933527,37.3275626 242.933527,36.8534975 L242.933527,31.7006164 C242.933527,31.2265514 243.320523,30.8418029 243.797359,30.8418029 C244.274194,30.8418029 244.661191,31.2265514 244.661191,31.7006164 L244.661191,36.8534975 C244.661191,37.3275626 244.274194,37.712311 243.797359,37.712311 M243.797359,48.0180732 C243.320523,48.0180732 242.933527,47.6333247 242.933527,47.1592596 L242.933527,42.0063786 C242.933527,41.5323135 243.320523,41.1475651 243.797359,41.1475651 C244.274194,41.1475651 244.661191,41.5323135 244.661191,42.0063786 L244.661191,47.1592596 C244.661191,47.6333247 244.274194,48.0180732 243.797359,48.0180732 M243.797359,58.3238353 C243.320523,58.3238353 242.933527,57.9390868 242.933527,57.4650218 L242.933527,52.3121407 C242.933527,51.8380757 243.320523,51.4533272 243.797359,51.4533272 C244.274194,51.4533272 244.661191,51.8380757 244.661191,52.3121407 L244.661191,57.4650218 C244.661191,57.9390868 244.274194,58.3238353 243.797359,58.3238353 M243.797359,68.6295974 C243.320523,68.6295974 242.933527,68.244849 242.933527,67.7707839 L242.933527,62.6179028 C242.933527,62.1438378 243.320523,61.7590893 243.797359,61.7590893 C244.274194,61.7590893 244.661191,62.1438378 244.661191,62.6179028 L244.661191,67.7707839 C244.661191,68.244849 244.274194,68.6295974 243.797359,68.6295974 M243.797359,78.9353596 C243.320523,78.9353596 242.933527,78.5506111 242.933527,78.076546 L242.933527,72.923665 C242.933527,72.4495999 243.320523,72.0648515 243.797359,72.0648515 C244.274194,72.0648515 244.661191,72.4495999 244.661191,72.923665 L244.661191,78.076546 C244.661191,78.5506111 244.274194,78.9353596 243.797359,78.9353596 M243.797359,89.2411217 C243.320523,89.2411217 242.933527,88.8563732 242.933527,88.3823082 L242.933527,83.2294271 C242.933527,82.7553621 243.320523,82.3706136 243.797359,82.3706136 C244.274194,82.3706136 244.661191,82.7553621 244.661191,83.2294271 L244.661191,88.3823082 C244.661191,88.8563732 244.274194,89.2411217 243.797359,89.2411217" id="Fill-71" fill="#FF6A00"></path>
                    <path d="M306.187376,7.87438144 C305.71054,7.87438144 305.323544,7.48963299 305.323544,7.01556793 L305.323544,2.85719291 C305.323544,2.38312785 305.71054,1.9983794 306.187376,1.9983794 C306.664211,1.9983794 307.051208,2.38312785 307.051208,2.85719291 L307.051208,7.01556793 C307.051208,7.48963299 306.664211,7.87438144 306.187376,7.87438144 M306.187376,18.1801436 C305.71054,18.1801436 305.323544,17.7953951 305.323544,17.3213301 L305.323544,12.168449 C305.323544,11.6943839 305.71054,11.3096355 306.187376,11.3096355 C306.664211,11.3096355 307.051208,11.6943839 307.051208,12.168449 L307.051208,17.3213301 C307.051208,17.7953951 306.664211,18.1801436 306.187376,18.1801436 M306.187376,28.4859057 C305.71054,28.4859057 305.323544,28.1011573 305.323544,27.6270922 L305.323544,22.4742111 C305.323544,22.0001461 305.71054,21.6153976 306.187376,21.6153976 C306.664211,21.6153976 307.051208,22.0001461 307.051208,22.4742111 L307.051208,27.6270922 C307.051208,28.1011573 306.664211,28.4859057 306.187376,28.4859057 M306.187376,38.7916678 C305.71054,38.7916678 305.323544,38.4069194 305.323544,37.9328543 L305.323544,32.7799733 C305.323544,32.3059082 305.71054,31.9211598 306.187376,31.9211598 C306.664211,31.9211598 307.051208,32.3059082 307.051208,32.7799733 L307.051208,37.9328543 C307.051208,38.4069194 306.664211,38.7916678 306.187376,38.7916678 M306.187376,49.09743 C305.71054,49.09743 305.323544,48.7126815 305.323544,48.2386165 L305.323544,43.0857354 C305.323544,42.6116703 305.71054,42.2269219 306.187376,42.2269219 C306.664211,42.2269219 307.051208,42.6116703 307.051208,43.0857354 L307.051208,48.2386165 C307.051208,48.7126815 306.664211,49.09743 306.187376,49.09743 M306.187376,59.4031921 C305.71054,59.4031921 305.323544,59.0184437 305.323544,58.5443786 L305.323544,53.3914975 C305.323544,52.9174325 305.71054,52.532684 306.187376,52.532684 C306.664211,52.532684 307.051208,52.9174325 307.051208,53.3914975 L307.051208,58.5443786 C307.051208,59.0184437 306.664211,59.4031921 306.187376,59.4031921 M306.187376,69.7089542 C305.71054,69.7089542 305.323544,69.3242058 305.323544,68.8501407 L305.323544,63.6972597 C305.323544,63.2231946 305.71054,62.8384462 306.187376,62.8384462 C306.664211,62.8384462 307.051208,63.2231946 307.051208,63.6972597 L307.051208,68.8501407 C307.051208,69.3242058 306.664211,69.7089542 306.187376,69.7089542 M306.187376,80.0147164 C305.71054,80.0147164 305.323544,79.6299679 305.323544,79.1559029 L305.323544,74.0030218 C305.323544,73.5289567 305.71054,73.1442083 306.187376,73.1442083 C306.664211,73.1442083 307.051208,73.5289567 307.051208,74.0030218 L307.051208,79.1559029 C307.051208,79.6299679 306.664211,80.0147164 306.187376,80.0147164 M306.187376,90.3204785 C305.71054,90.3204785 305.323544,89.9357301 305.323544,89.461665 L305.323544,84.3087839 C305.323544,83.8347189 305.71054,83.4499704 306.187376,83.4499704 C306.664211,83.4499704 307.051208,83.8347189 307.051208,84.3087839 L307.051208,89.461665 C307.051208,89.9357301 306.664211,90.3204785 306.187376,90.3204785 M306.187376,100.626241 C305.71054,100.626241 305.323544,100.241492 305.323544,99.7674271 L305.323544,94.6145461 C305.323544,94.140481 305.71054,93.7557326 306.187376,93.7557326 C306.664211,93.7557326 307.051208,94.140481 307.051208,94.6145461 L307.051208,99.7674271 C307.051208,100.241492 306.664211,100.626241 306.187376,100.626241 M306.187376,110.932003 C305.71054,110.932003 305.323544,110.547254 305.323544,110.073189 L305.323544,104.920308 C305.323544,104.446243 305.71054,104.061495 306.187376,104.061495 C306.664211,104.061495 307.051208,104.446243 307.051208,104.920308 L307.051208,110.073189 C307.051208,110.547254 306.664211,110.932003 306.187376,110.932003 M306.187376,121.237765 C305.71054,121.237765 305.323544,120.853016 305.323544,120.378951 L305.323544,115.22607 C305.323544,114.752005 305.71054,114.367257 306.187376,114.367257 C306.664211,114.367257 307.051208,114.752005 307.051208,115.22607 L307.051208,120.378951 C307.051208,120.853016 306.664211,121.237765 306.187376,121.237765 M306.187376,131.543527 C305.71054,131.543527 305.323544,131.158779 305.323544,130.684714 L305.323544,125.531832 C305.323544,125.057767 305.71054,124.673019 306.187376,124.673019 C306.664211,124.673019 307.051208,125.057767 307.051208,125.531832 L307.051208,130.684714 C307.051208,131.158779 306.664211,131.543527 306.187376,131.543527 M306.187376,141.849289 C305.71054,141.849289 305.323544,141.464541 305.323544,140.990476 L305.323544,135.837595 C305.323544,135.36353 305.71054,134.978781 306.187376,134.978781 C306.664211,134.978781 307.051208,135.36353 307.051208,135.837595 L307.051208,140.990476 C307.051208,141.464541 306.664211,141.849289 306.187376,141.849289 M306.187376,152.155051 C305.71054,152.155051 305.323544,151.770303 305.323544,151.296238 L305.323544,146.143357 C305.323544,145.669292 305.71054,145.284543 306.187376,145.284543 C306.664211,145.284543 307.051208,145.669292 307.051208,146.143357 L307.051208,151.296238 C307.051208,151.770303 306.664211,152.155051 306.187376,152.155051 M306.187376,162.460813 C305.71054,162.460813 305.323544,162.076065 305.323544,161.602 L305.323544,156.449119 C305.323544,155.975054 305.71054,155.590305 306.187376,155.590305 C306.664211,155.590305 307.051208,155.975054 307.051208,156.449119 L307.051208,161.602 C307.051208,162.076065 306.664211,162.460813 306.187376,162.460813 M306.187376,172.766576 C305.71054,172.766576 305.323544,172.381827 305.323544,171.907762 L305.323544,166.754881 C305.323544,166.280816 305.71054,165.896067 306.187376,165.896067 C306.664211,165.896067 307.051208,166.280816 307.051208,166.754881 L307.051208,171.907762 C307.051208,172.381827 306.664211,172.766576 306.187376,172.766576 M306.187376,183.072338 C305.71054,183.072338 305.323544,182.687589 305.323544,182.213524 L305.323544,177.060643 C305.323544,176.586578 305.71054,176.20183 306.187376,176.20183 C306.664211,176.20183 307.051208,176.586578 307.051208,177.060643 L307.051208,182.213524 C307.051208,182.687589 306.664211,183.072338 306.187376,183.072338 M306.187376,193.3781 C305.71054,193.3781 305.323544,192.993351 305.323544,192.519286 L305.323544,187.366405 C305.323544,186.89234 305.71054,186.507592 306.187376,186.507592 C306.664211,186.507592 307.051208,186.89234 307.051208,187.366405 L307.051208,192.519286 C307.051208,192.993351 306.664211,193.3781 306.187376,193.3781 M306.187376,203.683862 C305.71054,203.683862 305.323544,203.299114 305.323544,202.825048 L305.323544,197.672167 C305.323544,197.198102 305.71054,196.813354 306.187376,196.813354 C306.664211,196.813354 307.051208,197.198102 307.051208,197.672167 L307.051208,202.825048 C307.051208,203.299114 306.664211,203.683862 306.187376,203.683862 M306.187376,213.989624 C305.71054,213.989624 305.323544,213.604876 305.323544,213.130811 L305.323544,207.97793 C305.323544,207.503864 305.71054,207.119116 306.187376,207.119116 C306.664211,207.119116 307.051208,207.503864 307.051208,207.97793 L307.051208,213.130811 C307.051208,213.604876 306.664211,213.989624 306.187376,213.989624 M306.187376,224.295386 C305.71054,224.295386 305.323544,223.910638 305.323544,223.436573 L305.323544,218.283692 C305.323544,217.809627 305.71054,217.424878 306.187376,217.424878 C306.664211,217.424878 307.051208,217.809627 307.051208,218.283692 L307.051208,223.436573 C307.051208,223.910638 306.664211,224.295386 306.187376,224.295386 M306.187376,234.601148 C305.71054,234.601148 305.323544,234.2164 305.323544,233.742335 L305.323544,228.589454 C305.323544,228.115389 305.71054,227.73064 306.187376,227.73064 C306.664211,227.73064 307.051208,228.115389 307.051208,228.589454 L307.051208,233.742335 C307.051208,234.2164 306.664211,234.601148 306.187376,234.601148 M306.187376,244.906911 C305.71054,244.906911 305.323544,244.522162 305.323544,244.048097 L305.323544,238.895216 C305.323544,238.421151 305.71054,238.036402 306.187376,238.036402 C306.664211,238.036402 307.051208,238.421151 307.051208,238.895216 L307.051208,244.048097 C307.051208,244.522162 306.664211,244.906911 306.187376,244.906911 M306.187376,255.212673 C305.71054,255.212673 305.323544,254.827924 305.323544,254.353859 L305.323544,249.200978 C305.323544,248.726913 305.71054,248.342165 306.187376,248.342165 C306.664211,248.342165 307.051208,248.726913 307.051208,249.200978 L307.051208,254.353859 C307.051208,254.827924 306.664211,255.212673 306.187376,255.212673 M306.187376,265.518435 C305.71054,265.518435 305.323544,265.133686 305.323544,264.659621 L305.323544,259.50674 C305.323544,259.032675 305.71054,258.647927 306.187376,258.647927 C306.664211,258.647927 307.051208,259.032675 307.051208,259.50674 L307.051208,264.659621 C307.051208,265.133686 306.664211,265.518435 306.187376,265.518435" id="Fill-73" fill="#FF6A00"></path>
                </g>
            </g>
        </g>
    </g>
</svg>