<?xml version="1.0" encoding="UTF-8"?>
<svg width="493px" height="190px" viewBox="0 0 493 190" version="1.1" xmlns="http://www.w3.org/2000/svg" xmlns:xlink="http://www.w3.org/1999/xlink">
    <!-- Generator: Sketch 58 (84663) - https://sketch.com -->
    <title>card</title>
    <desc>Created with Sketch.</desc>
    <defs>
        <linearGradient x1="100%" y1="50%" x2="-2.22044605e-14%" y2="50%" id="linearGradient-1">
            <stop stop-color="#8F8F8F" offset="0%"></stop>
            <stop stop-color="#363636" offset="100%"></stop>
        </linearGradient>
    </defs>
    <g id="页面1" stroke="none" stroke-width="1" fill="none" fill-rule="evenodd">
        <g id="5-4-我的课程卡-空" transform="translate(-129.000000, -1112.000000)">
            <g id="购卡入口" transform="translate(32.000000, 160.000000)">
                <g id="矩形">
                    <g>
                        <g id="card" transform="translate(93.000000, 947.000000)">
                            <path d="M39.9936802,56.7274731 L459.951226,56.6698888 C470.99692,56.6616159 479.952453,65.614693 479.953968,76.6603879 C479.953968,76.6626411 479.953968,76.6648942 479.947209,76.667146 L479.908772,268.036197 L479.908772,268.036197 L19.9512262,268.099266 L19.9896633,76.7302151 C19.9986419,65.6871613 28.9506259,56.7357479 39.9936802,56.7274731 Z" id="矩形" fill="url(#linearGradient-1)" transform="translate(249.951226, 162.383206) scale(-1, 1) rotate(-345.000000) translate(-249.951226, -162.383206) "></path>
                            <g id="logo" transform="translate(370.522746, 81.911054) rotate(-15.000000) translate(-370.522746, -81.911054) translate(317.522746, 55.911054)" fill="#DDB173" fill-rule="nonzero">
                                <path d="M72.7791321,43.7887257 C73.1923161,44.1238177 73.493542,44.5767504 73.6426946,45.0872053 C73.734648,45.3469012 73.6426946,45.4347982 73.4028161,45.4547748 C73.2432801,45.4701402 73.0854134,45.4995534 72.9310551,45.5426719 C72.3913285,45.6785129 72.0235148,45.6825082 71.6077255,45.0872053 C70.7521589,43.8486555 68.4093457,44.3201035 67.8496292,45.7783959 C67.5052724,46.6810063 67.5167041,47.6806112 67.881613,48.5751211 C68.3162882,49.6498935 69.4819991,50.2349282 70.6042338,49.9415211 C70.9177327,49.8774921 71.2214946,49.7727235 71.5077761,49.629886 C72.0554986,49.3582041 72.1794359,49.0905176 72.0634946,48.487224 C72.0195169,48.263486 71.8795878,48.3074345 71.7476546,48.3074345 L70.4043351,48.3074345 C70.1884444,48.3074345 70.0645072,48.2515 70.0884951,48.0117807 C70.090496,47.9798494 70.090496,47.9478243 70.0884951,47.915893 C70.0630534,47.0006011 70.0607405,46.9173928 70.8144684,46.9098284 L73.5107614,46.9090719 C73.7546379,46.9090719 73.8465913,46.9729971 73.8425933,47.2286977 L73.8425933,49.9095585 C73.8421737,50.1207548 73.7210679,50.3131542 73.5307513,50.4049784 C72.8609801,50.8420254 72.1151238,51.1496564 71.3318652,51.3119164 C71.2479077,51.3119164 71.1319665,51.2919398 71.0959847,51.4197901 L69.0850034,51.3958182 C69.0450237,51.2519866 68.9090925,51.2719632 68.8091432,51.2479913 C67.0340424,50.784534 66.1225041,49.5779468 65.8546398,47.8200053 C65.5627877,45.9102415 66.4063603,44.0763889 68.04553,43.3891935 C69.6846996,42.7019982 71.2838895,42.7179795 72.7791321,43.7887257 Z M47.1241282,42.9776754 C47.5102143,43.0020479 47.8974547,43.0020479 48.2835409,42.9776754 C48.0916381,43.2853152 47.947711,43.5250345 47.79179,43.7767397 C46.992195,45.0112941 46.1926001,46.2458485 45.3930051,47.4724123 C45.1941232,47.7579195 45.0918548,48.0995215 45.101153,48.4472708 L45.101153,51.4157948 L43.3700299,51.3958182 L43.3700299,48.0916872 C43.3631118,47.8940033 43.2961814,47.7030996 43.1781271,47.5443281 L40.2556076,42.9936567 L42.2066193,42.9936567 C42.3945241,42.9936567 42.4385018,43.1934228 42.5144633,43.3252684 C43.1061636,44.2881409 43.6898679,45.2590041 44.309554,46.2858018 C44.8372866,45.4028357 45.3810112,44.5797994 45.8287844,43.704824 C46.014194,43.1697647 46.5704229,42.8575225 47.1241282,42.9776754 Z M59.030097,43.3931889 C60.5493274,44.0444263 61.1410276,45.3469012 61.1969993,46.9450298 C61.2529709,48.611079 60.769216,50.0374088 59.2459876,50.9043936 C58.9229512,51.0865803 58.5564169,51.1460307 58.2180283,51.2709404 L57.9706337,51.3798369 L56.0356139,51.3798369 C56.0036301,51.2559819 55.8876888,51.2799539 55.8037313,51.2559819 C53.956667,50.7086229 52.9611713,49.4421059 52.8892078,47.5123655 C52.8332361,46.0620637 53.1170923,44.711645 54.3484685,43.792721 C55.8037313,42.7219748 57.4309071,42.7099888 59.030097,43.3931889 Z M83.4297368,43.0376052 C83.7375808,43.2853152 83.8175403,43.8366696 83.9854552,44.2362017 C84.9156507,46.5241893 85.8485115,48.8121768 86.7840376,51.1001644 C86.8106907,51.1667531 86.8462283,51.2315661 86.8811735,51.291052 L86.9319626,51.3758416 L85.0129348,51.3758416 C84.7930461,50.8324778 84.5651616,50.2891141 84.3612649,49.741755 C84.3302572,49.5910803 84.204266,49.4826007 84.056699,49.4688256 L83.9814573,49.4700731 L81.0626094,49.4705158 C80.9509924,49.4731716 80.8481874,49.491762 80.8070653,49.6218954 C80.6278916,50.0482027 80.4718682,50.4837414 80.3396391,50.9266078 L80.2153651,51.3718463 L78.2963372,51.3718463 C79.3571332,48.7082985 80.4112658,46.0447507 81.4587352,43.3812029 C81.5786745,43.0655725 81.7265995,42.9177456 82.0784213,42.9537035 C82.5341904,43.0056427 83.1218927,42.7898953 83.4297368,43.0376052 Z M21.1572823,7.81484922 C21.2452377,7.8468118 21.3291952,7.93470887 21.4131527,7.93470887 C22.3366848,7.87078373 22.7404803,8.66185742 23.3481725,9.10933345 C23.576057,9.27713696 23.576057,10.2280235 23.41214,10.519682 C23.055696,11.2024503 22.5517831,11.7974644 21.9368874,12.2616423 C21.3891648,12.6531838 20.6975152,12.7450762 20.0578392,12.9368516 C19.3434026,13.1680625 18.6011541,13.3024386 17.8509572,13.3363838 C17.5764279,13.355345 17.3065951,13.4173654 17.0513622,13.5201686 C15.983903,13.8877382 14.8844599,14.1034856 13.7890149,14.3671768 C12.9014645,14.5829242 12.0458979,14.978461 11.1663434,15.2541382 C11.0926491,15.284769 11.0163912,15.3088344 10.9384589,15.326054 C10.5026796,15.3819885 10.3667485,15.6177125 10.3107768,16.0532025 C10.1548558,17.2997429 9.93096924,18.542288 9.71907658,19.7808377 C9.59114139,20.5119815 9.78704215,21.2431254 9.67909683,21.9742693 C9.57462823,23.1029475 9.58266366,24.2392074 9.70308468,25.3662974 C9.72307455,25.6939138 9.4632062,26.0135395 9.62712316,26.4130717 C10.0509085,25.9016705 10.6745925,25.8177688 11.1303617,25.4462038 C11.5148413,25.2170587 11.9473246,25.0802877 12.3937217,25.0466717 C13.1933166,24.8588915 13.9929116,24.6711114 14.6006037,24.0837991 C14.7423063,23.9780205 14.9089335,23.9105881 15.0843587,23.8880284 C16.3557146,23.5524214 17.5271212,22.9451325 18.7544995,22.517633 C20.1852747,22.0072307 21.0926275,21.0257549 21.9988326,19.985395 L22.3886585,19.5371231 C22.788456,19.0736657 23.2482231,18.7060961 23.6760064,18.2106763 C24.1037897,17.7152564 24.531573,17.2398131 24.9313704,16.7084353 C25.4311173,16.0372213 26.1587487,15.6097218 26.8184145,15.1103066 C26.9143659,15.052774 27.012876,15.0719515 27.1118978,15.0941975 L27.1862282,15.1103066 L28.2336976,15.3060774 C29.4539377,15.4694837 30.3522781,16.5295125 30.3126444,17.7592049 C30.3526242,19.1335956 30.2646687,20.5119815 30.3526242,21.8783816 C30.4068066,23.4937842 30.8733491,25.0685237 31.7079376,26.4530249 C32.0397695,26.9724167 32.4235751,27.1042623 33.075245,26.7686553 C33.6665542,26.4692041 34.2903294,26.2386275 34.9343032,26.08146 C35.1133092,26.0140788 35.2765901,25.9107361 35.4140602,25.7778155 C36.0234357,25.3131586 36.678468,24.9115649 37.3690698,24.579219 C37.8380015,24.3357032 38.2475009,23.991952 38.5684623,23.572398 C39.0522172,23.0170482 39.5799499,22.4936611 40.0996866,21.9622833 C41.8707894,20.1004634 43.5659307,18.1667277 45.412995,16.368833 C45.7768107,16.0132493 46.1366284,15.6696517 46.5364259,15.3300493 C47.3040371,14.6468493 48.2875388,14.3871534 49.207073,13.9876212 C49.5525672,13.9042657 49.9170913,13.9632995 50.2185606,14.1514294 C51.2503244,14.583419 51.8305037,15.6860338 51.6018599,16.7803511 C51.4684318,17.7532231 51.2571956,18.7138438 50.9701799,19.6529874 C50.8502406,19.9885944 50.6463439,20.2842482 50.5423966,20.6038739 C50.314512,21.287074 50.0786315,21.9423067 49.7907773,22.6015348 C49.5029232,23.2607629 49.362994,23.9479582 48.9911824,24.5991956 C48.6193707,25.2504331 48.7193201,26.0494974 48.2195733,26.6328144 C48.1260206,26.7495841 48.1260206,26.9155768 48.2195733,27.0323465 C48.7266883,26.6453876 49.1928781,26.2076206 49.6108685,25.7258764 C50.154593,25.0226997 50.7023156,24.3155278 51.5498862,23.9159956 C51.681873,23.8482543 51.7717097,23.7195738 51.7897647,23.572398 C51.911972,22.9756222 52.3245434,22.4793658 52.8892078,22.2499465 C53.2126536,22.0531435 53.4994387,21.8016971 53.7367784,21.5068166 C55.1400675,20.0884774 56.6233162,18.8219605 58.7382448,18.6821242 C59.6034079,18.5588455 60.463999,18.9347175 60.9611188,19.6529874 C61.6887502,20.6318412 62.0805517,21.7545266 62.6722519,22.7893149 C62.7145594,22.8547622 62.7367943,22.9311437 62.7362195,23.0090576 C62.5683046,24.0278646 63.3718975,24.5872097 63.8516545,25.274405 C64.1475046,25.6939138 65.1390024,25.4661804 65.4788302,25.0666483 C65.9228746,24.5065174 66.5039694,24.0702974 67.1659755,23.8001313 C67.8455562,23.5423927 68.450145,23.1194614 68.9250844,22.5695722 C69.4704333,21.9668769 70.0641052,21.4096767 70.7001852,20.9035231 C71.2599017,20.4280798 71.9435553,20.0924728 72.4592941,19.561095 C72.7313065,19.2071001 72.8851434,18.7766427 72.8990713,18.3305359 C73.0642474,17.4110035 73.2994798,16.5054257 73.6027149,15.6217078 C73.7506399,15.0983207 74.3143544,14.9105405 74.4023098,14.3272236 C74.4822693,13.8038364 74.9180486,13.3843277 75.2498805,12.9528329 C76.1815656,11.8366229 77.2177424,10.8118365 78.3443129,9.8924165 C78.5122278,9.73659895 78.7321164,9.76456621 78.9120253,9.66867849 C79.1685671,9.47515895 79.4067808,9.25850158 79.6236648,9.02143637 C80.8230572,8.09452174 82.1343929,7.70298022 83.6216395,8.17043285 C84.1733601,8.34622701 84.7490684,8.43412408 85.1488659,8.96949719 C85.3168978,9.17429005 85.432198,9.4170829 85.4846958,9.67666913 C85.6166289,10.4917148 85.920475,11.338723 85.5206775,12.1377873 C85.0729044,13.0327393 84.7250806,13.9636493 84.0374289,14.7627136 C82.7449398,16.3063243 81.2603235,17.6785153 79.6196668,18.8459324 C79.0999301,19.2174973 78.5961853,19.6489921 78.0204769,19.9686178 C77.6933372,20.1906297 77.4009675,20.4599161 77.1529164,20.7676821 C76.9969954,20.9115137 77.0489691,21.1232658 77.0969448,21.3110459 C77.6846471,23.7242202 79.9594947,24.7270459 82.0344436,23.7601781 C82.6473091,23.5358267 83.2343625,23.2465131 83.7855565,22.8971886 C83.8135423,22.877212 83.8415282,22.8452494 83.869514,22.8452494 C85.0129348,22.9411371 85.3407687,21.8104611 86.1403636,21.3430085 C87.1038755,20.7636868 87.7915272,19.7768424 88.9909196,19.5211418 C89.1268508,19.4931745 89.1908184,19.3733149 89.2747758,19.2774271 C89.7865166,18.6981055 90.5821136,18.5862365 91.1618199,18.1147885 C91.3200936,18.0356987 91.4973672,18.0024819 91.6735607,18.0189008 C92.2372751,17.9989242 92.4251799,18.2746014 92.2452711,18.8339464 C91.941293,19.5591745 91.4634953,20.1985594 90.8539758,20.6957663 C90.2329763,21.2424473 89.6530392,21.8340179 89.1188548,22.4656939 C88.3639981,23.2707763 87.5032315,23.969685 86.560151,24.5432611 C86.1688154,24.8168426 85.8034637,25.1257812 85.4687039,25.4661804 C84.4817264,26.42156 83.3288031,27.1892142 82.0664274,27.7315278 C81.2830783,28.104984 80.4082697,28.2437504 79.5477033,28.13106 C79.1319139,28.0671349 78.7241205,28.2788869 78.2843433,28.2469243 C77.7108006,28.2297745 77.1397291,28.1642852 76.5772081,28.0511536 C75.9153597,27.8940453 75.2976061,27.5894709 74.7701235,27.1601968 C73.5560705,26.1552278 72.7687934,24.7273609 72.5672394,23.1648751 C72.5587058,23.1056226 72.5466911,23.0469231 72.5312576,22.989081 C72.3273609,22.9810904 72.2274116,23.1289173 72.0954784,23.200833 C70.4882925,24.1037757 69.2049427,25.386274 67.9295887,26.6887489 C67.4698216,27.1522062 66.9181011,27.5357571 66.4743259,27.9952191 C66.028993,28.4883002 65.5161823,28.9160313 64.9510975,29.2657314 C64.0195694,29.7931138 63.0800454,30.4004027 61.9166347,30.1566881 C61.2580052,29.9931721 60.6719033,29.6167426 60.2494793,29.0859419 C59.5978094,28.3388167 58.9821213,27.559729 58.8501881,26.5249407 C58.8381942,26.4266558 58.7859007,26.3614521 58.7226687,26.305166 L58.5903197,26.1973243 C58.0621845,25.7328366 57.5752791,25.2235292 57.1350569,24.6751067 C56.8541589,24.2347755 56.2759453,24.0938414 55.8237212,24.355481 C55.3954165,24.5764066 54.9931281,24.8444209 54.6243288,25.1545454 C54.331709,25.4509328 53.9685223,25.6681502 53.5688635,25.7858062 C53.3849566,25.8137734 53.3089951,26.0095442 53.2130437,26.1533758 C52.8625783,26.6927228 52.3544882,27.1112004 51.7577809,27.3519723 C51.6229829,27.4001537 51.5068512,27.4896416 51.425949,27.6076729 C50.1465971,29.4015723 48.4874376,30.8678554 46.9122355,32.4020589 C46.7722484,32.5283456 46.6388087,32.6616968 46.5124381,32.8015911 C45.6608694,33.8124074 44.5534304,34.0840893 43.3140583,33.9722203 C42.6663864,33.9162858 42.5144633,33.5567069 42.4624897,32.8974788 C42.3025707,30.9797244 43.3180562,29.3616191 43.7178537,27.5837009 C43.9017606,26.7047302 44.3255459,25.8697079 44.5174487,25.0107138 C44.7093515,24.1517196 45.0771651,23.336674 45.1771145,22.4577032 C45.2028395,22.3381631 45.172373,22.2134326 45.0944276,22.1191812 C45.0164822,22.0249299 44.8996409,21.9715362 44.777317,21.9742693 C44.4589628,21.9384524 44.1375933,22.0071714 43.8617808,22.17004 C43.517955,22.3738015 43.1781271,22.5815582 42.8542912,22.8172822 C42.2690368,23.2251576 41.6450058,23.5744366 40.991235,23.8600611 C40.0237275,24.2326253 39.12416,24.7617492 38.3285838,25.4262272 C36.7733716,26.8845196 34.9422992,27.9992144 33.2471579,29.2817127 C32.5380719,29.773481 31.7496429,30.1397289 30.9163386,30.3644448 C29.7249422,30.763977 27.7379487,30.0448191 27.1942241,28.9980448 C26.9314816,28.4824893 26.7069909,27.9483425 26.5225644,27.3999161 C26.3626454,26.9244729 26.0308135,26.4969734 25.9308641,25.9775816 C25.890136,25.8571923 25.8567581,25.7344434 25.8309148,25.610012 C25.7389613,24.4313921 25.1272712,23.4685196 24.683496,22.4337313 C24.5395689,22.0501804 24.2836985,21.8663956 23.8839011,22.1101102 C23.8143697,22.1493609 23.7358743,22.1700038 23.6560165,22.17004 C22.6096133,22.152727 21.7914322,22.6395703 20.9750528,23.1884328 L20.5975658,23.4445477 C19.4541451,24.2236354 18.6945299,25.3503161 17.7310179,26.2892167 C16.8474655,27.1522062 15.9479212,28.0351723 14.7925065,28.5625548 C14.4586733,28.7128262 14.1623652,28.935251 13.924946,29.2137922 C13.650652,29.5288887 13.3281518,29.7985842 12.96943,30.0128565 C11.768607,30.7718812 10.5229647,31.457664 9.23931961,32.0664519 C8.84927075,32.219611 8.60788959,32.61241 8.64761935,33.0293244 C8.61563555,33.7924308 8.75156669,34.5755139 8.41973479,35.3106531 C8.37187334,35.4300817 8.36346833,35.5616728 8.39574694,35.6862133 C8.65939092,36.8155228 8.63464434,37.9929532 8.3237834,39.110204 C8.29579757,39.2180777 8.227832,39.3698999 8.2758077,39.4298297 C8.6236315,39.8813011 8.38775099,40.3407631 8.33177935,40.8002251 C8.23582795,41.619266 8.58764973,42.414335 8.45971454,43.2413666 C8.4505535,43.5264049 8.42384988,43.8106098 8.37975504,44.0923702 C8.22383403,44.6716918 8.41973479,45.2470181 8.41973479,45.8303351 C8.43844323,46.1461715 8.42907791,46.4630439 8.39174897,46.7772263 C8.27936379,47.5580419 8.22058947,48.345629 8.21583808,49.1344661 C8.14991377,49.7835315 8.04443796,50.4279747 7.89999808,51.0642065 C7.88208816,51.2125165 7.75760288,51.3249902 7.60814592,51.3278977 C7.45213006,51.3710569 7.2894012,51.3846087 7.12838895,51.3678509 C6.66234296,51.3370888 6.2657087,51.0174347 6.13689122,50.5687866 C5.9584567,50.124467 5.80365231,49.6710312 5.67312615,49.2103772 C5.00997975,47.1936818 4.51782516,45.1247967 4.20187145,43.0256193 C3.8367911,41.1151229 3.63483309,39.177078 3.59817726,37.2324028 C3.61432096,36.4582764 3.51185347,35.6862381 3.29433118,34.9430835 C3.23463433,34.7432783 3.22638341,34.5316451 3.27034333,34.3278039 C3.36229675,33.9762156 3.25035346,33.7884355 2.87054586,33.7404917 C2.49292358,33.6711256 2.11925325,33.581771 1.75111293,33.4728051 C1.36344096,33.3745935 1.00010437,33.1978054 0.68365368,32.9534133 C-0.0319837979,32.4300261 -0.14392709,31.7548168 0.283856206,30.9557524 C0.563262519,30.3986833 1.06358355,29.9841997 1.66315749,29.8130904 C2.06295496,29.6972261 2.43076864,29.521432 2.83056611,29.3736051 C3.13706909,29.2648466 3.35849386,28.9959325 3.40627447,28.6744238 C3.64831153,27.5380469 3.72372925,26.3725396 3.63016106,25.2144752 C3.55461631,23.7620519 3.64988656,22.3057867 3.91401727,20.8755558 C4.06194233,19.9126833 4.15389575,18.9458154 4.24185119,17.9749523 C4.26983702,17.6792985 4.1938755,17.6553265 3.93400714,17.7432236 C2.62267143,18.2106763 1.49924053,17.6992751 0.427783297,17.0120797 C0.161917977,16.8407803 0.128684812,16.5257118 0.0415024135,16.2462031 L1.42108547e-14,16.1291137 L1.42108547e-14,14.4990224 C0.159918989,14.4311019 0.159918989,14.2752844 0.203896711,14.1434388 C0.499460712,13.2146637 1.07125161,12.3979635 1.84306635,11.8021803 C2.25976543,11.4417421 2.69478987,11.1030216 3.14640612,10.7873686 C3.79407802,10.3878364 4.44974588,10.0242621 5.14939146,9.66867849 C5.84903704,9.31309486 6.48871299,8.88559544 7.36027149,8.82966093 C8.26240344,8.71111363 9.14533046,8.47609126 9.98694089,8.13047964 C11.9619404,7.45926559 14.0248954,7.52718606 16.0478706,7.28746676 C16.4916458,7.23552758 16.939419,7.19557436 17.3831941,7.15562114 C18.6748062,7.08922837 19.9647867,7.31455204 21.1572823,7.81484922 Z M54.8961911,45.8423211 C54.6179421,46.6491383 54.6025467,47.5232947 54.8522134,48.3393971 C55.1565178,49.339521 56.1000821,50.0066324 57.1450921,49.9604904 C58.1320459,49.9169118 58.9727175,49.2475832 59.2440764,48.3115114 L59.2859673,48.1436263 L59.2859673,48.1556123 C59.3694551,47.8349611 59.4058177,47.5038774 59.3939127,47.1727632 C59.4036563,46.7491352 59.3442404,46.3267524 59.2180018,45.9222275 C58.9403209,44.9849266 58.0647501,44.3528983 57.0870812,44.3840286 C56.1130229,44.3272726 55.2191797,44.9222293 54.8961911,45.8423211 Z M82.5341904,44.9993082 L81.4827231,47.8319913 C81.4450279,47.9347281 81.4425801,48.0227882 81.5509101,48.0458516 L81.6146562,48.0517339 L83.6896051,48.0517339 L82.5341904,44.9993082 Z M80.5551929,12.8929031 C79.2198916,13.799439 78.0850298,14.9702634 77.220882,16.3328751 C77.0746657,16.5803411 76.9706329,16.8503768 76.9130379,17.1319394 C76.8890501,17.2517991 76.9170359,17.4235979 77.0329772,17.3676634 C77.4447686,17.1758879 78.0244749,17.375654 78.2923392,16.9201874 C78.7720962,16.1011464 79.5437053,15.6137172 80.2553448,15.0623628 C80.8790289,14.5789288 80.9909722,13.8837429 81.170881,13.3283932 C81.1628851,12.705123 80.9549904,12.5852633 80.5551929,12.8929031 Z M32.8193746,7.97466209 C33.2191721,8.37419426 33.1871883,8.8416469 33.2831397,9.29711357 C33.3070959,9.46648972 33.3177896,9.6374758 33.3151235,9.80851475 C33.3471073,10.2280235 33.2631498,10.6395417 33.2791417,11.0630458 C33.3111255,12.0418996 32.7154273,12.693137 31.963808,13.2085335 C31.5302842,13.5653435 31.0152891,13.8096323 30.4645675,13.9197008 C30.2316508,13.9815734 29.9834233,13.9424056 29.7809138,13.8118271 C29.6474884,13.7240177 29.474562,13.7240177 29.3411366,13.8118271 C28.7511016,14.1117875 28.0293395,13.8954026 27.7019669,13.3204025 C27.53805,13.0686972 27.3901249,12.8010107 27.2262079,12.5453101 C26.5727869,11.624733 26.6667943,10.3698959 27.4500945,9.55680948 C27.953826,9.02071477 28.553083,8.58308685 29.2171994,8.26632057 C29.2611771,8.24634396 29.3171487,8.21038607 29.3531305,8.22237203 C29.8728672,8.4181428 30.1167437,7.95468548 30.4565715,7.74692875 C31.0642637,7.37935916 32.3236257,7.4792422 32.8193746,7.97466209 Z M100.369156,1.31451287e-13 C101.815306,-0.00957806041 103.205519,0.557819817 104.231496,1.57636596 C105.257474,2.59491211 105.834411,3.98042401 105.834411,5.42564685 C105.843197,8.43043429 103.413257,10.8736412 100.406477,10.8832201 C97.3996963,10.8927429 94.9542635,8.46502223 94.9439267,5.46023954 C94.9336552,2.45545686 97.3623804,0.0110437371 100.369156,1.31451287e-13 Z M103.707465,3.6836866 C102.775937,3.69167724 102.108275,4.41483047 102.108275,5.44961878 C102.072492,5.895149 102.225044,6.33529489 102.528916,6.66325875 C102.794804,6.95022712 103.155283,7.12835735 103.540876,7.16744619 L103.707465,7.17559775 L103.707465,7.19157904 C104.662981,7.16760711 105.306655,6.42048195 105.306655,5.40567024 C105.306655,4.39085854 104.638993,3.67569595 103.707465,3.6836866 Z M96.5590858,3.75160707 C96.4254392,3.7481825 96.3534757,3.78878802 96.3356421,3.90613166 L96.3312012,3.97134976 L96.3312012,6.88393927 C96.3312012,7.03576149 96.3911709,7.12765389 96.5430939,7.11966325 C96.6950169,7.11167261 96.7270007,7.02377553 96.7270007,6.89992056 C96.7270007,6.61225739 96.7549866,6.32459423 96.7270007,6.04092639 C96.6950169,5.66936148 96.8909177,5.64538955 97.1667779,5.70132405 C97.3832145,5.7602302 97.5664512,5.9044153 97.6745207,6.10085622 C97.833379,6.33836339 97.9801576,6.58372103 98.114298,6.83599541 C98.1470723,6.96265086 98.2398179,7.06524829 98.3625869,7.11065862 C98.4853559,7.15606894 98.6225938,7.1385388 98.7299861,7.06372875 C98.5003746,6.63619735 98.2311656,6.23143138 97.9260368,5.85468915 L97.6905126,5.57746908 L97.9263931,5.44562346 C98.2975611,5.25666072 98.480845,4.82984217 98.3621724,4.43081175 C98.2901165,4.04797965 97.9523236,3.77286107 97.5625774,3.77957432 C97.2347435,3.75160707 96.8949157,3.75160707 96.5590858,3.75160707 Z M100.36116,3.73562578 C100.181251,3.73562578 100.113285,3.82352286 100.057314,3.97534508 C99.7014939,4.92623164 99.3336803,5.8771182 98.9738625,6.82800477 C98.9378808,6.91989716 98.8339334,7.04375214 99.0138423,7.09569132 C99.1337815,7.12765389 99.2737106,7.15162582 99.3456742,6.99181295 C99.4176377,6.83200009 99.4736094,6.62823868 99.525583,6.50038839 C99.5775567,6.37253809 99.5975466,6.20073926 99.7854514,6.20073926 C100.185163,6.16937354 100.587031,6.17874424 100.984844,6.22870651 C101.260704,6.28863634 101.236716,6.6681919 101.344662,6.90391588 C101.383743,7.0474639 101.5259,7.1375527 101.672495,7.11167261 C101.780441,7.09968664 101.864398,7.08370535 101.804429,6.94386909 C101.776443,6.91190652 101.776443,6.87994395 101.776443,6.8519767 C101.404631,5.88910417 101.03282,4.92623164 100.673002,3.95536847 C100.637996,3.81495464 100.505263,3.72142235 100.36116,3.73562578 Z M103.759438,4.05125619 C104.459084,4.0712328 104.886867,4.58263398 104.886867,5.44162814 C104.886867,6.3006223 104.375126,6.82001412 103.687475,6.80802816 C102.999823,6.79604219 102.560046,6.25667376 102.560046,5.42564685 C102.560046,4.59461994 103.055795,4.03127958 103.759438,4.05125619 Z M100.349166,4.22705035 C100.473103,4.51870883 100.549065,4.70249363 100.609034,4.88627842 C100.993455,5.91584209 101.00824,5.95544069 99.9212283,5.80778701 L99.7854514,5.78922113 L100.349166,4.22705035 Z M97.1507861,4.1071907 C97.7264944,4.11917666 97.950381,4.3109521 97.950381,4.71048427 C97.950381,5.12599773 97.638539,5.34973574 97.0908164,5.3057872 C96.4151587,5.3057872 96.8069602,4.7903907 96.7309987,4.50672286 C96.6230534,4.1071907 96.8909177,4.06723748 97.1507861,4.1071907 Z" id="形状结合"></path>
                            </g>
                        </g>
                    </g>
                </g>
            </g>
        </g>
    </g>
</svg>