<?xml version="1.0" encoding="UTF-8"?>
<svg width="80px" height="80px" viewBox="0 0 80 80" version="1.1" xmlns="http://www.w3.org/2000/svg" xmlns:xlink="http://www.w3.org/1999/xlink">
    <title>changguan</title>
    <defs>
        <linearGradient x1="50%" y1="0%" x2="50%" y2="100%" id="linearGradient-1">
            <stop stop-color="#4D87FF" offset="0%"></stop>
            <stop stop-color="#1965FF" offset="100%"></stop>
        </linearGradient>
        <linearGradient x1="50%" y1="0%" x2="50%" y2="100%" id="linearGradient-2">
            <stop stop-color="#FE9247" offset="0%"></stop>
            <stop stop-color="#FF7517" offset="100%"></stop>
        </linearGradient>
        <linearGradient x1="50%" y1="0%" x2="50%" y2="100%" id="linearGradient-3">
            <stop stop-color="#FF7700" offset="0%"></stop>
            <stop stop-color="#FF8A34" offset="100%"></stop>
        </linearGradient>
    </defs>
    <g id="教培" stroke="none" stroke-width="1" fill="none" fill-rule="evenodd">
        <g id="加了金刚区" transform="translate(-71.000000, -525.000000)">
            <g id="金刚区" transform="translate(63.000000, 525.000000)">
                <g id="changguan" transform="translate(8.000000, 0.000000)">
                    <path d="M40,80 C69,80 80,68 80,40 C80,12 69,0 40,0 C11,0 0,12 0,40 C0,68 11,80 40,80 Z" id="椭圆形"></path>
                    <g id="编组-5" transform="translate(12.000000, 5.000000)">
                        <path d="M24.6180607,11.5533914 L50.6180607,1.98138333 C52.6911705,1.21815933 54.9904734,2.28003159 55.7536974,4.35314139 C55.9166154,4.79566817 56,5.26351706 56,5.73508068 L56,62 C56,64.209139 54.209139,66 52,66 L26,66 C23.790861,66 22,64.209139 22,62 L22,15.3070888 C22,13.6309021 23.0450863,12.1324885 24.6180607,11.5533914 Z" id="矩形" fill="url(#linearGradient-1)" transform="translate(39.000000, 33.000000) scale(-1, 1) translate(-39.000000, -33.000000) "></path>
                        <path d="M2.76871886,18.104238 L28.7687189,9.69247331 C30.870592,9.01245551 33.1257603,10.1650971 33.8057781,12.2669702 C33.9344638,12.6647261 34,13.0801967 34,13.4982514 L34,62 C34,64.209139 32.209139,66 30,66 L4,66 C1.790861,66 2.705415e-16,64.209139 0,62 L0,21.9100161 C1.56391005e-15,20.1752564 1.11819125,18.6382322 2.76871886,18.104238 Z" id="矩形" fill="url(#linearGradient-2)"></path>
                        <path d="M33.8057781,12.2669702 C33.9344638,12.6647261 34,13.0801967 34,13.4982514 L34,62 C34,64.209139 32.209139,66 30,66 L26,66 C23.790861,66 22,64.209139 22,62 L22,62 L22,11.8821724 L28.7687189,9.69247331 C30.870592,9.01245551 33.1257603,10.1650971 33.8057781,12.2669702 Z" id="形状结合" fill="url(#linearGradient-3)"></path>
                        <rect id="矩形备份" fill="#FFFFFF" x="8" y="24" width="18" height="3" rx="1.5"></rect>
                        <rect id="矩形备份" fill="#FFFFFF" x="8" y="35" width="18" height="3" rx="1.5"></rect>
                        <rect id="矩形备份-2" fill="#FFFFFF" x="8" y="46" width="18" height="3" rx="1.5"></rect>
                    </g>
                </g>
            </g>
        </g>
    </g>
</svg>