<?xml version="1.0" encoding="UTF-8"?>
<svg width="40px" height="40px" viewBox="0 0 40 40" version="1.1" xmlns="http://www.w3.org/2000/svg" xmlns:xlink="http://www.w3.org/1999/xlink">
    <!-- Generator: Sketch 63 (92445) - https://sketch.com -->
    <title>客服</title>
    <desc>Created with Sketch.</desc>
    <g id="页面-1" stroke="none" stroke-width="1" fill="none" fill-rule="evenodd">
        <g id="仅限课程卡220" transform="translate(-505.000000, -71.000000)" fill="#484F55" fill-rule="nonzero">
            <g id="客服" transform="translate(505.000000, 71.000000)">
                <rect id="矩形" opacity="0" x="0" y="0" width="40" height="40"></rect>
                <path d="M20,0.75 C23.9493796,0.75 27.6990182,2.00372089 30.8443439,4.37556302 C33.6432593,6.48715501 35.7976142,9.42074242 36.97673,12.7108391 L37.045,12.908 L37.1871171,12.9757118 C38.240083,13.512297 38.9896583,14.5207586 39.1945117,15.6920527 L39.2264793,15.913503 L39.2439709,16.1145075 L39.25,16.3224455 L39.25,21.2050687 C39.25,22.8172173 38.1984985,24.2561387 36.6696757,24.7699955 L36.534,24.811 L36.4822013,24.9310062 C34.172946,30.1147444 29.5479668,33.9152217 24.0428536,35.1761965 L23.615,35.268 L23.6058864,35.3030655 C23.1760418,36.7542042 21.9072672,37.8209762 20.3923011,37.979566 L20.1933494,37.9950582 L20,38 C17.9258222,38 16.2407227,36.3158079 16.2407227,34.2424778 C16.2407227,32.1691477 17.9258222,30.4849556 20,30.4849556 C21.3550111,30.4849556 22.5681395,31.203667 23.2300584,32.3214495 L23.3299315,32.5012112 L23.392,32.63 L23.7082568,32.5567122 C27.8543656,31.5308734 31.397732,28.8106058 33.4661699,25.082482 L33.6501223,24.7408043 L33.751,24.541 L33.7281835,24.5307851 C32.7054904,23.9903624 31.9770336,23.001033 31.7780348,21.8396727 L31.7469845,21.6199693 L31.7300031,21.4203066 L31.7241211,21.2123889 L31.7241211,16.3224455 C31.7241211,14.8480743 32.585196,13.5479425 33.8572578,12.9364394 L34.0417282,12.8538219 L34.185,12.798 L34.1350091,12.6783523 C31.8108976,7.31159002 26.5296497,3.65732513 20.6743602,3.39400065 L20.3359351,3.38258293 L19.9963379,3.37876111 C13.9888196,3.37876111 8.47960865,6.97012439 5.99509116,12.3709935 L5.85770542,12.6786236 L5.807,12.797 L5.97180112,12.8627547 C7.14138151,13.3579407 8.00074603,14.4257178 8.21647986,15.7063907 L8.24641879,15.9217457 L8.26294978,16.1196792 L8.26855469,16.3224455 L8.26855469,21.2123889 C8.26855469,23.285719 6.58345515,24.9699111 4.50927734,24.9699111 C4.25107706,24.9699111 3.99009661,24.9415133 3.72390533,24.885726 C2.13997983,24.5481591 0.949730232,23.2153847 0.772228579,21.6106969 L0.755360384,21.4087471 L0.75,21.2123889 L0.75,16.3224455 C0.75,14.974523 1.48565295,13.7419087 2.62666412,13.0772271 L2.81014425,12.9770631 L2.955,12.907 L3.02322121,12.7105535 C4.10409611,9.69153506 6.00451652,6.9749165 8.46963126,4.91942409 L8.80925951,4.64326125 L9.15574449,4.37549633 C12.3009818,2.00372089 16.0506204,0.75 20,0.75 Z M20,33.121037 C19.3788653,33.121037 18.8703613,33.6292671 18.8703613,34.2497981 C18.8703613,34.870329 19.3788653,35.3785592 20,35.3785592 C20.5797257,35.3785592 21.0613376,34.9358342 21.1229759,34.3722896 L21.1296387,34.2497981 L21.1264141,34.204829 C21.1009632,33.5968787 20.6062856,33.121037 20,33.121037 Z M26.5853202,23.087206 L26.6866442,23.1891505 L26.7750566,23.298769 C27.1631916,23.8362837 27.0910849,24.5926679 26.5844465,25.0439929 C24.4593251,26.9436554 22.2598537,27.8204568 20.0512695,27.8248183 C18.4107053,27.8248183 16.8618184,27.3450327 15.4424646,26.5355631 C14.6413629,26.078688 14.0037215,25.5932156 13.5447792,25.169826 L13.3433414,24.9763889 C12.8412096,24.4509106 12.8594809,23.6181865 13.3852316,23.1163355 C13.9108324,22.6146275 14.7435413,22.6328788 15.2437492,23.1563535 C15.8362142,23.7700319 16.8755236,24.506683 18.1989759,24.9144302 C20.3408708,25.5743343 22.566017,25.1132667 24.8289659,23.0881796 C25.3326472,22.6345573 26.09251,22.6426047 26.5853202,23.087206 Z M4.51293945,15.1936844 C4.43104561,15.1936844 4.35491792,15.2016612 4.27772797,15.219058 C3.8358778,15.3143077 3.49251658,15.6705762 3.40614548,16.0878346 L3.38908047,16.2029942 L3.38330078,16.3224455 L3.38330078,21.2123889 C3.38330078,21.7380261 3.76077877,22.2043376 4.28243729,22.3168154 C4.35491792,22.3331732 4.43104561,22.34115 4.51293945,22.34115 C5.05724871,22.34115 5.51823963,21.9524167 5.62003878,21.4496462 L5.63702914,21.3317229 L5.64257813,21.2123889 L5.64257813,16.3224455 C5.64257813,15.7019145 5.13407415,15.1936844 4.51293945,15.1936844 Z M35.4907227,15.1936844 C34.9476398,15.1936844 34.4856317,15.5841272 34.3836467,16.0860329 L34.3666296,16.203709 L34.361084,16.3224455 L34.361084,21.2123889 C34.361084,21.7549332 34.7517161,22.2166521 35.2540969,22.3185949 L35.3718877,22.3356067 L35.4630025,22.341919 L35.5394188,22.3377866 C35.6134725,22.3352344 35.6706077,22.3283126 35.7259341,22.3157764 C36.1677843,22.2205268 36.5111455,21.8642582 36.5975166,21.4469998 L36.6145816,21.3318402 L36.6203613,21.2123889 L36.6203613,16.3224455 C36.6203613,15.7968083 36.2428833,15.3304968 35.7212248,15.218019 C35.6487442,15.2016612 35.5726165,15.1936844 35.4907227,15.1936844 Z" id="形状结合"></path>
            </g>
        </g>
    </g>
</svg>