<?xml version="1.0" encoding="UTF-8"?>
<svg width="540px" height="400px" viewBox="0 0 540 400" version="1.1" xmlns="http://www.w3.org/2000/svg" xmlns:xlink="http://www.w3.org/1999/xlink">
    <!-- Generator: Sketch 56.3 (81716) - https://sketch.com -->
    <title>fail2</title>
    <desc>Created with Sketch.</desc>
    <defs>
        <path d="M0.593460025,144.672576 L162.289897,139.125426 C155.227596,92.2779938 146.799456,8.15787034 84.3588935,0.872550036 L84.3588935,0.872550036 C80.1933333,0.386820016 76.2337832,0.152458743 72.460083,0.152458743 L72.460083,0.152458743 C0.285390012,0.155610006 -1.85724008,86.1247836 0.593460025,144.672576 L0.593460025,144.672576 Z" id="path-1"></path>
        <polygon id="path-3" points="0.247479772 0.396279802 45.1382419 0.396279802 45.1382419 20.8603089 0.247479772 20.8603089"></polygon>
    </defs>
    <g id="页面1" stroke="none" stroke-width="1" fill="none" fill-rule="evenodd" opacity="0.604501">
        <g id="3-10-预约失败" transform="translate(-128.000000, -284.000000)">
            <g id="fail2" transform="translate(127.000000, 284.000000)">
                <g id="编组" transform="translate(3.140002, 144.384257)">
                    <path d="M123.21005,75.4126708 C82.8484684,-29.5799836 -12.5165255,-12.4143729 1.51231506,57.7273101 C7.0966353,85.6495412 45.6961069,178.108345 56.4256373,188.961356 C66.9630178,184.001995 123.21005,75.4126708 123.21005,75.4126708" id="Fill-3" fill="#ECE178"></path>
                    <path d="M306.1075,188.616431 L174.171004,186.40639 C174.171004,186.40639 170.448334,54.2399449 244.442467,57.9638751 C318.43597,61.6871752 313.5541,170.46676 306.1075,188.616431" id="Fill-5" fill="#3C505B"></path>
                    <polygon id="Fill-7" fill="#223941" points="296.277924 151.994907 243.790732 170.820568 249.077062 109.763485 278.768964 87.8823243 276.173993 84.3436142 249.581692 103.941655 252.438113 70.9466636 248.058352 70.5680336 242.453242 135.313136 213.529941 100.993885 210.181491 103.811245 241.360822 140.808627 242.025472 140.249186 237.949372 187.322158 242.329132 187.700158 243.374932 175.621798 297.755904 156.117627"></polygon>
                    <path d="M228.104109,183.98215 C228.104109,183.98215 235.05553,172.85698 253.936631,171.83323 C272.817731,170.80948 274.424861,167.44528 274.785221,159.702579 C275.144321,151.961769 257.925791,148.937139 257.925791,148.937139 C257.925791,148.937139 298.875792,138.697748 297.246612,124.736948 C295.618692,110.775517 276.304782,116.826038 276.304782,116.826038 C276.304782,116.826038 291.662922,96.9318967 285.961422,93.4416965 C280.260552,89.9502364 263.622881,113.916697 263.622881,113.916697 C263.622881,113.916697 252.450461,90.6470164 244.77202,95.7663966 C237.09421,100.886407 249.65578,136.951388 249.65578,136.951388 C249.65578,136.951388 237.08854,127.643768 229.177,131.367068 C221.266089,135.090998 228.104109,183.98215 228.104109,183.98215" id="Fill-9" fill="#8A9E59"></path>
                    <path d="M229.069711,190.515377 L67.3732738,196.062527 C64.7946837,134.454194 67.2964138,42.4817504 151.139337,52.2631308 C213.57927,59.5478211 222.00804,143.667945 229.069711,190.515377" id="Fill-11" fill="#8A9E59"></path>
                </g>
                <g id="编组" transform="translate(69.920005, 195.774271)">
                    <mask id="mask-2" fill="white">
                        <use xlink:href="#path-1"></use>
                    </mask>
                    <g id="Clip-14"></g>
                    <polygon id="Fill-13" fill="#56682C" mask="url(#mask-2)" points="104.470006 27.0351911 73.176015 50.1234321 72.588225 7.82901033 68.2078348 7.87941033 69.4363349 96.219274 23.596273 47.302922 20.4015428 50.3092821 69.5264249 102.729064 70.0764149 142.238256 74.4549151 142.187226 73.250355 55.5042623 107.063716 30.5562613"></polygon>
                </g>
                <g id="编组" transform="translate(324.709997, 313.584276)">
                    <path d="M60.8782616,33.8024624 C42.6025909,33.8024624 27.7887702,48.478943 27.7887702,66.5826238 C27.7887702,70.948524 28.6525003,75.1147141 30.2161603,78.9236943 C43.2174709,77.4438242 77.0875323,78.8606943 91.2763929,79.5511743 C93.007633,75.5739841 93.968383,71.189814 93.968383,66.5826238 C93.968383,48.478943 79.1545624,33.8024624 60.8782616,33.8024624" id="Fill-15" fill="#8A9E59"></path>
                    <polygon id="Fill-17" fill="#56682C" points="57.9934285 69.9628259 38.4886277 46.7832349 36.2622076 48.654335 57.9045985 74.3740861 57.8233285 78.3739563 60.7339286 78.4306563 61.0344386 63.5588756 77.1227493 50.0743551 75.2510192 47.837225 61.1125586 59.6875255 61.5604886 37.5430246 58.6498885 37.4850646"></polygon>
                    <path d="M8.08192842,76.9780652 C8.08192842,76.9780652 15.5814487,76.5143852 15.6583087,79.2970953 C15.7357987,82.0804354 12.4119186,82.0029454 8.23627843,82.1579254 C4.06252825,82.3129054 0.506178107,82.0029454 0.506178107,80.1482253 C0.506178107,78.2922453 8.08192842,76.9780652 8.08192842,76.9780652" id="Fill-19" fill="#8A9E59"></path>
                    <path d="M90.0256538,70.91274 C82.2968135,70.91274 76.0320933,74.1666901 76.0320933,78.1804203 C76.0320933,82.1935204 82.2968135,85.4474706 90.0256538,85.4474706 C97.7538642,85.4474706 104.019214,82.1935204 104.019214,78.1804203 C104.019214,74.1666901 97.7538642,70.91274 90.0256538,70.91274" id="Fill-21" fill="#ECE178"></path>
                    <path d="M126.694238,45.6377059 C126.694238,45.6377059 116.568248,45.0114859 116.463668,48.770066 C116.359718,52.5280162 120.849098,52.4234362 126.485708,52.6319662 C132.122319,52.8411262 136.924179,52.4234362 136.924179,49.9179261 C136.924179,47.412416 126.694238,45.6377059 126.694238,45.6377059" id="Fill-23" fill="#8A9E59"></path>
                    <g transform="translate(170.460025, 13.860001)">
                        <mask id="mask-4" fill="white">
                            <use xlink:href="#path-3"></use>
                        </mask>
                        <g id="Clip-26"></g>
                        <path d="M2.63144711,20.2334588 L45.0140689,20.8603089 C45.0140689,20.8603089 48.145799,0.0860580036 22.988008,0.399798017 C-2.17041309,0.71227803 -1.96188308,21.2773689 2.63144711,20.2334588" id="Fill-25" fill="#8A9E59" mask="url(#mask-4)"></path>
                    </g>
                    <path d="M186.557723,28.6646232 L141.252531,28.0377732 C141.252531,28.0377732 138.328701,-0.774018032 162.756322,0.269892011 C187.184573,1.31443205 186.557723,28.6646232 186.557723,28.6646232" id="Fill-27" fill="#3C505B"></path>
                    <polygon id="Fill-29" fill="#223941" points="150.837855 8.09027134 161.420596 14.4532716 161.564866 4.01606117 163.529836 4.03937117 163.326346 18.7347518 176.080696 9.89963141 177.198316 11.5181015 163.293586 21.1501719 163.193416 28.3391022 161.229076 28.3157922 161.389096 16.7294617 149.827965 9.77741141"></polygon>
                </g>
                <g id="编组" transform="translate(209.780011, 0.474263)">
                    <path d="M124.695842,220.786344 C193.157315,220.786344 248.994847,171.209122 248.994847,110.42231 C248.994847,49.6361271 193.157315,0.0589050025 124.695842,0.0589050025 C56.2337393,0.0589050025 0.396837017,49.6361271 0.396837017,110.42231 C0.396837017,171.209122 56.2337393,220.786344 124.695842,220.786344" id="Fill-39" fill="#FFF7A7"></path>
                    <g id="编组-3" transform="translate(15.735574, 0.058653)" fill="#FFB086">
                        <path d="M166.537546,208.189494 C157.212286,212.525154 147.192135,215.842104 136.662315,217.972134 C125.001014,214.612974 116.471444,203.864543 116.471444,191.123423 C116.471444,175.692832 128.981354,163.184182 144.414465,163.184182 C159.846946,163.184182 172.356226,175.692832 172.356226,191.123423 C172.356226,197.550053 170.185246,203.469533 166.537546,208.189494" id="Fill-41"></path>
                        <path d="M30.2557513,195.783911 C17.9965807,186.869411 7.69545032,175.91434 3.44613227e-13,163.5046 C1.87362008,163.06486 3.82599016,162.83176 5.83254024,162.83176 C19.9174508,162.83176 31.3362013,174.28075 31.3362013,188.402831 C31.3362013,190.969451 30.9575713,193.446611 30.2557513,195.783911" id="Fill-43"></path>
                        <path d="M227.986551,78.4891833 C231.411232,88.5811537 233.259022,99.2804441 233.259022,110.364035 C233.259022,116.744675 232.641622,122.996165 231.470452,129.080075 C218.109411,128.273675 207.522891,117.156695 207.522891,103.559404 C207.522891,91.1673038 216.316431,80.8340434 227.986551,78.4891833" id="Fill-45"></path>
                        <path d="M14.5352976,38.5970776 C28.7865282,23.829877 47.353889,12.4451465 68.5029899,5.98323625 C71.87601,11.0433965 73.8447601,17.1354967 73.8447601,23.690017 C73.8447601,41.2367777 59.7447295,55.4615483 42.3510588,55.4615483 C30.2985283,55.4615483 19.8291878,48.630458 14.5352976,38.5970776" id="Fill-47"></path>
                        <path d="M108.959009,3.55271368e-15 C123.686519,3.55271368e-15 137.81238,2.27997009 150.92142,6.45435027 C151.1835,7.89012033 151.32084,9.36558039 151.32084,10.8706505 C151.32084,25.4929511 138.4701,37.3470316 122.616149,37.3470316 C106.762828,37.3470316 93.9101979,25.4929511 93.9101979,10.8706505 C93.9101979,7.2204303 94.7115579,3.74220016 96.159928,0.578970024 C100.368328,0.197190008 104.638468,3.55271368e-15 108.959009,3.55271368e-15" id="Fill-49"></path>
                        <path d="M88.7535217,108.629519 C104.026612,108.629519 116.484863,96.061648 116.484863,80.6524774 C116.484863,65.2433067 104.026612,52.6748062 88.7535217,52.6748062 C73.4798011,52.6748062 61.0215505,65.2433067 61.0215505,80.6524774 C61.0215505,96.061648 73.4798011,108.629519 88.7535217,108.629519" id="Fill-51"></path>
                        <path d="M165.114565,93.6439599 C179.161675,93.6439599 190.617596,82.1571694 190.617596,68.0741488 C190.617596,53.9904982 179.161675,42.5030778 165.114565,42.5030778 C151.067454,42.5030778 139.612164,53.9904982 139.612164,68.0741488 C139.612164,82.1571694 151.067454,93.6439599 165.114565,93.6439599" id="Fill-53"></path>
                        <path d="M25.7605751,141.233532 C39.8064257,141.233532 51.2629761,129.746741 51.2629761,115.663091 C51.2629761,101.57944 39.8064257,90.0926498 25.7605751,90.0926498 C11.7134645,90.0926498 0.256914011,101.57944 0.256914011,115.663091 C0.256914011,129.746741 11.7134645,141.233532 25.7605751,141.233532" id="Fill-55"></path>
                        <path d="M89.9987167,179.347336 C104.045827,179.347336 115.501748,166.748596 115.501748,151.302255 C115.501748,135.856545 104.045827,123.257804 89.9987167,123.257804 C75.9516062,123.257804 64.4963157,135.856545 64.4963157,151.302255 C64.4963157,166.748596 75.9516062,179.347336 89.9987167,179.347336" id="Fill-57"></path>
                    </g>
                </g>
                <g id="编组-4" transform="translate(354.311158, 97.353262)">
                    <path d="M31.1491481,250.584096 L19.4418576,38.4971071 L16.0971875,23.4464065 L1.32431686,3.24230562 C1.32431686,3.24230562 -0.730743221,1.56902555 0.279146821,0.489205505 C1.28966686,-0.59061454 5.70659705,0.454555503 5.70659705,0.454555503 L52.874069,15.5732961 C52.874069,15.5732961 63.3245094,15.7118961 61.2694494,20.6246363 C59.2143893,25.5367465 61.7564394,29.2991067 61.7564394,29.2991067 L99.656611,112.90893 L125.295722,168.648813 C125.295722,168.648813 140.066703,196.797214 131.705972,220.208015 C123.345242,243.618186 108.853351,251.142906 97.7048709,250.307526 L31.1491481,250.584096 Z" id="Fill-59" fill="#FFCE88"></path>
                    <path d="M19.4418576,38.4967921 L16.0971875,23.4467215 L1.32431686,3.24199062 C1.32431686,3.24199062 -0.730743221,1.56871055 0.279146821,0.489520505 C1.28966686,-0.59092954 5.70659705,0.454240503 5.70659705,0.454240503 L52.874069,15.5736111 C52.874069,15.5736111 63.3245094,15.7115811 61.2694494,20.6249513 C59.2143893,25.5364315 61.7564394,29.2994217 61.7564394,29.2994217 L67.6979696,42.4072022 L67.6979696,42.4084622 L19.4418576,38.4967921 Z" id="Fill-61" fill="#E2CA99"></path>
                    <path d="M48.0975978,14.0421441 L52.874258,15.5736741 C52.874258,15.5736741 63.3246984,15.7116441 61.2690084,20.6250143 C59.2145783,25.5364945 61.7566284,29.2994847 61.7566284,29.2994847 L62.5384584,31.0256848 C54.1941081,29.9981547 47.7901578,24.0024445 47.7901578,16.7580742 C47.7901578,15.8294541 47.8966278,14.9216241 48.0975978,14.0421441" id="Fill-63" fill="#F5A739"></path>
                    <path d="M7.21960511,11.304353 L1.32469486,3.24224262 C1.32469486,3.24224262 -0.730365221,1.56896255 0.278894821,0.489142505 C1.28941486,-0.59067754 5.70697505,0.454492503 5.70697505,0.454492503 L15.1645354,3.48542263 C14.7682654,6.84206277 11.6686653,9.72998289 7.21960511,11.304353" id="Fill-65" fill="#F5A739"></path>
                </g>
                <g id="编组" transform="translate(0.530003, 187.584271)">
                    <path d="M11.0041827,137.233095 C15.9334734,137.233095 19.9236836,139.880775 22.9748132,145.176135 C22.9748132,145.176135 25.2037533,137.512185 34.8194437,137.233095 C44.4345041,136.955265 50.8441244,141.692865 50.8441244,141.692865 C50.8441244,141.692865 52.5167745,136.119885 58.2995447,136.119885 C64.0829449,136.119885 66.730205,141.413145 66.730205,141.413145 C66.730205,141.413145 69.2401251,137.233725 72.7939553,137.512185 C76.3477854,137.791275 80.2487456,141.275175 80.2487456,141.275175 C80.2487456,141.275175 81.8527257,134.794995 88.2629759,134.934225 C94.6725962,135.074085 101.222076,143.434815 101.222076,143.434815 C101.222076,143.434815 98.8551664,133.889055 102.756757,123.995534 C106.658347,114.102014 115.988647,100.640803 115.988647,100.640803 L165.213113,160.103986 L11.0041827,160.103986 C4.34610011,157.292094 0.932167935,153.503858 0.762386184,148.739276 C0.507713557,141.592403 8.07132199,137.233095 11.0041827,137.233095 Z" id="Fill-67" fill="#612F10"></path>
                    <polygon id="Fill-69" fill="#F5B898" points="259.380622 11.6207915 199.22298 124.099524 243.361611 127.898006 282.936323 17.8130617"></polygon>
                    <path d="M384.930303,160.353088 L181.486285,160.310878 C181.486285,160.310878 195.980695,118.550066 212.702786,106.844035 C229.424247,95.138005 260.748478,82.5140644 274.293479,85.1058845 L381.912603,105.694915 L384.930303,160.353088 Z" id="Fill-71" fill="#FFB246"></path>
                    <path d="M184.522318,160.311571 L157.876467,160.311571 L156.837597,151.61127 L115.989025,100.640488 C115.989025,100.640488 125.049055,94.3694679 133.896776,93.2543679 C142.745756,92.1392678 151.456137,95.064358 151.456137,95.064358 C151.456137,95.064358 155.567517,90.4647278 160.722807,90.2568278 C165.878727,90.0464077 170.373777,90.5000078 171.418947,94.0525779 C172.464117,97.6057781 169.189377,98.9999681 169.189377,98.9999681 C169.189377,98.9999681 180.824848,102.064288 185.145388,112.377389 C189.465298,122.688599 191.989078,134.98809 191.989078,134.98809 C191.989078,134.98809 201.241889,145.68234 206.675639,137.60007 C212.110019,129.517169 274.039022,20.0357648 274.039022,20.0357648 C274.039022,20.0357648 274.190852,14.4149046 274.190852,12.2546345 C274.190852,10.0956244 274.155572,8.97989437 274.852352,8.59685436 C275.549132,8.21444434 277.289822,8.10797434 278.091182,10.0590844 C278.891912,12.0101945 279.380162,13.6475646 279.380162,13.6475646 L284.222342,2.56964411 C284.222342,2.56964411 285.859082,-0.0769860032 287.497082,0.515214021 C289.133822,1.10615405 288.785432,2.2924441 288.157952,3.92918416 C287.531102,5.56718423 285.441392,11.9075045 285.441392,11.9075045 L289.899902,5.32274422 C289.899902,5.32274422 292.146482,3.77294416 293.330882,4.67888419 C294.514653,5.58482423 293.976003,7.88369433 293.626982,8.65040436 C293.278592,9.41648439 289.794692,14.6076846 289.794692,14.6076846 L294.497643,9.06809438 C294.497643,9.06809438 296.309523,7.2587343 297.458643,8.11175434 C298.608393,8.96414437 299.164053,10.0099444 297.631893,13.2153846 C296.099103,16.4208247 291.168092,26.9657651 291.168092,26.9657651 L255.525841,160.326061 L184.522318,160.311571 Z" id="Fill-73" fill="#FDC7AA"></path>
                    <path d="M152.715318,109.783553 C154.979538,109.783553 156.826698,108.711923 156.826698,107.397112 C156.826698,106.082302 154.979538,105.010042 152.715318,105.010042 C150.451098,105.010042 148.604567,106.082302 148.604567,107.397112 C148.604567,108.711923 150.451098,109.783553 152.715318,109.783553" id="Fill-75" fill="#612F10"></path>
                    <path d="M152.715318,109.783553 C154.979538,109.783553 156.826698,108.711923 156.826698,107.397112 C156.826698,106.082302 154.979538,105.010042 152.715318,105.010042 C150.451098,105.010042 148.604567,106.082302 148.604567,107.397112 C148.604567,108.711923 150.451098,109.783553 152.715318,109.783553 Z" id="Stroke-77" stroke="#612F10" stroke-width="0.567000024"></path>
                    <path d="M171.282804,114.033281 C171.282804,114.033281 173.930695,118.249241 166.336674,122.290061" id="Stroke-79" stroke="#612F10" stroke-width="1.17117005" stroke-linecap="round" stroke-linejoin="round" transform="translate(169.033219, 118.161671) scale(-1, -1) translate(-169.033219, -118.161671) "></path>
                </g>
                <g id="编组-2" transform="translate(59.664081, 344.027634)">
                    <path d="M51.4167867,40.9465435 L0.150534594,41.7038035 C0.150534594,41.7038035 -3.63765556,16.5762525 26.7926057,16.9542525 C57.224127,17.3335125 56.972127,42.2090635 51.4167867,40.9465435" id="Fill-33" fill="#8A9E59"></path>
                    <path d="M35.127506,34.3798012 L89.9280583,33.6219112 C89.9280583,33.6219112 93.4636185,-1.22843028 63.9166172,0.0334597739 C34.368986,1.29723983 35.127506,34.3798012 35.127506,34.3798012" id="Fill-35" fill="#3C505B"></path>
                    <polygon id="Fill-37" fill="#223941" points="78.3336008 9.49328817 65.5326303 17.1899985 65.3587503 4.56542796 62.9817602 4.59314796 63.2274602 22.3685987 47.8000196 11.6819083 46.4480395 13.6393183 63.2677802 25.2905388 63.3874802 33.9857992 65.7644703 33.9580792 65.5704303 19.9424686 79.5545409 11.5344883"></polygon>
                </g>
            </g>
        </g>
    </g>
</svg>