<?xml version="1.0" encoding="UTF-8"?>
<svg width="80px" height="80px" viewBox="0 0 80 80" version="1.1" xmlns="http://www.w3.org/2000/svg" xmlns:xlink="http://www.w3.org/1999/xlink">
    <title>jiaopei</title>
    <defs>
        <linearGradient x1="50%" y1="0%" x2="50%" y2="100%" id="linearGradient-1">
            <stop stop-color="#4D87FF" offset="0%"></stop>
            <stop stop-color="#1965FF" offset="100%"></stop>
        </linearGradient>
        <linearGradient x1="50%" y1="0%" x2="50%" y2="100%" id="linearGradient-2">
            <stop stop-color="#FE9247" offset="0%"></stop>
            <stop stop-color="#FF7517" offset="100%"></stop>
        </linearGradient>
        <linearGradient x1="50%" y1="0%" x2="50%" y2="100%" id="linearGradient-3">
            <stop stop-color="#FF7700" offset="0%"></stop>
            <stop stop-color="#FF8A34" offset="100%"></stop>
        </linearGradient>
    </defs>
    <g id="教培" stroke="none" stroke-width="1" fill="none" fill-rule="evenodd">
        <g id="加了金刚区" transform="translate(-599.000000, -525.000000)">
            <g id="金刚区" transform="translate(63.000000, 525.000000)">
                <g id="图标备份-5" transform="translate(528.000000, 0.000000)">
                    <g id="jiaopei" transform="translate(8.000000, 0.000000)">
                        <path d="M40,80 C69,80 80,68 80,40 C80,12 69,0 40,0 C11,0 0,12 0,40 C0,68 11,80 40,80 Z" id="椭圆形"></path>
                        <g id="认证" transform="translate(12.000000, 8.000000)">
                            <path d="M33.8785556,29.023373 C37.9033244,26.115064 40.5221809,21.387339 40.5221808,16.0462501 C40.5221808,7.21105543 33.361676,0.0505505792 24.5264813,0.0505505792 C15.6912866,0.0505505792 8.53078172,7.21105543 8.53078172,16.0462501 C8.53078172,21.387339 11.1496382,26.115064 15.1744071,29.023373 L15.1744071,29.9675397 C5.16761874,33.8475822 0.0208972926,43.895721 0.0208972926,55.6461164 C0.0208972926,58.0168707 2.41232671,59.9396626 5.36198613,59.9396626 L43.298148,59.9396626 C46.2478074,59.9396626 48.6392512,58.0168707 48.6392512,55.6461164 C48.6461286,44.047339 43.6854838,34.1094679 33.8785556,30.1191577 L33.8785556,29.023373 Z" id="路径" fill="url(#linearGradient-1)"></path>
                            <path d="M52.3933269,32.2403192 L48.4179918,31.9204896 C48.140785,31.8981925 47.8782462,31.7867508 47.6696437,31.602833 L44.6781024,28.9653658 C43.2373805,27.695182 41.0822732,27.6763496 39.6196203,28.9212222 L36.5824868,31.5060954 C36.3707044,31.6863417 36.1062598,31.7931812 35.8287063,31.8106337 L31.8483814,32.0610086 C29.9314965,32.1815684 28.3943187,33.6921475 28.2402789,35.6066582 L27.9204896,39.5819933 C27.8981925,39.8592001 27.7867508,40.1217389 27.602833,40.3303414 L24.9653658,43.3219229 C23.695182,44.7626448 23.6763496,46.9177119 24.9212222,48.380405 L27.5060954,51.4175385 C27.6863256,51.6292993 27.7931641,51.8937131 27.8106337,52.1712385 L28.0610086,56.1516037 C28.1815684,58.0685288 29.6921475,59.6057067 31.6066582,59.7597062 L35.5819933,60.0794955 C35.8592001,60.1017926 36.1217389,60.2132343 36.3303414,60.3971521 L39.3219229,63.0346193 C40.7626448,64.3048433 42.9177119,64.3236355 44.380405,63.0787629 L47.4175385,60.4939299 C47.6292993,60.3136997 47.8937131,60.2068612 48.1712385,60.1893916 L52.1516037,59.9390168 C54.0685288,59.8184167 55.6057067,58.3078377 55.7597062,56.3933269 L56.0794955,52.4179918 C56.1017926,52.140785 56.2132343,51.8782462 56.3971521,51.6696437 L59.0346193,48.6781024 C60.3048433,47.2373805 60.3236355,45.0822732 59.0787629,43.6196203 L56.4939299,40.5824868 C56.3136836,40.3707044 56.2068442,40.1062598 56.1893916,39.8287063 L55.9390168,35.8483814 C55.8184167,33.9314965 54.3078377,32.3943187 52.3933269,32.2402789 L52.3933269,32.2403192 Z" id="路径" fill="url(#linearGradient-2)"></path>
                            <path d="M36.6311516,31.4648968 C44.6131283,36.0801662 48.6454522,45.1879947 48.6392512,55.6461164 C48.6392512,58.0168707 46.2478074,59.9396626 43.298148,59.9396626 L43.298148,59.9396626 L33.842,59.9388968 L31.6066582,59.7597062 C29.7581651,59.611017 28.2862266,58.1728964 28.0783983,56.3485105 L28.0610086,56.1516037 L27.8106337,52.1712385 C27.7931641,51.8937131 27.6863256,51.6292993 27.5060954,51.4175385 L27.5060954,51.4175385 L24.9212222,48.380405 C23.6763496,46.9177119 23.695182,44.7626448 24.9653658,43.3219229 L24.9653658,43.3219229 L27.602833,40.3303414 C27.7867508,40.1217389 27.8981925,39.8592001 27.9204896,39.5819933 L27.9204896,39.5819933 L28.2402789,35.6066582 C28.3943187,33.6921475 29.9314965,32.1815684 31.8483814,32.0610086 L31.8483814,32.0610086 L35.8287063,31.8106337 C36.1062598,31.7931812 36.3707044,31.6863417 36.5824868,31.5060954 L36.5824868,31.5060954 Z" id="形状结合" fill="url(#linearGradient-3)"></path>
                            <path d="M49.6282882,42.3587971 C50.1136106,42.837665 50.1244717,43.6170541 49.6562778,44.1092629 L49.6419132,44.1240861 L42.2688438,51.62752 C41.8001051,52.1045935 41.0404531,52.125424 40.5464497,51.6782701 L40.5315401,51.6646171 L35.3960843,46.8650548 C34.8929327,46.3948467 34.865488,45.6049644 35.3347329,45.100819 C35.7992674,44.6017057 36.5764761,44.5697188 37.0801728,45.0253766 L37.0953549,45.0393416 L41.3442516,49.0102082 L47.866693,42.372489 C48.3445411,41.8861315 49.1223727,41.8752872 49.6135343,42.3444419 L49.6283272,42.3587971 L49.6282882,42.3587971 Z" id="路径" fill="#FFFFFF" fill-rule="nonzero"></path>
                        </g>
                    </g>
                </g>
            </g>
        </g>
    </g>
</svg>