<?xml version="1.0" encoding="UTF-8"?>
<svg width="80px" height="80px" viewBox="0 0 80 80" version="1.1" xmlns="http://www.w3.org/2000/svg" xmlns:xlink="http://www.w3.org/1999/xlink">
    <title>jiaolian</title>
    <defs>
        <linearGradient x1="50%" y1="0%" x2="50%" y2="100%" id="linearGradient-1">
            <stop stop-color="#4D87FF" offset="0%"></stop>
            <stop stop-color="#1965FF" offset="100%"></stop>
        </linearGradient>
        <linearGradient x1="50%" y1="0%" x2="50%" y2="100%" id="linearGradient-2">
            <stop stop-color="#FE9247" offset="0%"></stop>
            <stop stop-color="#FF7517" offset="100%"></stop>
        </linearGradient>
        <linearGradient x1="100%" y1="50%" x2="0%" y2="50%" id="linearGradient-3">
            <stop stop-color="#FF8A34" offset="0%"></stop>
            <stop stop-color="#FF7700" offset="100%"></stop>
        </linearGradient>
        <linearGradient x1="50%" y1="0%" x2="50%" y2="100%" id="linearGradient-4">
            <stop stop-color="#FE9247" offset="0%"></stop>
            <stop stop-color="#FF7517" offset="100%"></stop>
        </linearGradient>
    </defs>
    <g id="教培" stroke="none" stroke-width="1" fill="none" fill-rule="evenodd">
        <g id="加了金刚区" transform="translate(-247.000000, -525.000000)">
            <g id="金刚区" transform="translate(63.000000, 525.000000)">
                <g id="图标备份" transform="translate(176.000000, 0.000000)">
                    <g id="jiaolian" transform="translate(8.000000, 0.000000)">
                        <path d="M40,80 C69,80 80,68 80,40 C80,12 69,0 40,0 C11,0 0,12 0,40 C0,68 11,80 40,80 Z" id="椭圆形"></path>
                        <g id="编组-6" transform="translate(6.000000, 9.000000)">
                            <path d="M19.1931575,30.7975775 C25.6709892,30.7975775 30.9223093,36.0488976 30.9223093,42.5267293 L30.9223093,57.4987046 C30.9223093,58.6764922 29.9675239,59.6312777 28.7897363,59.6312777 C28.5173723,59.6312777 28.2475296,59.5791041 27.9947956,59.4775773 L20.1345213,56.3199958 C19.630643,56.1175809 19.068527,56.1150043 18.5628143,56.3127915 L10.3733451,59.5157407 C9.27646503,59.9447369 8.03949793,59.40331 7.61050174,58.30643 C7.51369106,58.0588993 7.4640057,57.7954526 7.4640057,57.5296637 L7.4640057,42.5267293 C7.4640057,36.0488976 12.7153258,30.7975775 19.1931575,30.7975775 Z" id="矩形" fill="url(#linearGradient-1)" transform="translate(19.193158, 45.725589) rotate(40.000000) translate(-19.193158, -45.725589) "></path>
                            <path d="M49.3918782,30.7975775 C55.8697099,30.7975775 61.12103,36.0488976 61.12103,42.5267293 L61.12103,57.4987046 C61.12103,58.6764922 60.1662445,59.6312777 58.988457,59.6312777 C58.716093,59.6312777 58.4462503,59.5791041 58.1935163,59.4775773 L50.333242,56.3199958 C49.8293637,56.1175809 49.2672477,56.1150043 48.761535,56.3127915 L40.5720658,59.5157407 C39.4751857,59.9447369 38.2382186,59.40331 37.8092224,58.30643 C37.7124117,58.0588993 37.6627264,57.7954526 37.6627264,57.5296637 L37.6627264,42.5267293 C37.6627264,36.0488976 42.9140465,30.7975775 49.3918782,30.7975775 Z" id="矩形" fill="url(#linearGradient-1)" transform="translate(49.391878, 45.725589) scale(-1, 1) rotate(40.000000) translate(-49.391878, -45.725589) "></path>
                            <circle id="椭圆形" fill="url(#linearGradient-2)" cx="34.4638668" cy="23.4583036" r="23.4583036"></circle>
                            <path d="M28.7886983,34.2900687 C32.5399863,37.4377732 33.8253543,42.4338169 32.4304902,46.8286018 C24.2620661,46.1281129 17.2900146,41.241302 13.6682719,34.3238491 C17.9472639,30.6907318 24.344769,30.5611693 28.7886983,34.2900687 Z" id="形状结合" fill="url(#linearGradient-3)"></path>
                            <path d="M39.7963374,34.2900687 C44.3225949,30.4920878 50.8754824,30.6968566 55.1520001,34.5279114 C51.4498026,41.4308612 44.3945774,46.2663659 36.1642776,46.855922 C34.754433,42.4542645 36.0373757,37.4442121 39.7963374,34.2900687 Z" id="形状结合" fill="url(#linearGradient-4)"></path>
                            <path d="M43.0250691,20.2283047 L33.6239762,28.6519682 C32.7709288,29.3861853 31.5091929,29.3861853 30.6561454,28.6519682 L25.4491129,23.978079 C25.078553,23.6412666 24.867288,23.1637488 24.867288,22.6629922 C24.867288,22.1622356 25.078553,21.6847178 25.4491129,21.3479055 C26.3018668,20.6311765 27.5464183,20.6311765 28.3991723,21.3479055 L32.1311751,24.7067081 L40.0394669,17.5981312 C40.8922208,16.8814022 42.1367723,16.8814022 42.9895263,17.5981312 C43.3542161,17.9345723 43.5616474,18.4081555 43.5616474,18.9043322 C43.5616474,19.4005089 43.3542161,19.8740921 42.9895263,20.2105332 L43.0250691,20.2283047 Z" id="路径" fill="#FFFFFF" fill-rule="nonzero"></path>
                        </g>
                    </g>
                </g>
            </g>
        </g>
    </g>
</svg>