<?xml version="1.0" encoding="UTF-8"?>
<svg width="80px" height="80px" viewBox="0 0 80 80" version="1.1" xmlns="http://www.w3.org/2000/svg" xmlns:xlink="http://www.w3.org/1999/xlink">
    <title>kecheng</title>
    <defs>
        <linearGradient x1="50%" y1="0%" x2="50%" y2="100%" id="linearGradient-1">
            <stop stop-color="#4D87FF" offset="0%"></stop>
            <stop stop-color="#1965FF" offset="100%"></stop>
        </linearGradient>
        <linearGradient x1="50%" y1="0%" x2="50%" y2="100%" id="linearGradient-2">
            <stop stop-color="#FE9247" offset="0%"></stop>
            <stop stop-color="#FF7517" offset="100%"></stop>
        </linearGradient>
    </defs>
    <g id="教培" stroke="none" stroke-width="1" fill="none" fill-rule="evenodd">
        <g id="加了金刚区" transform="translate(-423.000000, -525.000000)">
            <g id="金刚区" transform="translate(63.000000, 525.000000)">
                <g id="图标备份-3" transform="translate(352.000000, 0.000000)">
                    <g id="kecheng" transform="translate(8.000000, 0.000000)">
                        <path d="M40,80 C69,80 80,68 80,40 C80,12 69,0 40,0 C11,0 0,12 0,40 C0,68 11,80 40,80 Z" id="椭圆形"></path>
                        <g id="编组-4" transform="translate(8.000000, 15.000000)">
                            <path d="M17.1162791,0 L6.48504983,0 C2.9012823,0 0,2.86298171 0,6.38990182 L0,42.058906 C0,45.5858261 2.9012823,48.4488079 6.48504983,48.4488079 L19.2425249,48.4488079 C20.8360649,48.4488079 22.3491395,48.8990643 24.5698995,49.9433897 L27.7096936,51.4695582 C29.7847745,52.4516665 30.4548013,52.6235172 31.701229,52.6430565 L32,52.6451613 C33.7612383,52.6451613 34.2761505,52.4712482 37.9757281,50.6521018 L38.6625554,50.313698 C41.3156151,49.00468 42.9868751,48.4488079 44.7574751,48.4488079 L57.5149502,48.4488079 C61.0987177,48.4488079 64,45.5858261 64,42.058906 L64,6.38990182 C64,2.86298171 61.0987177,0 57.5149502,0 L46.8837209,0 L46.1240841,0.0164079438 C40.3303138,0.26713927 35.2502877,3.37170936 32.343962,7.96982971 L32,8.53582796 L31.657265,7.96913406 C28.6269857,3.17052582 23.2276602,0 17.1162791,0 Z" id="路径" fill="url(#linearGradient-1)"></path>
                            <rect id="矩形" fill="#FFFFFF" x="6.19354839" y="12.3870968" width="16.516129" height="3.09677419" rx="1.5483871"></rect>
                            <rect id="矩形备份-2" fill="#FFFFFF" x="6.19354839" y="21.6774194" width="16.516129" height="3.09677419" rx="1.5483871"></rect>
                            <rect id="矩形备份-3" fill="#FFFFFF" x="6.19354839" y="30.9677419" width="10.3225806" height="3.09677419" rx="1.5483871"></rect>
                            <path d="M28.9036187,4.6406086 C29.8255869,5.50381708 30.6506037,6.46771779 31.3602487,7.51516367 L31.657265,7.96913406 L32,8.53582796 L32.343962,7.96982971 C33.1167804,6.74714771 34.0432961,5.63007113 35.0960592,4.64417585 L35.0952789,28.2703248 C35.0952224,29.9797802 33.7094192,31.3655376 31.9999639,31.3655376 C30.2905038,31.3655376 28.9046923,29.9797849 28.9046199,28.2703248 L28.9036187,4.6406086 L28.9036187,4.6406086 Z" id="路径" fill="#0155FE"></path>
                            <path d="M45.4193548,0 L57.8064516,0 L57.8064516,22.7249474 C57.8064516,23.2950478 57.3442939,23.7572054 56.7741935,23.7572054 C56.5529452,23.7572054 56.3375508,23.6861189 56.1597651,23.5544258 L52.2273317,20.6415121 C51.8623283,20.3711392 51.3634782,20.3711392 50.9984748,20.6415121 L47.0660413,23.5544258 C46.6079331,23.8937652 45.961474,23.7974841 45.6221345,23.3393758 C45.4904414,23.1615901 45.4193548,22.9461957 45.4193548,22.7249474 L45.4193548,0 L45.4193548,0 Z" id="矩形" fill="url(#linearGradient-2)"></path>
                        </g>
                    </g>
                </g>
            </g>
        </g>
    </g>
</svg>