<?xml version="1.0" encoding="utf-8"?>
<!-- Generator: Adobe Illustrator 23.0.3, SVG Export Plug-In . SVG Version: 6.00 Build 0)  -->
<svg version="1.1" id="图层_1" xmlns="http://www.w3.org/2000/svg" xmlns:xlink="http://www.w3.org/1999/xlink" x="0px" y="0px"
	 viewBox="0 0 264.7 128.6" style="enable-background:new 0 0 264.7 128.6;" xml:space="preserve">
<style type="text/css">
	.st0{fill:#cccccc;}
	.st1{fill:#cccccc;}
	.st2{fill:#cccccc;}
</style>
<title>资源 1</title>
<g>
	<g id="图层_1-2">
		<path class="st0" d="M172.8,128.6c-0.1-0.4-0.4-0.3-0.7-0.4c-4.4-1.2-6.7-4.2-7.4-8.6c-0.7-4.8,1.4-9.4,5.5-11.1s8.1-1.7,11.8,1
			c1,0.8,1.8,2,2.2,3.2c0.2,0.7,0,0.9-0.6,0.9c-0.4,0-0.8,0.1-1.2,0.2c-1.4,0.3-2.3,0.3-3.3-1.1c-2.1-3.1-8-1.9-9.4,1.7
			c-0.9,2.3-0.8,4.8,0.1,7c1.1,2.7,4,4.2,6.8,3.4c0.8-0.2,1.5-0.4,2.3-0.8c1.4-0.7,1.7-1.3,1.4-2.9c-0.1-0.6-0.5-0.4-0.8-0.4
			c-1.1,0-2.2,0-3.4,0c-0.5,0-0.9-0.1-0.8-0.7c0-0.1,0-0.2,0-0.2c-0.1-2.5-0.1-2.5,2.4-2.5c2,0,4.1,0,6.1,0c0.6,0,0.8,0.2,0.8,0.8
			c0,2.2,0,4.5,0,6.7c0,0.5-0.3,1-0.8,1.2c-1.7,1.1-3.5,1.9-5.5,2.3c-0.2,0-0.5-0.1-0.6,0.3L172.8,128.6z"/>
		<path class="st0" d="M108.5,128.6c0-2.8,0-5.5,0-8.3c0-0.5-0.2-1-0.5-1.4l-7.3-11.4c1.8,0,3.3,0,4.9,0c0.5,0,0.6,0.5,0.8,0.8
			c1.5,2.4,2.9,4.8,4.5,7.4c1.3-2.2,2.7-4.3,3.8-6.5c0.5-1.3,1.9-2.1,3.2-1.8c1,0.1,1.9,0.1,2.9,0c-0.5,0.8-0.8,1.4-1.2,2
			c-2,3.1-4,6.2-6,9.2c-0.5,0.7-0.8,1.6-0.7,2.4c0,2.5,0,5,0,7.4L108.5,128.6z"/>
		<path class="st1" d="M83.3,24.5c0.1,1-0.1,2.1-0.1,3.1c0.1,2.5-1.4,4.1-3.3,5.4c-1.1,0.9-2.4,1.5-3.8,1.8
			c-0.6,0.2-1.2,0.1-1.7-0.3c-0.3-0.2-0.8-0.2-1.1,0c-1.5,0.8-3.3,0.2-4.1-1.2c-0.4-0.6-0.8-1.3-1.2-1.9c-1.6-2.3-1.4-5.4,0.6-7.5
			c1.3-1.3,2.8-2.4,4.4-3.2c0.1,0,0.2-0.1,0.3-0.1c1.3,0.5,1.9-0.7,2.8-1.2c1.5-0.9,4.7-0.7,5.9,0.6c1,1,0.9,2.2,1.2,3.3
			C83.3,23.7,83.3,24.1,83.3,24.5z"/>
		<path class="st2" d="M229.3,45.1c-0.4,0-0.9,0-1.3,0.2c-1.4,1.2-3.4,1.5-4.7,2.9c-0.2,0.2-0.4,0.5-0.7,0.6c-3,0.6-4.7,3.1-7.1,4.6
			c-2,1.2-2.8,4-5.7,3.8c-0.1,0-0.1,0.1-0.2,0.1c-1.4,0.9-2.8,1.6-4.4,2.2c-5.2,2.4-10.9-0.1-12.4-6.1c-0.1-0.5-0.2-1,0.1-1.4
			c0.6-0.8,1.4-1.4,2.2-2c1.4-0.8,2.7-1.9,4-2.8c4.1-2.9,7.8-6.4,11.1-10.2c1.7-2,2.6-4.3,3.7-6.6c1-2,0.2-4.1-0.1-6.2
			c-0.1-0.6-0.4-1.3-0.8-1.8c-1-1.3-2.4-1.6-3.8-2c-3.7-1.2-7-0.2-10,2.1c-0.5,0.6-1.1,1.1-1.8,1.6c-0.4,0.2-1,0.2-1.4,0.6
			c-2.8,2.3-5.4,4.9-7.7,7.7c-0.8,1.1-1.9,2.1-2.1,3.4c-0.2,1.5-1.6,1.9-2,3.2c-0.8,2.2-1.3,4.5-1.8,6.8c0,1.1-0.4,2.2-1.1,3.1
			c-1.3,1.3-3,2.2-4.4,3.4c-1.6,1.3-3.1,2.7-4.4,4.2c-1.2,1.4-2.7,2.4-4.4,3.1c-1.7,0.7-3.1,1.8-4.2,3.2c-0.9,1-3.3,1.6-4.1,0.5
			c-1.2-1.7-3.2-3.1-2.8-5.7c0-0.2-0.1-0.4-0.2-0.5c-1.5-2.6-2.5-5.4-4.3-7.8c-1.2-1.8-3.4-2.7-5.6-2.4c-5.3,0.3-9,3.5-12.5,7.1
			c-0.6,0.7-1.3,1.4-2.1,1.9c-1.4,0.6-2.4,1.8-2.8,3.3c0,0.4-0.3,0.7-0.6,0.9c-2.1,1-3.5,2.8-4.8,4.5c-1,1.2-2.2,2.3-3.5,3.3
			c-0.2-0.3-0.2-0.7,0-1c1.2-1.5,1-3.5,1.9-5.1s1.3-3.3,2-5s1.3-3.3,1.9-5c0.3-0.8,0.8-1.5,1.1-2.4c0.7-2.4,1.2-4.8,1.6-7.2
			c0.6-2.7-0.9-5.5-3.5-6.6c-0.8-0.5-1.7-0.6-2.5-0.4c-2.3,1-4.8,1.7-6.7,3.4c-1,0.8-1.9,1.7-2.8,2.6c-4.6,4.5-8.9,9.3-13.3,14
			c-1.3,1.3-2.6,2.6-3.8,4c-0.8,1.1-1.8,1.9-3,2.5c-1.7,0.8-3.4,1.8-4.9,3c-0.3,0.3-0.8,0.6-1.2,0.8c-1.6,0.4-3.2,1-4.7,1.7
			c-1.6,0.8-2.6,0.5-3.4-0.8c-2.1-3.5-3.3-7.4-3.4-11.5c-0.2-3.4,0-6.9-0.1-10.3c0.1-3.1-2.1-5.7-5.2-6.1L68,37.8
			c-0.3-0.1-0.6-0.2-0.9,0c-1.7,1.2-3.5,2.3-4.7,4c-1,1.3-2.1,2.5-3.1,3.8S57,47.7,56,48.9c-2.6,3-5,6-9.1,7.5
			c-3.1,1.1-6,2.6-9.2,3.4c-0.4,0.1-0.9,0.2-1.2,0.5C35,61.8,33,62.2,31,62.7c-1.1,0.1-2.2,0.4-3.2,1c-1.1,0.9-2.7,1.1-3.8,2.4
			c-0.4-1,0.2-1.8,0.2-2.6c-0.3-2.8-0.3-5.7-0.1-8.5c0.3-1.8-0.2-3.7,0.1-5.5c0.5-3.1,1.1-6.2,1.5-9.3c0.1-1.1,0.5-1.7,1.6-1.8
			c0.2,0,0.4-0.1,0.6-0.2c2.2-0.7,4.3-1.7,6.6-2.2c2.7-0.7,5.5-1.2,8.2-2.1c0.6-0.3,1.3-0.4,2-0.5c1.9-0.1,3.7-0.4,5.5-1
			c1.6-0.5,3.3-0.7,4.7-1.7c1.5-1.2,2.8-2.7,3.7-4.4c0.4-0.7,0.4-3.1-0.2-3.5c-1.5-1.1-2.5-3.1-4.8-2.9c-0.2,0-0.4-0.2-0.6-0.3
			c-3-1.3-6.2-1.8-9.4-1.6c-1.1,0.1-2.2,0.2-3.3,0.3c-5.1,0.6-10.2,0.4-15.2,2.1c-2.1,0.9-4.3,1.5-6.6,1.8c-2.2,0.1-3.8,1.2-5.5,2.1
			S9.5,26,7.9,27c-1.1,0.8-2.2,1.6-3.3,2.5c-1.9,1.5-3.4,3.5-4.1,5.9c-0.1,0.3-0.1,0.7-0.5,0.9v4.1c0.3,0.8,0.3,1.7,1.1,2.2
			c2.7,1.7,5.5,3,8.8,1.8c0.6-0.2,0.8-0.2,0.8,0.6c-0.2,2.4-0.4,4.8-0.8,7.3c-0.7,3.6-0.9,7.2-0.7,10.9c0.2,2.9,0,5.8-0.6,8.7
			c-0.1,0.8-0.7,1.5-1.4,1.8c-1,0.4-1.9,0.8-2.9,1.1c-1.5,0.4-2.8,1.5-3.5,2.9c-1.1,2-0.8,3.7,1,5c0.8,0.6,1.7,1.1,2.7,1.3
			c0.9,0.3,1.9,0.5,2.8,0.7c0.9,0.1,1.2,0.6,1,1.5c-0.1,0.5-0.1,1,0.1,1.5C8.8,89.3,9,91.3,9,93.2c0.1,4.9,0.6,9.7,1.5,14.5
			c0.8,5.3,2,10.4,3.7,15.5c0.3,1.2,0.7,2.3,1.2,3.4c0.3,1.1,1.3,1.9,2.5,2c0.4,0,0.8,0,1.2-0.1c0.4,0,0.7-0.3,0.7-0.7
			c0.4-1.6,0.6-3.2,0.8-4.8c0-2,0.2-3.9,0.4-5.9c0.1-0.8,0.1-1.6,0.1-2.4c0-1.5-0.5-2.9-0.1-4.3c0.1-0.7,0.2-1.4,0.2-2.1
			c0.3-2.1-0.6-4.1-0.3-6.1c0.1-1.2,0.7-2.3-0.1-3.4c-0.1-0.2,0-0.5,0.1-0.8c0.8-2.8,0.8-5.7,0.2-8.6c-0.1-0.3-0.1-0.6,0.1-0.9
			c0.8-1.8,0.5-3.8,0.6-5.7c-0.1-1,0.5-2,1.5-2.4c3.2-1.5,6.3-3.2,9.3-5.1c0.9-0.5,1.7-1.2,2.4-2c0.6-0.7,1.3-1.3,2.2-1.6
			c2.9-1.3,5.1-3.5,7.3-5.7c2.4-2.3,4.3-5.2,7.2-7.1c2.4-1.6,4.6-3.2,7.7-3.2c0.2,0,0.4-0.1,0.6-0.2c1-0.6,1.6-0.2,2,0.8
			c1.1,2.6,2.6,5,2.9,8c0.1,0.3,0.1,0.6,0.2,0.9c0.2,1.3,1.1,2.4,1.5,3.6c0.5,1.4,1,2.7,1.7,4c1.4,2.6,6.3,4.4,9.3,3.4
			c2.1-0.6,4.1-1.5,5.8-2.7c4.2-3.2,8.8-6,12.7-9.7c2-1.7,4.2-3,6.7-3.9c1.6-0.7,3.2-1.6,4.7-2.6c0.8-0.6,1.7-1.1,2.5-1.6
			c0.7-0.4,1.5-0.6,2.3-0.5c0.6,0,1,0.4,1,1c0,0.1,0,0.2,0,0.2c-0.2,2.2-1.2,4.2-1.7,6.4s-1.5,4.2-2,6.4c-1,4.4-3.5,8.5-3.1,13.3
			c0.1,1.7,0.5,2.6,2.1,2.7c3.1,0.3,5.9-0.4,8-2.9c0.3-0.4,0.6-0.7,1-1c3.9-3.8,8.1-7.5,11.3-12c0.2-0.3,0.5-0.5,0.8-0.6
			c1.5-0.6,2.8-1.7,3.6-3c0.2-0.4,0.4-0.8,0.9-0.9c1-0.3,1.9-0.8,2.6-1.6c0.9-0.8,1.9-1.4,3-2c1.1-0.7,2.6-0.3,3.3,0.8
			c1.1,1.4,2.3,2.6,3.6,3.8c0.3,0.2,0.6,0.4,0.6,0.8c0.3,2.6,1.9,4.5,3.5,6.4c1.1,1.3,2.5,2.3,4.2,2.7c2.9,0.6,5.3-0.9,7.6-2.2
			c1.4-0.9,2.7-1.9,3.8-3.2c1.1-1.2,2.5-2.1,3.6-3.3c3.2-3.3,6.4-6.5,10.4-8.7c0.3-0.2,0.6-0.5,1.1-0.5c0,0.1,0.1,0.3,0.1,0.4
			c0.5,3.9,2.5,7.5,5.5,10c1.3,1.1,2.9,1.8,4.5,2.2c1.4,0.3,2.8,0.4,4.3,0.5c1.1,0.1,2.1-0.4,3.2-0.3c2.2,0.3,4.3-0.1,6.3-1
			c3.2-1.4,6-3.3,8.5-5.7c0.8-0.9,1.8-1.6,2.7-2.3c2.4-1.4,4.5-3.2,6.4-5.2c1.3-1.6,2.8-3.1,4.3-4.4c1.5-1.2,2.7-2.8,3.5-4.7
			C231.2,45.7,230.7,45,229.3,45.1z M192.4,42.9c0.1-0.7,0.4-1.4,0.8-2c2.2-3.4,5-6.3,8.3-8.6c1-0.8,1.5-0.5,1.5,1.1
			c-0.4,1.4-0.7,3.1-2.3,4.3c-1.8,1.4-3.7,2.6-4.9,4.7c-0.7,1.1-2.1,0.6-3.1,1.1C192.4,43.6,192.3,43.2,192.4,42.9z"/>
		<path class="st0" d="M153.1,117.5c-0.1-4-1.6-7.3-5.4-8.9c-4-1.7-8.1-1.7-11.7,1c-3.1,2.3-3.8,5.7-3.6,9.3c0.2,4.8,2.7,8,7.3,9.4
			c0.2,0.1,0.5,0,0.6,0.3h4.8c1-0.5,2.2-0.6,3.2-1.2C152,125.2,153.2,121.7,153.1,117.5z M148.3,120.5c-0.7,3.1-3.7,5.1-6.8,4.4
			c-2-0.4-3.7-1.9-4.3-3.9c-0.6-2-0.6-4.2,0.1-6.2c0.8-2.3,3-3.8,5.5-3.7c2.4-0.1,4.6,1.5,5.3,3.8c0.3,1,0.5,2.1,0.4,3.1
			C148.6,118.9,148.5,119.7,148.3,120.5L148.3,120.5z"/>
		<path class="st0" d="M217.1,127.9c-2.3-5.7-4.7-11.5-7-17.2c-0.4-1-0.6-2.4-1.4-3s-2.2-0.1-3.4-0.2c-0.9-0.1-1.2,0.3-1.6,1.1
			c-2.6,6.7-5.3,13.3-7.9,20h4.8c0.4-1.5,0.9-3,1.5-4.4c0.1-0.4,0.4-0.4,0.8-0.4c2.4,0,4.8,0,7.2,0c0.4-0.1,0.9,0.2,0.9,0.7
			c0.5,1.4,1.1,2.7,1.6,4.1h4.8C217.3,128.4,217.2,128.1,217.1,127.9z M204.1,120.3c-0.4,0-0.4-0.2-0.3-0.6l2.6-7.1l2.9,7.6H204.1z"
			/>
		<path class="st2" d="M245,11.8c0-1-0.6-1.5-2-1.5c-0.6-0.1-1.3,0-1.1,1c0.2,0.7-0.8,2,0.9,2C244.2,13.4,245,12.8,245,11.8z"/>
		<path class="st2" d="M251,10.6l-1.4,3.9c3.1,0.4,3.1,0.4,2.1-2.3C251.5,11.8,251.3,11.3,251,10.6z"/>
		<path class="st2" d="M251.1,0c-7.5,0-13.6,6.1-13.6,13.7s6.1,13.6,13.7,13.6c7.5,0,13.6-6.1,13.6-13.7C264.7,6.1,258.6,0,251.1,0
			C251.1,0,251.1,0,251.1,0z M245.4,17.1c-0.3-0.6-0.7-1.2-1.1-1.8c-0.3-0.5-0.7-0.9-1.3-1c-0.7-0.1-1.2-0.1-1.1,0.9
			c0.1,0.7,0,1.4,0,2.1c0,0.3-0.1,0.5-0.5,0.5s-0.5-0.2-0.5-0.6c0-2.4,0-4.9,0-7.3c0-0.4,0.2-0.6,0.6-0.6c0.8,0,1.7,0,2.5,0.1
			c1,0,1.8,0.7,2,1.6c0.3,1-0.2,2.1-1.1,2.5l-0.6,0.3c1,1.1,1.9,2.4,2.6,3.7c-0.5,0.3-1.1,0.2-1.4-0.2
			C245.5,17.3,245.4,17.2,245.4,17.1z M254.3,17.8c-0.4,0.1-0.7-0.2-0.8-0.5c-0.3-0.6-0.2-1.5-0.9-1.7c-1-0.1-2-0.1-3-0.1
			c-0.5,0-0.5,0.4-0.6,0.8s-0.3,0.8-0.4,1.2s-0.5,0.3-0.8,0.3c-0.4-0.1-0.2-0.4-0.1-0.7c0.9-2.4,1.8-4.8,2.7-7.1
			c0.1-0.4,0.3-0.6,0.8-0.6c0.4,0,0.7,0.2,0.8,0.6c0.9,2.4,1.8,4.8,2.8,7.3c0,0.1,0,0.1,0.1,0.2C254.8,17.7,254.6,17.8,254.3,17.8z
			 M259.4,18c-2.2,0-4-1.8-4-4c0-0.1,0-0.2,0-0.3c0-2.6,1.7-4.4,4-4.4s4,1.8,4,4.3S261.8,17.9,259.4,18L259.4,18z"/>
		<path class="st2" d="M259.5,10.1c-1.8-0.1-3,1.4-3,3.4s1.1,3.4,2.8,3.5s3-1.3,3-3.4S261.3,10.2,259.5,10.1z"/>
	</g>
</g>
</svg>
