<?xml version="1.0" encoding="UTF-8"?>
<svg width="44px" height="44px" viewBox="0 0 44 44" version="1.1" xmlns="http://www.w3.org/2000/svg" xmlns:xlink="http://www.w3.org/1999/xlink">
    <!-- Generator: Sketch 54.1 (76490) - https://sketchapp.com -->
    <title>tunwei</title>
    <desc>Created with Sketch.</desc>
    <g id="页面1" stroke="none" stroke-width="1" fill="none" fill-rule="evenodd">
        <g id="5-5-体测数据" transform="translate(-32.000000, -1003.000000)">
            <g id="编组-11" transform="translate(32.000000, 1000.000000)">
                <g id="tunwei" transform="translate(0.000000, 3.000000)">
                    <rect id="矩形" x="0" y="0" width="44" height="44"></rect>
                    <g id="编组-7" transform="translate(2.000000, 1.000000)" stroke="#222527" stroke-linecap="round" stroke-width="2">
                        <g id="编组-6">
                            <path d="M8.14148192,0 C7.56694055,2.08897785 6.91250491,3.93250083 6.178175,5.53056895 C4.17348505,9.8932281 0,13.6653211 0,21.4509294 C8.0420412e-17,28.1194819 1.57455223,33.0841297 5.1400984,41.3380133" id="路径-6"></path>
                            <path d="M6.66571215,29.1764527 C7.68949023,29.6648837 8.81649841,29.9352168 10,29.9352168 C14.6944204,29.9352168 19,26.7953611 19,21.548656" id="路径"></path>
                            <path d="M17.5,27.5 C19.1666667,31.428186 19.1666667,36.0408571 17.5,41.3380133" id="路径-7"></path>
                        </g>
                        <g id="编组-6" transform="translate(30.551931, 21.000000) scale(-1, 1) translate(-30.551931, -21.000000) translate(21.051931, 0.000000)">
                            <path d="M8.14148192,0 C7.56694055,2.08897785 6.91250491,3.93250083 6.178175,5.53056895 C4.17348505,9.8932281 0,13.6653211 0,21.4509294 C8.0420412e-17,28.1194819 1.57455223,33.0841297 5.1400984,41.3380133" id="路径-6"></path>
                            <path d="M6.66571215,29.1764527 C7.68949023,29.6648837 8.81649841,29.9352168 10,29.9352168 C14.6944204,29.9352168 19,26.7953611 19,21.548656" id="路径"></path>
                            <path d="M17.5,27.5 C19.1666667,31.428186 19.1666667,36.0408571 17.5,41.3380133" id="路径-7"></path>
                        </g>
                    </g>
                </g>
            </g>
        </g>
    </g>
</svg>