<?xml version="1.0" encoding="UTF-8"?>
<svg width="80px" height="80px" viewBox="0 0 80 80" version="1.1" xmlns="http://www.w3.org/2000/svg" xmlns:xlink="http://www.w3.org/1999/xlink">
    <!-- Generator: Sketch 50.2 (55047) - http://www.bohemiancoding.com/sketch -->
    <title>user-30</title>
    <desc>Created with Sketch.</desc>
    <defs></defs>
    <g id="会员管理" stroke="none" stroke-width="1" fill="none" fill-rule="evenodd">
        <g id="vip-会员资料" transform="translate(-194.000000, -216.000000)">
            <g id="弹窗" transform="translate(150.000000, 117.000000)">
                <g id="会员" transform="translate(20.000000, 75.000000)">
                    <g id="user-30" transform="translate(24.000000, 24.000000)">
                        <rect id="Rectangle-9" fill="#FFFFFF" x="0" y="0" width="80" height="80"></rect>
                        <path d="M67.9177215,76.3092784 L67.9177215,79.9175258 L13.0822785,79.9175258 L13.0822785,76.3092784 C13.0822785,76.3092784 13.2121519,68.414433 26.7911392,64.0412371 C26.7911392,64.0412371 31.7118987,61.4721649 33.2848101,59.7113402 C33.2848101,59.7113402 36.2574684,63.3195876 40.5,63.3195876 C44.7425316,63.3195876 47.7151899,59.7113402 47.7151899,59.7113402 C49.2881013,61.4721649 54.2088608,64.0412371 54.2088608,64.0412371 C67.8744304,68.371134 67.9177215,76.3092784 67.9177215,76.3092784 L67.9177215,76.3092784 Z" id="Shape" fill="#E7ECED"></path>
                        <path d="M29.6772152,25.0721649 C29.6772152,29.3443299 24.6265823,30.1237113 24.6265823,30.1237113 L24.6265823,22.9072165 C24.6265823,22.9072165 25.2903797,12.0824742 40.5,12.0824742 C55.7096203,12.0824742 56.3734177,22.9072165 56.3734177,22.9072165 L56.3734177,30.1237113 C56.3734177,30.1237113 51.3227848,29.4597938 51.3227848,25.0721649 L40.5,29.4020619 L29.6772152,25.0721649 L29.6772152,25.0721649 Z" id="Shape" fill="#AFB6BB"></path>
                        <path d="M33.2848101,55.1216495 C35.3916456,56.2185567 37.8159494,56.8247423 40.5,56.8247423 C43.1840506,56.8247423 45.6083544,56.2185567 47.7151899,55.1216495 L47.7151899,59.7113402 C47.7151899,59.7113402 44.7425316,63.3195876 40.5,63.3195876 C36.2574684,63.3195876 33.2848101,59.7113402 33.2848101,59.7113402 L33.2848101,55.1216495 L33.2848101,55.1216495 Z" id="Shape" fill="#FFE1B2"></path>
                        <path d="M24.6265823,39.5051546 C24.6265823,40.4721649 24.6843038,41.4247423 24.8141772,42.3484536 C22.5774684,42.0453608 20.2974684,39.9092784 20.2974684,38.0618557 C20.2974684,36.0701031 22.2311392,35.1752577 24.6265823,35.1752577 L24.6265823,39.5051546 L24.6265823,39.5051546 Z" id="Shape" fill="#FFE1B2"></path>
                        <path d="M56.3734177,35.1752577 C58.7688608,35.1752577 60.7025316,36.0701031 60.7025316,38.0618557 C60.7025316,39.9092784 58.4225316,42.0453608 56.1858228,42.3484536 C56.3156962,41.4247423 56.3734177,40.4721649 56.3734177,39.5051546 L56.3734177,35.1752577 L56.3734177,35.1752577 Z" id="Shape" fill="#FFE1B2"></path>
                        <path d="M56.3734177,35.1752577 L56.3734177,39.5051546 C56.3734177,40.4721649 56.3156962,41.4247423 56.1858228,42.3484536 C55.4065823,47.9917526 52.3473418,52.7257732 47.7151899,55.1216495 C45.6083544,56.2185567 43.1840506,56.8247423 40.5,56.8247423 C37.8159494,56.8247423 35.3916456,56.2185567 33.2848101,55.1216495 C28.6526582,52.7257732 25.5934177,47.9917526 24.8141772,42.3484536 C24.6843038,41.4247423 24.6265823,40.4721649 24.6265823,39.5051546 L24.6265823,35.1752577 L24.6265823,30.1237113 C24.6265823,30.1237113 29.6772152,29.3443299 29.6772152,25.0721649 L40.5,29.4020619 L51.3227848,25.0721649 C51.3227848,29.4597938 56.3734177,30.1237113 56.3734177,30.1237113 L56.3734177,35.1752577 L56.3734177,35.1752577 Z" id="Shape" fill="#FFE1B2"></path>
                    </g>
                </g>
            </g>
        </g>
    </g>
</svg>