<?xml version="1.0" encoding="UTF-8"?>
<svg width="80px" height="80px" viewBox="0 0 80 80" version="1.1" xmlns="http://www.w3.org/2000/svg" xmlns:xlink="http://www.w3.org/1999/xlink">
    <title>zhishiku</title>
    <defs>
        <linearGradient x1="46.7198928%" y1="45.9402572%" x2="50%" y2="50.9238919%" id="linearGradient-1">
            <stop stop-color="#FF7517" offset="0%"></stop>
            <stop stop-color="#FE9247" offset="100%"></stop>
        </linearGradient>
        <linearGradient x1="8.69921193%" y1="55.0132731%" x2="97.3528486%" y2="47.4316088%" id="linearGradient-2">
            <stop stop-color="#FF7517" offset="0%"></stop>
            <stop stop-color="#FE9247" offset="47.8924057%"></stop>
            <stop stop-color="#FF7517" offset="100%"></stop>
        </linearGradient>
        <linearGradient x1="50.0205761%" y1="100.004128%" x2="50.0205761%" y2="0.141743119%" id="linearGradient-3">
            <stop stop-color="#4D87FF" offset="0%"></stop>
            <stop stop-color="#1965FF" offset="100%"></stop>
        </linearGradient>
        <linearGradient x1="50.0278293%" y1="99.9119943%" x2="50.0278293%" y2="0.0026021685%" id="linearGradient-4">
            <stop stop-color="#4D87FF" offset="0%"></stop>
            <stop stop-color="#1965FF" offset="100%"></stop>
        </linearGradient>
    </defs>
    <g id="首页" stroke="none" stroke-width="1" fill="none" fill-rule="evenodd">
        <g id="1-首页" transform="translate(-599.000000, -379.000000)">
            <g id="金刚区" transform="translate(63.000000, 379.000000)">
                <g id="图标备份-4" transform="translate(528.000000, 0.000000)">
                    <g id="zhishiku" transform="translate(8.000000, 0.000000)">
                        <path d="M40,80 C69,80 80,68 80,40 C80,12 69,0 40,0 C11,0 0,12 0,40 C0,68 11,80 40,80 Z" id="椭圆形"></path>
                        <g id="椭圆形_1_" transform="translate(0.000000, 24.000000)" fill="url(#linearGradient-1)" fill-rule="nonzero">
                            <path d="M78.9,7.7 C77.5,1 66.9,0.6 63.5,0.5 C63,0.5 62.4,0.5 61.8,0.5 C61.6,0.5 61.4,0.5 61.2,0.5 C54.3,0.5 45.8,1.5 37.1,3.3 C28.1,5.2 19.7,7.9 13.3,10.8 C12.8,11 12.3,11.3 11.8,11.5 C8.7,13 -0.8,17.6 0.7,24.3 C2.1,31 12.7,31.4 16.1,31.5 C16.6,31.5 17.2,31.5 17.7,31.5 C16,29.1 14.6,26.3 13.8,23.3 C11.7,23.1 10.1,22.8 9.1,22.4 C9.9,21.7 11.1,20.7 13,19.7 C17.8,17 26.4,13.6 38.7,11 C51,8.4 60.2,8 65.7,8.5 C67.8,8.7 69.4,9 70.4,9.4 C69.6,10.1 68.4,11.1 66.5,12.1 C66.7,13.3 66.8,14.6 66.8,15.9 C66.8,17.7 66.6,19.4 66.3,21.1 C66.8,20.9 67.3,20.6 67.8,20.4 C70.9,19 80.3,14.4 78.9,7.7 Z" id="路径"></path>
                        </g>
                        <g id="蒙版" transform="translate(12.000000, 13.000000)">
                            <path d="M54.8,27 C54.8,28.8 54.6,30.5 54.3,32.2 C47.9,35.1 39.5,37.8 30.5,39.7 C21.8,41.5 13.4,42.5 6.4,42.5 C6.2,42.5 5.9,42.5 5.7,42.5 C4,40.1 2.6,37.3 1.8,34.3 C7.3,34.8 16.5,34.4 28.8,31.8 C41.1,29.2 49.7,25.8 54.5,23.1 C54.7,24.4 54.8,25.7 54.8,27 Z" id="路径" fill="url(#linearGradient-2)" fill-rule="nonzero"></path>
                            <path d="M30.5,39.7 C39.5,37.8 47.9,35.2 54.3,32.2 C51.9,44.6 40.9,54 27.8,54 C18.7,54 10.6,49.5 5.7,42.5 C5.9,42.5 6.2,42.5 6.4,42.5 C13.4,42.6 21.8,41.6 30.5,39.7 Z" id="路径" fill="url(#linearGradient-3)"></path>
                            <path d="M1.8,34.4 C1.5,33.3 1.2,32.1 1,30.9 C0.8,29.7 0.7,28.4 0.7,27.1 C0.7,25.3 0.9,23.6 1.2,21.9 C3.7,9.4 14.7,0 27.8,0 C36.9,0 45,4.5 49.9,11.5 C51.6,14 53,16.7 53.8,19.7 C54.1,20.9 54.4,22 54.6,23.2 C49.8,25.9 41.2,29.3 28.9,31.9 C16.6,34.5 7.3,34.9 1.8,34.4 Z" id="路径" fill="url(#linearGradient-4)"></path>
                        </g>
                        <path d="M55.5,29.4 C54.8,28.4 54,27.4 53.1,26.5 C49.7,23.1 45,21 39.7,21" id="路径" stroke="#FFFFFF" stroke-width="3" stroke-linecap="round"></path>
                    </g>
                </g>
            </g>
        </g>
    </g>
</svg>