<?xml version="1.0" encoding="UTF-8"?>
<svg width="80px" height="80px" viewBox="0 0 80 80" version="1.1" xmlns="http://www.w3.org/2000/svg" xmlns:xlink="http://www.w3.org/1999/xlink">
    <title>zixun</title>
    <defs>
        <linearGradient x1="50%" y1="0%" x2="50%" y2="100%" id="linearGradient-1">
            <stop stop-color="#FE9247" offset="0%"></stop>
            <stop stop-color="#FF7517" offset="100%"></stop>
        </linearGradient>
        <linearGradient x1="50%" y1="0%" x2="50%" y2="100%" id="linearGradient-2">
            <stop stop-color="#4D87FF" offset="0%"></stop>
            <stop stop-color="#1965FF" offset="100%"></stop>
        </linearGradient>
        <linearGradient x1="50%" y1="0%" x2="50%" y2="100%" id="linearGradient-3">
            <stop stop-color="#1965FF" offset="0%"></stop>
            <stop stop-color="#4D87FF" offset="100%"></stop>
        </linearGradient>
    </defs>
    <g id="首页" stroke="none" stroke-width="1" fill="none" fill-rule="evenodd">
        <g id="1-首页" transform="translate(-423.000000, -379.000000)">
            <g id="金刚区" transform="translate(28.000000, 91.000000)">
                <g id="图标备份-2" transform="translate(387.000000, 288.000000)">
                    <g id="zixun" transform="translate(8.000000, 0.000000)">
                        <path d="M40,80 C69,80 80,68 80,40 C80,12 69,0 40,0 C11,0 0,12 0,40 C0,68 11,80 40,80 Z" id="椭圆形"></path>
                        <g id="编组" transform="translate(14.000000, 10.000000)">
                            <rect id="矩形" fill="url(#linearGradient-1)" transform="translate(42.000000, 41.000000) scale(-1, 1) translate(-42.000000, -41.000000) " x="32" y="22" width="20" height="38" rx="4"></rect>
                            <path d="M4,0 L40,0 C42.209139,-4.05812251e-16 44,1.790861 44,4 L44,56 C44,58.209139 42.209139,60 40,60 L4,60 C1.790861,60 2.705415e-16,58.209139 0,56 L0,4 C-2.705415e-16,1.790861 1.790861,4.05812251e-16 4,0 Z M40,0 L32,0 L32,0 L44,12 L44,4 C44,1.790861 42.209139,4.05812251e-16 40,0 Z" id="形状结合" fill="url(#linearGradient-2)"></path>
                            <path d="M44,22 L44,56 C44,58.209139 42.209139,60 40,60 L36,60 C33.790861,60 32,58.209139 32,56 L32,56 L32,26 C32,23.790861 33.790861,22 36,22 L36,22 L44,22 Z" id="形状结合" fill="#0155FE"></path>
                            <path d="M36,0 L44,0 L44,0 L32,12 L32,4 C32,1.790861 33.790861,4.05812251e-16 36,0 Z" id="矩形" fill="url(#linearGradient-3)" transform="translate(38.000000, 6.000000) scale(1, -1) translate(-38.000000, -6.000000) "></path>
                            <rect id="矩形" fill="#FFFFFF" x="8" y="22" width="20" height="3" rx="1.5"></rect>
                            <rect id="矩形备份-2" fill="#FFFFFF" x="8" y="33" width="12" height="3" rx="1.5"></rect>
                        </g>
                    </g>
                </g>
            </g>
        </g>
    </g>
</svg>