<?xml version="1.0" encoding="UTF-8"?>
<svg width="50px" height="50px" viewBox="0 0 50 50" version="1.1" xmlns="http://www.w3.org/2000/svg" xmlns:xlink="http://www.w3.org/1999/xlink">
    <!-- Generator: Sketch 58 (84663) - https://sketch.com -->
    <title>card</title>
    <desc>Created with Sketch.</desc>
    <defs>
        <linearGradient x1="89.6556273%" y1="85.8501114%" x2="14.1150086%" y2="18.7946152%" id="linearGradient-1">
            <stop stop-color="#649AEB" offset="0%"></stop>
            <stop stop-color="#297CF7" offset="100%"></stop>
        </linearGradient>
    </defs>
    <g id="icon" stroke="none" stroke-width="1" fill="none" fill-rule="evenodd">
        <g id="other-icons" transform="translate(-247.000000, -16.000000)">
            <g id="card" transform="translate(247.000000, 16.000000)">
                <rect id="矩形" fill="url(#linearGradient-1)" x="0" y="0" width="50" height="50" rx="5"></rect>
                <g id="logo" transform="translate(6.250000, 15.937500)" fill="#FFFFFF" fill-rule="nonzero">
                    <path d="M25.4856003,15.3440002 C25.630288,15.4614197 25.7357705,15.6201318 25.7880003,15.7990002 C25.8202003,15.8900002 25.7880003,15.9208002 25.7040003,15.9278002 C25.6481344,15.9331844 25.5928531,15.9434911 25.5388003,15.9586002 C25.3498003,16.0062002 25.2210003,16.0076002 25.0754003,15.7990002 C24.7758003,15.3650002 23.9554003,15.5302002 23.7594003,16.0412002 C23.6388144,16.3574838 23.6428175,16.7077552 23.7706003,17.0212002 C23.9228137,17.3978111 24.3310192,17.6028129 24.7240003,17.5000002 C24.8337805,17.4775638 24.940151,17.4408519 25.0404003,17.3908002 C25.2322003,17.2956002 25.2756003,17.2018002 25.2350003,16.9904002 C25.2196003,16.9120002 25.1706003,16.9274002 25.1244003,16.9274002 L24.6540003,16.9274002 C24.5784003,16.9274002 24.5350003,16.9078002 24.5434003,16.8238002 L24.5434003,16.7902002 C24.534417,16.4668002 24.5336684,16.4398502 24.8042735,16.4376044 L25.7418003,16.4374002 C25.8272003,16.4374002 25.8594003,16.4598002 25.8580003,16.5494002 L25.8580003,17.4888002 C25.8578534,17.5628055 25.8154449,17.6302241 25.7488003,17.6624002 C25.5142616,17.8155458 25.2530797,17.9233427 24.9788003,17.9802002 C24.9494003,17.9802002 24.9088003,17.9732002 24.8962003,18.0180002 L24.1920003,18.0096002 C24.1780003,17.9592002 24.1304003,17.9662002 24.0954003,17.9578002 C23.4738003,17.7954002 23.1546003,17.3726002 23.0608003,16.7566002 C22.9586003,16.0874002 23.2540003,15.4448002 23.8280003,15.2040002 C24.4020003,14.9632002 24.9620003,14.9688002 25.4856003,15.3440002 Z M16.5018002,15.0598002 C16.6369988,15.0683406 16.7726016,15.0683406 16.9078002,15.0598002 C16.8406002,15.1676002 16.7902002,15.2516002 16.7356002,15.3398002 C16.4556002,15.7724002 16.1756002,16.2050002 15.8956002,16.6348002 C15.8259563,16.7348448 15.7901442,16.8545454 15.7934002,16.9764002 L15.7934002,18.0166002 L15.1872002,18.0096002 L15.1872002,16.8518002 C15.1847776,16.7825298 15.1613401,16.7156353 15.1200002,16.6600002 L14.0966002,15.0654002 L14.7798002,15.0654002 C14.8456002,15.0654002 14.8610002,15.1354002 14.8876002,15.1816002 C15.0948002,15.5190002 15.2992002,15.8592002 15.5162002,16.2190002 C15.7010002,15.9096002 15.8914002,15.6212002 16.0482002,15.3146002 C16.1131264,15.1271102 16.3079052,15.0176974 16.5018002,15.0598002 Z M20.6710003,15.2054002 C21.2030003,15.4336002 21.4102003,15.8900002 21.4298003,16.4500002 C21.4494003,17.0338002 21.2800003,17.5336002 20.7466003,17.8374002 C20.6523336,17.8906002 20.5474892,17.9139336 20.4465854,17.9455632 L20.3000003,18.0040002 L19.6224003,18.0040002 C19.6112003,17.9606002 19.5706002,17.9690002 19.5412002,17.9606002 C18.8944002,17.7688002 18.5458002,17.3250002 18.5206002,16.6488002 C18.5010002,16.1406002 18.6004002,15.6674002 19.0316002,15.3454002 C19.5412002,14.9702002 20.1110003,14.9660002 20.6710003,15.2054002 Z M29.2152004,15.0808002 C29.3014404,15.1502402 29.3366084,15.2877762 29.3773316,15.411693 L29.4098004,15.5008002 L30.3898004,17.9060002 L30.4146504,17.9569252 L30.4416004,18.0026002 L29.7696004,18.0026002 C29.6926004,17.8122002 29.6128004,17.6218002 29.5414004,17.4300002 C29.5318995,17.3838021 29.4969331,17.3489241 29.4537219,17.3376928 L29.4084004,17.3348002 L28.4060004,17.3348002 C28.3598004,17.3348002 28.3136004,17.3348002 28.2968004,17.3880002 C28.2410292,17.5207845 28.1916633,17.6561246 28.1488611,17.7935521 L28.0896004,18.0012002 L27.4176004,18.0012002 C27.789067,17.0678669 28.1582004,16.1345335 28.5250004,15.2012002 C28.5670004,15.0906002 28.6188004,15.0388002 28.7420004,15.0514002 C28.9016004,15.0696002 29.1074004,14.9940002 29.2152004,15.0808002 Z M7.40880009,2.73840003 C7.4396001,2.74960004 7.4690001,2.78040004 7.4984001,2.78040004 C7.8218001,2.75800004 7.9632001,3.03520004 8.1760001,3.19200004 C8.25580011,3.25080004 8.25580011,3.58400005 8.1984001,3.68620005 C8.07358148,3.92544876 7.89712264,4.13394755 7.6818001,4.29660005 C7.4900001,4.43380006 7.24780009,4.46600006 7.02380009,4.53320006 C6.77362059,4.61421862 6.51370202,4.66130532 6.25100008,4.67320006 C6.15486614,4.67984427 6.06037683,4.70157681 5.97100008,4.73760006 C5.59720007,4.86640006 5.21220007,4.94200006 4.82860006,5.03440006 C4.51780006,5.11000007 4.21820005,5.24860007 3.91020005,5.34520007 C3.88439395,5.3559334 3.85769017,5.36436617 3.83040005,5.37040007 C3.67780005,5.39000007 3.63020005,5.47260007 3.61060005,5.62520007 C3.55600005,6.06200008 3.47760004,6.49740008 3.40340004,6.93140009 C3.35860004,7.18760009 3.42720004,7.4438001 3.38940004,7.7000001 C3.35281751,8.09550006 3.35563134,8.4936567 3.39780004,8.88860011 C3.40480004,9.00340011 3.31380004,9.11540012 3.37120004,9.25540012 C3.51960004,9.07620012 3.73800005,9.04680012 3.89760005,8.91660011 C4.03223611,8.8363054 4.18368194,8.78837951 4.34000006,8.77660011 C4.62000006,8.71080011 4.90000006,8.64500011 5.11280007,8.43920011 C5.16242108,8.40213422 5.22077016,8.37850525 5.28220007,8.37060011 C5.72740007,8.25300011 6.13760008,8.0402001 6.56740008,7.8904001 C7.14000009,7.6860001 7.4732001,7.26600009 7.8400001,6.84600009 C7.9800001,6.68360009 8.1410001,6.55480008 8.29080011,6.38120008 C8.44060011,6.20760008 8.59040011,6.04100008 8.73040011,5.85480007 C8.90540011,5.61960007 9.16020012,5.46980007 9.39120012,5.29480007 C9.41920012,5.27800007 9.44782234,5.27986673 9.47665197,5.28546673 L9.52000012,5.29480007 L9.88680013,5.36340007 C10.3141005,5.42065925 10.628679,5.79210378 10.6148001,6.22300008 C10.6288001,6.70460009 10.5980001,7.18760009 10.6288001,7.6664001 C10.6477736,8.23245305 10.8111462,8.78425728 11.1034001,9.26940012 C11.2196001,9.45140012 11.3540001,9.49760012 11.5822001,9.38000012 C11.7892632,9.27506948 12.0076951,9.19427317 12.2332002,9.13920012 C12.295884,9.11558908 12.3530613,9.0793768 12.4012002,9.03280012 C12.6145896,8.86997974 12.8439671,8.72925738 13.0858002,8.61280011 C13.2500094,8.52746978 13.3934068,8.40701595 13.5058002,8.26000011 C13.6752002,8.0654001 13.8600002,7.8820001 14.0420002,7.6958001 C14.6622002,7.04340009 15.2558002,6.36580008 15.9026002,5.73580007 C16.0300002,5.61120007 16.1560002,5.49080007 16.2960002,5.37180007 C16.5648002,5.13240007 16.9092002,5.04140006 17.2312002,4.90140006 C17.3521845,4.87219146 17.4798325,4.8928775 17.5854002,4.95880006 C17.9467005,5.11017347 18.1498661,5.49654053 18.0698002,5.88000008 C18.0230768,6.22090399 17.9491066,6.55751494 17.8486002,6.88660009 C17.8066002,7.00420009 17.7352002,7.10780009 17.6988002,7.21980009 C17.6190002,7.4592001 17.5364002,7.6888001 17.4356002,7.9198001 C17.3348002,8.1508001 17.2858002,8.39160011 17.1556002,8.61980011 C17.0254002,8.84800011 17.0604002,9.12800012 16.8854002,9.33240012 C16.8526402,9.37331739 16.8526402,9.43148285 16.8854002,9.47240012 C17.0629804,9.3368059 17.2262295,9.18340804 17.3726002,9.01460012 C17.5630002,8.76820011 17.7548002,8.52040011 18.0516002,8.38040011 C18.097819,8.35666287 18.1292778,8.31157196 18.1356002,8.26000011 C18.1783944,8.05088402 18.3228676,7.87699089 18.5206002,7.7966001 C18.6338636,7.72763839 18.7342893,7.6395291 18.8174002,7.5362001 C19.3088002,7.03920009 19.8282003,6.59540008 20.5688003,6.54640008 C20.8717607,6.503202 21.1731202,6.63491127 21.3472003,6.88660009 C21.6020003,7.22960009 21.7392003,7.6230001 21.9464003,7.9856001 C21.9612154,8.00853348 21.9690015,8.03529832 21.9688003,8.0626001 C21.9100003,8.41960011 22.1914003,8.61560011 22.3594003,8.85640011 C22.4630003,9.00340011 22.8102003,8.92360011 22.9292003,8.78360011 C23.0846945,8.58732475 23.2881808,8.43446897 23.5200003,8.33980011 C23.757974,8.24948598 23.9696873,8.10128668 24.1360003,7.9086001 C24.3269691,7.69740973 24.5348595,7.50216131 24.7576003,7.32480009 C24.9536003,7.15820009 25.1930003,7.04060009 25.3736003,6.85440009 C25.4688529,6.73035679 25.5227231,6.57952028 25.5276003,6.42320008 C25.5854412,6.10098688 25.6678143,5.7836635 25.7740003,5.47400007 C25.8258003,5.29060007 26.0232003,5.22480007 26.0540003,5.02040006 C26.0820003,4.83700006 26.2346003,4.69000006 26.3508003,4.53880006 C26.6770553,4.1476691 27.0399009,3.78857385 27.4344004,3.46640004 C27.4932004,3.41180004 27.5702004,3.42160004 27.6332004,3.38800004 C27.7230355,3.3201889 27.8064525,3.24427002 27.8824004,3.16120004 C28.3024004,2.83640004 28.7616004,2.69920003 29.2824004,2.86300004 C29.4756004,2.92460004 29.6772004,2.95540004 29.8172004,3.14300004 C29.8760413,3.21476147 29.9164169,3.29983848 29.9348004,3.39080004 C29.9810004,3.67640005 30.0874004,3.97320005 29.9474004,4.25320005 C29.7906004,4.56680006 29.6688004,4.89300006 29.4280004,5.17300007 C28.9754,5.71389644 28.4555211,6.19472565 27.8810004,6.60380008 C27.6990004,6.73400009 27.5226004,6.88520009 27.3210003,6.99720009 C27.2064434,7.07499524 27.1040622,7.16935583 27.0172003,7.27720009 C26.9626003,7.32760009 26.9808003,7.40180009 26.9976003,7.4676001 C27.2034003,8.31320011 28,8.66460011 28.7266004,8.32580011 C28.941212,8.24718519 29.1467847,8.14580684 29.3398004,8.0234001 C29.3496004,8.0164001 29.3594004,8.0052001 29.3692004,8.0052001 C29.7696004,8.0388001 29.8844004,7.6426001 30.1644004,7.4788001 C30.5018004,7.27580009 30.7426004,6.93000009 31.1626004,6.84040009 C31.2102004,6.83060009 31.2326004,6.78860009 31.2620004,6.75500009 C31.4412004,6.55200008 31.7198004,6.51280008 31.9228004,6.34760008 C31.9782243,6.31988622 32.0403015,6.30824674 32.1020004,6.31400008 C32.2994004,6.30700008 32.3652004,6.40360008 32.3022004,6.59960008 C32.1957542,6.85372712 32.0284403,7.0777739 31.8150004,7.25200009 C31.5975405,7.44356249 31.3944597,7.65085464 31.2074004,7.8722001 C30.9430667,8.15430892 30.6416458,8.39921341 30.3114004,8.60020011 C30.1743636,8.69606573 30.0464257,8.80432085 29.9292004,8.92360011 C29.5835833,9.25837451 29.1798557,9.52736809 28.7378004,9.71740012 C28.4634893,9.84826284 28.1571512,9.89688794 27.8558004,9.85740013 C27.7102004,9.83500013 27.5674004,9.90920013 27.4134004,9.89800013 C27.2125587,9.89199067 27.0125825,9.86904257 26.8156003,9.82940013 C26.5838361,9.77434785 26.3675128,9.66762199 26.1828003,9.51720012 C25.7576665,9.1650491 25.48198,8.66471047 25.4114003,8.1172001 C25.408412,8.09643743 25.4042048,8.07586856 25.3988003,8.0556001 C25.3274003,8.0528001 25.2924003,8.1046001 25.2462003,8.1298001 C24.6834003,8.44620011 24.2340003,8.89560011 23.7874003,9.35200012 C23.6264003,9.51440012 23.4332003,9.64880012 23.2778003,9.80980013 C23.1218548,9.98258059 22.9422802,10.1324618 22.7444003,10.2550001 C22.4182003,10.4398001 22.0892003,10.6526001 21.6818003,10.5672001 C21.4511632,10.5099025 21.2459236,10.3779979 21.0980003,10.1920001 C20.8698003,9.93020013 20.6542003,9.65720012 20.6080003,9.29460012 C20.6010003,9.23720012 20.5548003,9.21200012 20.5170003,9.17980012 C20.3320593,9.01703904 20.1615561,8.83857275 20.0074003,8.64640011 C19.9090361,8.4921037 19.7065589,8.442719 19.5482002,8.53440011 C19.3982177,8.61181461 19.2573454,8.70572946 19.1282002,8.81440011 C19.0257314,8.91825717 18.8985517,8.99437232 18.7586002,9.03560012 C18.6942002,9.04540012 18.6676002,9.11400012 18.6340002,9.16440012 C18.5112752,9.35339262 18.3333536,9.5000313 18.1244002,9.58440012 C18.077197,9.60128337 18.0365303,9.63264081 18.0082002,9.67400012 C17.5602002,10.3026001 16.9792002,10.8164001 16.4276002,11.3540001 C16.3785799,11.3982523 16.3318523,11.4449798 16.2876002,11.4940001 C15.9894002,11.8482002 15.6016002,11.9434002 15.1676002,11.9042002 C14.9408002,11.8846002 14.8876002,11.7586002 14.8694002,11.5276001 C14.8134002,10.8556001 15.1690002,10.2886001 15.3090002,9.66560012 C15.3734002,9.35760012 15.5218002,9.06500012 15.5890002,8.76400011 C15.6562002,8.46300011 15.7850002,8.1774001 15.8200002,7.8694001 C15.8290085,7.82751207 15.8183398,7.78380527 15.7910451,7.75077867 C15.7637504,7.71775208 15.7228352,7.6990424 15.6800002,7.7000001 C15.5685198,7.68744949 15.4559835,7.71152931 15.3594002,7.7686001 C15.2390002,7.8400001 15.1200002,7.9128001 15.0066002,7.9954001 C14.8016574,8.13832368 14.5831359,8.26071447 14.3542002,8.36080011 C14.015401,8.49135027 13.7003929,8.67676048 13.4218002,8.90960011 C12.8772002,9.42060012 12.2360002,9.81120013 11.6424001,10.2606001 C11.3940943,10.4329206 11.1180044,10.5612575 10.8262001,10.6400001 C10.4090001,10.7800001 9.71320012,10.5280001 9.52280012,10.1612001 C9.43079364,9.98054442 9.35218211,9.79337411 9.28760012,9.60120012 C9.23160012,9.43460012 9.11540012,9.28480012 9.08040012,9.10280012 C9.06613804,9.06061453 9.05444988,9.01760209 9.04540012,8.97400011 C9.01320012,8.56100011 8.79900011,8.22360011 8.64360011,7.8610001 C8.59320011,7.7266001 8.50360011,7.6622001 8.36360011,7.7476001 C8.3392518,7.76135391 8.3117645,7.76858741 8.28380011,7.7686001 C7.8610001,7.7616001 7.5446001,7.9898001 7.21280009,8.2152001 C6.81240009,8.48820011 6.54640008,8.88300011 6.20900008,9.21200012 C5.89960008,9.51440012 5.58460007,9.82380013 5.18000007,10.0086001 C5.06309924,10.0612567 4.95933887,10.1391966 4.87620006,10.2368001 C4.78014852,10.347213 4.66721628,10.441717 4.54160006,10.5168001 C4.12109909,10.7827699 3.68490342,11.0230749 3.23540004,11.2364001 C3.09881378,11.2900686 3.01428758,11.4277092 3.02820004,11.5738001 C3.01700004,11.8412002 3.06460004,12.1156002 2.94840004,12.3732002 C2.93164004,12.4150491 2.9286968,12.4611599 2.94000004,12.5048002 C3.03232217,12.9005213 3.02365648,13.3131045 2.91480004,13.7046002 C2.90500004,13.7424002 2.88120004,13.7956002 2.89800004,13.8166002 C3.01980004,13.9748002 2.93720004,14.1358002 2.91760004,14.2968002 C2.88400004,14.5838002 3.00720004,14.8624002 2.96240004,15.1522002 C2.95919205,15.2520804 2.94984105,15.3516686 2.93440004,15.4504002 C2.87980004,15.6534002 2.94840004,15.8550002 2.94840004,16.0594002 C2.95495131,16.1700724 2.95167179,16.2811076 2.93860004,16.3912002 C2.8992453,16.6648056 2.87866387,16.9407839 2.87700004,17.2172002 C2.85391484,17.4446391 2.81697961,17.6704583 2.76640004,17.8934002 C2.76012839,17.9453695 2.71653647,17.9847814 2.66420003,17.9858002 C2.60956682,18.0009236 2.55258287,18.0056723 2.49620003,17.9998002 C2.3330013,17.9890209 2.19410898,17.8770109 2.14900003,17.7198002 C2.08651631,17.5641063 2.03230733,17.4052179 1.98660003,17.2438002 C1.75438121,16.5371303 1.58203984,15.8121726 1.47140002,15.0766002 C1.34355717,14.4071435 1.27283605,13.7280335 1.26000002,13.0466002 C1.26565317,12.7753387 1.22977138,12.5048089 1.15360001,12.2444002 C1.13269553,12.1743864 1.12980625,12.1002281 1.14520001,12.0288002 C1.17740002,11.9056002 1.13820001,11.8398002 1.00520001,11.8230002 C0.872965259,11.7986936 0.742114393,11.7673829 0.613200008,11.7292001 C0.477446082,11.6947858 0.350213854,11.6328375 0.239400003,11.5472001 C-0.0112000001,11.3638001 -0.0504000006,11.1272001 0.0994000013,10.8472001 C0.197241751,10.6519976 0.372442823,10.5067585 0.582400007,10.4468001 C0.722400009,10.4062001 0.851200011,10.3446001 0.991200013,10.2928001 C1.0985304,10.2546901 1.17606833,10.16046 1.19280002,10.0478001 C1.2775559,9.6496025 1.30396547,9.24119728 1.27120002,8.83540011 C1.24474596,8.3264567 1.27810744,7.81616707 1.37060002,7.31500009 C1.42240002,6.97760009 1.45460002,6.63880008 1.48540002,6.29860008 C1.49520002,6.19500008 1.46860002,6.18660008 1.37760002,6.21740008 C0.918400012,6.38120008 0.525000007,6.20200008 0.149800002,5.96120008 C0.0646800008,5.90632008 0.0476560006,5.80932807 0.0220304003,5.71824967 L1.77635684e-14,5.65180007 L1.77635684e-14,5.08060006 C0.0560000007,5.05680006 0.0560000007,5.00220006 0.0714000009,4.95600006 C0.174899806,4.63054815 0.375128003,4.34436834 0.645400008,4.13560005 C0.791318569,4.00929896 0.943654256,3.89060797 1.10180001,3.78000005 C1.32860002,3.64000005 1.55820002,3.51260004 1.80320002,3.38800004 C2.04820003,3.26340004 2.27220003,3.11360004 2.57740003,3.09400004 C2.89330617,3.0524599 3.20248717,2.97010575 3.49720004,2.84900004 C4.18880005,2.61380003 4.91120006,2.63760003 5.61960007,2.55360003 C5.77500007,2.53540003 5.93180008,2.52140003 6.08720008,2.50740003 C6.53949329,2.48413535 6.99121521,2.56309098 7.40880009,2.73840003 Z M19.9906003,15.5526002 C19.6495071,15.5327123 19.3365035,15.741191 19.2234002,16.0636002 C19.1259638,16.3463169 19.1205727,16.6526299 19.2080002,16.9386002 C19.3145608,17.2890535 19.6449755,17.5228159 20.0109143,17.5066473 C20.3402592,17.4920955 20.6230871,17.2784263 20.7312069,16.9745018 L20.7606003,16.8700002 C20.7898358,16.7618409 20.8025691,16.6458259 20.7984003,16.5298002 C20.8018123,16.3813568 20.7810062,16.2333497 20.7368003,16.0916002 C20.6395627,15.7631608 20.3329577,15.5416918 19.9906003,15.5526002 Z M28.9016004,15.7682002 L28.5334004,16.7608002 C28.5218504,16.7923002 28.5197504,16.8198627 28.5448191,16.8316752 L28.5796004,16.8378002 L29.3062004,16.8378002 L28.9016004,15.7682002 Z M28.2086004,4.51780006 C27.7410081,4.83545915 27.3436053,5.24572754 27.0410003,5.72320007 C26.9897987,5.80991462 26.9533688,5.90453776 26.9332003,6.00320008 C26.9248003,6.04520008 26.9346003,6.10540008 26.9752003,6.08580008 C27.1194003,6.01860008 27.3224003,6.08860008 27.4162004,5.92900008 C27.5282004,5.73766674 27.6856226,5.59797785 27.8519633,5.46886674 L28.1036004,5.27800007 C28.3220004,5.10860007 28.3612004,4.86500006 28.4242004,4.67040006 C28.4214004,4.45200006 28.3486004,4.41000006 28.2086004,4.51780006 Z M11.4926001,2.79440004 C11.6326001,2.93440004 11.6214001,3.09820004 11.6550001,3.25780004 C11.6633891,3.31715111 11.6671338,3.37706632 11.6662001,3.43700004 C11.6774001,3.58400005 11.6480001,3.72820005 11.6536001,3.87660005 C11.6648001,4.21960005 11.4562001,4.44780006 11.1930001,4.62840006 C11.0411899,4.75342979 10.8608503,4.83903099 10.6680001,4.87760006 C10.586438,4.89928084 10.4995144,4.88555605 10.4286001,4.83980006 C10.3818776,4.8090308 10.3213227,4.8090308 10.2746001,4.83980006 C10.0679833,4.94490914 9.81523856,4.86908573 9.70060012,4.66760006 C9.64320012,4.57940006 9.59140012,4.48560006 9.53400012,4.39600006 C9.3051869,4.07342079 9.33810616,3.63371353 9.61240012,3.34880004 C9.78879546,3.16094718 9.99864164,3.00759805 10.2312001,2.89660004 C10.2466001,2.88960004 10.2662001,2.87700004 10.2788001,2.88120004 C10.4608001,2.94980004 10.5462001,2.78740004 10.6652001,2.71460003 C10.8780001,2.58580003 11.3190001,2.62080003 11.4926001,2.79440004 Z M35.1470004,1.31894482e-13 C35.6534096,-0.00335624658 36.1402306,0.195465551 36.4995045,0.552374138 C36.8587785,0.909282726 37.0608088,1.39477973 37.0608088,1.90120002 C37.0638856,2.9541071 36.2129757,3.81023083 35.1600694,3.81358738 C34.1071632,3.81692424 33.2508281,2.96622705 33.2472084,1.91332164 C33.2436115,0.860416235 34.094096,0.00386983411 35.1470004,1.31894482e-13 Z M36.3160005,1.29080002 C35.9898005,1.29360002 35.7560005,1.54700002 35.7560005,1.90960002 C35.74347,2.06571819 35.7968903,2.21994964 35.9032994,2.3348714 C35.9884266,2.42680881 36.1012425,2.486866 36.223153,2.50695433 L36.3160005,2.51440003 C36.6506005,2.51160003 36.8760005,2.24980003 36.8760005,1.89420002 C36.8760005,1.53860002 36.6422005,1.28800002 36.3160005,1.29080002 Z M33.8128004,1.31460002 C33.7718504,1.31355002 33.7474379,1.32431252 33.7377911,1.35456564 L33.7330004,1.39160002 L33.7330004,2.41220003 C33.7330004,2.46540003 33.7540004,2.49760003 33.8072004,2.49480003 C33.8604004,2.49200003 33.8716004,2.46120003 33.8716004,2.41780003 C33.8716004,2.31700003 33.8814004,2.21620003 33.8716004,2.11680003 C33.8604004,1.98660003 33.9290004,1.97820003 34.0256004,1.99780003 C34.1013916,2.01844132 34.1655569,2.0689652 34.2034004,2.13780003 C34.259029,2.22102488 34.3104275,2.30700061 34.3574004,2.39540003 C34.3688773,2.43978135 34.4013547,2.4757325 34.4443456,2.49164472 C34.4873365,2.50755695 34.5353941,2.50141421 34.5730004,2.47520003 C34.5059965,2.35035736 34.4293633,2.23105443 34.3438461,2.11835754 L34.2090004,1.95440002 L34.2916004,1.90820002 C34.421575,1.84198562 34.4857569,1.6924242 34.4442004,1.55260002 C34.4189681,1.41845189 34.3006807,1.32204763 34.1642004,1.32440002 C34.0494004,1.31460002 33.9304004,1.31460002 33.8128004,1.31460002 Z M35.1442004,1.30900002 C35.0812004,1.30900002 35.0574004,1.33980002 35.0378004,1.39300002 C34.9132004,1.72620002 34.7844004,2.05940003 34.6584004,2.39260003 C34.6458004,2.42480003 34.6094004,2.46820003 34.6724004,2.48640003 C34.7144004,2.49760003 34.7634004,2.50600003 34.7886004,2.45000003 C34.8138004,2.39400003 34.8334004,2.32260003 34.8516004,2.27780003 C34.8698004,2.23300003 34.8768004,2.17280003 34.9426004,2.17280003 C35.0825704,2.16180917 35.2232955,2.16509276 35.3626005,2.18260003 C35.4592005,2.20360003 35.4508005,2.33660003 35.4886005,2.41920003 C35.5022859,2.46950067 35.5520662,2.50106867 35.6034005,2.49200003 C35.6412005,2.48780003 35.6706005,2.48220003 35.6496005,2.43320003 C35.6398005,2.42200003 35.6398005,2.41080003 35.6398005,2.40100003 C35.5096005,2.06360003 35.3794005,1.72620002 35.2534005,1.38600002 C35.2411424,1.33679763 35.194662,1.304023 35.1442004,1.30900002 Z M36.3342005,1.41960002 C36.5792005,1.42660002 36.7290005,1.60580002 36.7290005,1.90680002 C36.7290005,2.20780003 36.5498005,2.38980003 36.3090005,2.38560003 C36.0682005,2.38140003 35.9142005,2.19240003 35.9142005,1.90120002 C35.9142005,1.61000002 36.0878005,1.41260002 36.3342005,1.41960002 Z M35.14,1.48195819 C35.1834004,1.58340002 35.2100004,1.64780002 35.2310004,1.71220002 C35.3610005,2.06060003 35.3702862,2.08548574 35.0279484,2.04018472 L34.9426004,2.02860003 L35.14,1.48195819 Z M33.9812208,1.43520002 L34.0200004,1.43920002 C34.2216004,1.44340002 34.3000004,1.51060002 34.3000004,1.65060002 C34.3000004,1.79620002 34.1908004,1.87460002 33.9990004,1.85920002 C33.7624004,1.85920002 33.8996004,1.67860002 33.8730004,1.57920002 C33.8460004,1.47920002 33.8861433,1.44348573 33.9444494,1.43634288 L33.9812208,1.43520002 Z" id="形状结合"></path>
                </g>
            </g>
        </g>
    </g>
</svg>