<?xml version="1.0" encoding="UTF-8"?>
<svg width="50px" height="50px" viewBox="0 0 50 50" version="1.1" xmlns="http://www.w3.org/2000/svg" xmlns:xlink="http://www.w3.org/1999/xlink">
    <!-- Generator: Sketch 58 (84663) - https://sketch.com -->
    <title>wechat</title>
    <desc>Created with Sketch.</desc>
    <g id="icon" stroke="none" stroke-width="1" fill="none" fill-rule="evenodd">
        <g id="other-icons" transform="translate(-395.000000, -90.000000)">
            <g id="wechat" transform="translate(395.000000, 90.000000)">
                <rect id="矩形" x="0" y="0" width="50" height="50"></rect>
                <path d="M18.1923523,30.7937428 C17.9606025,30.9096176 17.7288528,30.967555 17.4391657,30.967555 C16.801854,30.967555 16.2804171,30.6199305 15.99073,30.0984936 L15.8748552,29.8667439 L11.2977984,19.9015064 C11.239861,19.7856315 11.239861,19.6697567 11.239861,19.5538818 C11.239861,19.0903824 11.5874855,18.7427578 12.0509849,18.7427578 C12.2247972,18.7427578 12.3986095,18.8006952 12.5724218,18.9165701 L17.9606025,22.7404403 C18.3661645,22.97219 18.829664,23.1460023 19.3511008,23.1460023 C19.6407879,23.1460023 19.9304751,23.0880649 20.2201622,22.97219 L45.4808806,11.7323291 C40.9617613,6.40208575 33.4878331,2.92584009 25.0289687,2.92584009 C11.239861,2.92584009 0,12.2537659 0,23.783314 C0,30.0405562 3.3603708,35.7184241 8.63267671,39.5422943 C9.0382387,39.8319815 9.32792584,40.3534183 9.32792584,40.8748552 C9.32792584,41.0486674 9.26998841,41.2224797 9.21205098,41.396292 C8.80648899,42.9606025 8.11123986,45.5098494 8.11123986,45.6257242 C8.05330243,45.7995365 7.99536501,46.0312862 7.99536501,46.2630359 C7.99536501,46.7265353 8.34298957,47.0741599 8.80648899,47.0741599 C8.98030127,47.0741599 9.15411356,47.0162225 9.26998841,46.9003476 L14.7161066,43.7137891 C15.1216686,43.4820394 15.585168,43.3082271 16.0486674,43.3082271 C16.2804171,43.3082271 16.5701043,43.3661645 16.801854,43.424102 C19.3511008,44.1772885 22.1320973,44.5828505 24.9710313,44.5828505 C38.760139,44.5828505 50,35.2549247 50,23.7253766 C50,20.2491309 48.9571263,16.9466976 47.161066,14.0498262 L18.3661645,30.6778679 L18.1923523,30.7937428 L18.1923523,30.7937428 Z" id="Icon" fill="#09BB07"></path>
            </g>
        </g>
    </g>
</svg>