<?xml version="1.0" standalone="no"?><!DOCTYPE svg PUBLIC "-//W3C//DTD SVG 1.1//EN" "http://www.w3.org/Graphics/SVG/1.1/DTD/svg11.dtd"><svg t="1605232540251" class="icon" viewBox="0 0 1024 1024" version="1.1" xmlns="http://www.w3.org/2000/svg" p-id="3960" xmlns:xlink="http://www.w3.org/1999/xlink" width="200" height="200"><defs><style type="text/css"></style></defs><path d="M477.866667 34.133333a273.066667 273.066667 0 0 1 147.370666 502.997334 441.642667 441.642667 0 0 1 138.282667 79.018666 34.133333 34.133333 0 1 1-43.946667 52.224 373.76 373.76 0 0 0-240.64-88.106666H476.672h1.152a375.466667 375.466667 0 0 0-375.466667 375.466666 34.133333 34.133333 0 1 1-68.266666 0c0-193.408 123.733333-357.888 296.32-418.645333A273.066667 273.066667 0 0 1 477.866667 34.133333z m492.458666 591.402667a34.133333 34.133333 0 0 1 0.981334 44.885333l-3.242667 3.328-298.368 271.786667a34.133333 34.133333 0 0 1-43.392 2.133333l-3.712-3.2-168.832-168.533333a34.133333 34.133333 0 0 1 44.373333-51.626667l3.84 3.328 145.792 145.493334 274.346667-249.813334a34.133333 34.133333 0 0 1 48.213333 2.218667zM477.866667 102.4a204.8 204.8 0 1 0 0 409.6h-1.152 2.218666a204.8 204.8 0 0 0-1.066666-409.6z" p-id="3961"></path></svg>