<?xml version="1.0" standalone="no"?><!DOCTYPE svg PUBLIC "-//W3C//DTD SVG 1.1//EN" "http://www.w3.org/Graphics/SVG/1.1/DTD/svg11.dtd"><svg t="1605232548446" class="icon" viewBox="0 0 1024 1024" version="1.1" xmlns="http://www.w3.org/2000/svg" p-id="4085" xmlns:xlink="http://www.w3.org/1999/xlink" width="200" height="200"><defs><style type="text/css"></style></defs><path d="M665.6 34.133333A51.2 51.2 0 0 1 716.8 85.333333v17.024l68.266667 0.042667a102.4 102.4 0 0 1 102.144 95.402667l0.256 6.997333v682.666667a102.4 102.4 0 0 1-95.402667 102.144l-6.997333 0.256H238.933333a102.4 102.4 0 0 1-102.144-95.402667L136.533333 887.466667v-682.666667a102.4 102.4 0 0 1 95.402667-102.144L238.933333 102.4l68.266667-0.042667V85.333333A51.2 51.2 0 0 1 353.152 34.389333L358.4 34.133333zM307.2 170.624L238.933333 170.666667a34.133333 34.133333 0 0 0-33.877333 29.866666l-0.256 4.266667v682.666667a34.133333 34.133333 0 0 0 29.866667 33.877333l4.266666 0.256h546.133334a34.133333 34.133333 0 0 0 33.877333-29.866667l0.256-4.266666v-682.666667a34.133333 34.133333 0 0 0-29.866667-33.877333L785.066667 170.666667l-68.266667-0.042667V187.733333a51.2 51.2 0 0 1-45.952 50.944L665.6 238.933333H358.4a51.2 51.2 0 0 1-51.2-51.2v-17.109333zM546.133333 614.4a34.133333 34.133333 0 0 1 4.266667 68.010667l-4.266667 0.256H307.2a34.133333 34.133333 0 0 1-4.266667-68.010667l4.266667-0.256h238.933333z m170.666667-204.8a34.133333 34.133333 0 0 1 4.266667 68.010667l-4.266667 0.256H307.2a34.133333 34.133333 0 0 1-4.266667-68.010667l4.266667-0.256h409.6z m-68.266667-307.2H375.466667V170.666667h273.066666V102.4z" p-id="4086"></path></svg>