<?xml version="1.0" encoding="UTF-8"?>
<svg width="48px" height="48px" viewBox="0 0 48 48" version="1.1" xmlns="http://www.w3.org/2000/svg" xmlns:xlink="http://www.w3.org/1999/xlink">
    <title>my-jiaopei</title>
    <defs>
        <linearGradient x1="50%" y1="0%" x2="50%" y2="100%" id="linearGradient-1">
            <stop stop-color="#FE9247" offset="0%"></stop>
            <stop stop-color="#FF7517" offset="100%"></stop>
        </linearGradient>
    </defs>
    <g id="教培" stroke="none" stroke-width="1" fill="none" fill-rule="evenodd">
        <g id="教培列表" transform="translate(-678.000000, -135.000000)">
            <g id="search" transform="translate(0.000000, 128.000000)">
                <g id="my-jiaopei" transform="translate(678.000000, 7.000000)">
                    <path d="M37.7665415,5.64013476 L32.4788675,5.21472292 C32.1101491,5.18506513 31.7609409,5.03683425 31.4834745,4.79220142 L27.5043646,1.28405263 C25.588031,-0.405444617 22.721479,-0.430494028 20.7759747,1.22533636 L16.7362216,4.66352879 C16.4545255,4.90327805 16.1027824,5.0453874 15.7336028,5.06860138 L10.4392918,5.4016301 C7.88960413,5.56198915 5.84497261,7.57124108 5.64008124,10.1177708 L5.21472292,15.4054448 C5.18506513,15.7741632 5.03683425,16.1233714 4.79220142,16.4008378 L1.28405263,20.3800012 C-0.405444617,22.2963348 -0.430494028,25.1628333 1.22533636,27.1083912 L4.66352879,31.1481442 C4.9032567,31.4298115 5.04536469,31.7815137 5.06860138,32.1506559 L5.4016301,37.4450205 C5.56198915,39.9947617 7.57124108,42.0393932 10.1177708,42.244231 L15.4054448,42.6695893 C15.7741632,42.6992471 16.1233714,42.847478 16.4008378,43.0921108 L20.3800012,46.6002597 C22.2963348,48.2898104 25.1628333,48.3148063 27.1083912,46.6589759 L31.1481442,43.220837 C31.4298115,42.9811091 31.7815137,42.8390011 32.1506559,42.8157644 L37.4450205,42.4827357 C39.9947617,42.3223231 42.0393932,40.3130712 42.244231,37.7665415 L42.6695893,32.4788675 C42.6992471,32.1101491 42.847478,31.7609409 43.0921108,31.4834745 L46.6002597,27.5043646 C48.2898104,25.588031 48.3148063,22.721479 46.6589759,20.7759747 L43.220837,16.7362216 C42.9810877,16.4545255 42.8389784,16.1027823 42.8157644,15.7336028 L42.4827357,10.4392918 C42.3223231,7.88960413 40.3130712,5.84497261 37.7665415,5.64008124 L37.7665415,5.64013476 Z" id="路径" fill="url(#linearGradient-1)"></path>
                    <path d="M34.6801489,18.6438147 C35.3474374,19.3008801 35.3623707,20.3702973 34.7186329,21.045668 L34.6988824,21.0660073 L24.5613638,31.3616369 C23.9168766,32.0162402 22.8724018,32.0448222 22.1931773,31.4312722 L22.1726775,31.4125386 L15.1117405,24.8269518 C14.4199378,24.1817688 14.3822031,23.0979535 15.0273861,22.4062044 C15.6660926,21.7213599 16.7347069,21.6774699 17.427259,22.3026882 L17.4481335,22.3218499 L23.2901061,27.7703648 L32.2580634,18.6626018 C32.9150752,17.9952598 33.9845459,17.98038 34.6598631,18.6241177 L34.6802024,18.6438147 L34.6801489,18.6438147 Z" id="路径" fill="#FFFFFF" fill-rule="nonzero"></path>
                </g>
            </g>
        </g>
    </g>
</svg>