<?xml version="1.0" standalone="no"?><!DOCTYPE svg PUBLIC "-//W3C//DTD SVG 1.1//EN" "http://www.w3.org/Graphics/SVG/1.1/DTD/svg11.dtd"><svg t="1607157816302" class="icon" viewBox="0 0 1024 1024" version="1.1" xmlns="http://www.w3.org/2000/svg" p-id="4002" xmlns:xlink="http://www.w3.org/1999/xlink" width="200" height="200"><defs><style type="text/css"></style></defs><path d="M768 1024H256a128 128 0 0 1-128-128V128A128 128 0 0 1 256 0h512a128 128 0 0 1 128 128v768a128 128 0 0 1-128 128zM256 85.333A42.667 42.667 0 0 0 213.333 128v768A42.667 42.667 0 0 0 256 938.667h512A42.667 42.667 0 0 0 810.667 896V128A42.667 42.667 0 0 0 768 85.333z m341.333 597.334h-256a42.667 42.667 0 0 1 0-85.334h256a42.667 42.667 0 0 1 0 85.334zM512 512H341.333a42.667 42.667 0 0 1 0-85.333H512A42.667 42.667 0 0 1 512 512z m170.667-170.667H341.333a42.667 42.667 0 0 1 0-85.333h341.334a42.667 42.667 0 0 1 0 85.333z" p-id="4003"></path></svg>